<svg xmlns="http://www.w3.org/2000/svg" width="348" height="420" viewBox="0 0 348 420" fill="none">
  <path d="M346.433 189.4C346.503 189.751 347.802 196.244 346.433 198.139C346.082 198.631 345.696 198.736 345.345 198.736C343.801 198.666 343.169 199.227 342.923 203.51C342.467 211.652 343.801 221.34 339.694 223.13C341.309 225.797 344.433 229.553 342.256 235.028C342.046 235.555 342.011 236.187 342.256 236.748C343.415 239.837 346.503 251.49 337.343 272.163C326.567 296.592 287.186 382.76 266.267 407.189C258.791 415.893 251.35 419.473 244.857 419.473C234.187 419.473 226.255 409.786 225.518 397.642C225.447 396.413 224.5 395.536 223.447 395.536C220.288 396.764 216.708 397.958 212.812 397.958C208.705 397.958 204.212 396.624 200.422 392.307C190.313 380.864 195.052 359.314 204.949 339.307C241.242 266.091 248.718 252.332 273.603 208.072C276.411 203.088 281.114 200.807 286.168 200.807C295.189 200.807 305.227 208.108 307.087 220.357C307.263 221.515 308.211 222.287 309.158 222.287C311.545 221.059 313.3 220.287 315.265 220.287C316.318 220.287 317.407 220.497 318.53 221.059C320.179 221.831 321.513 222.147 322.671 222.147C325.479 222.147 327.304 220.497 330.182 220.252C328.814 213.372 332.885 200.526 330.604 199.473C328.147 198.315 325.058 200.245 324.707 196.033C324.356 191.822 324.461 158.548 309.825 127.275C295.189 96.0015 302.875 101.337 298.699 97.1247C294.522 92.9129 241.803 43.7392 173.711 43.7392C105.655 43.7392 52.936 92.9129 48.7592 97.1247C44.5824 101.337 52.234 96.0015 37.5978 127.275C22.9615 158.548 23.0668 191.857 22.7509 196.033C22.3648 200.245 19.3112 198.315 16.8543 199.473C14.5729 200.561 18.6443 213.372 16.6086 219.269C20.1536 220.497 21.9787 222.147 24.7516 222.147C25.9098 222.147 27.2436 221.866 28.8932 221.059C30.0164 220.497 31.1045 220.287 32.1574 220.287C34.123 220.287 35.8779 221.094 37.2468 221.972C39.2474 222.287 40.16 221.515 40.3706 220.357C42.2308 208.108 52.2691 200.807 61.2896 200.807C66.3438 200.807 71.0471 203.088 73.855 208.072C98.7401 252.332 106.216 266.056 142.508 339.307C152.406 359.314 157.145 380.864 147.036 392.307C143.246 396.589 138.753 397.958 134.646 397.958C130.54 397.958 127.135 396.729 124.784 395.711C122.958 395.536 122.011 396.413 121.941 397.642C121.203 409.821 113.236 419.473 102.566 419.473C96.1077 419.473 88.6316 415.928 81.1907 407.189C60.2717 382.76 20.8907 296.592 10.1153 272.163C0.954492 251.49 4.04317 239.837 5.20143 236.748C5.41202 236.222 5.41202 235.625 5.20143 235.028C3.0253 229.518 6.1491 225.762 7.93914 224.183C3.62197 221.305 4.99085 211.652 4.49946 203.51C4.25377 199.263 3.62202 198.666 2.88494 198.666C1.76178 198.736 1.37569 198.666 1.0247 198.139C-0.379255 196.244 0.954504 189.716 1.0247 189.4C6.25444 124.151 29.5952 90.2453 33.772 87.1917C37.9487 84.1381 42.4765 71.1866 51.5321 61.2536C60.5876 51.3206 105.549 0.602692 173.711 0.602692C241.909 0.602692 286.87 51.3206 295.891 61.2536C304.946 71.1866 309.474 84.1381 313.651 87.1917C317.828 90.2453 341.168 124.186 346.398 189.4H346.433ZM286.8 72.6959C273.252 54.5497 256.054 39.6678 236.679 29.0328C217.269 18.3276 195.543 12.4661 173.747 12.431C162.901 12.5363 151.915 13.835 141.385 16.7131C110.077 25.2772 80.3483 45.6697 60.2717 72.6959C92.7382 42.1598 129.592 20.0475 173.571 20.0475C173.957 20.0475 174.133 20.0475 174.308 20.0475C216.567 20.0475 255.878 41.9492 286.835 72.6959M40.2302 227.728L39.9494 228.324C42.1255 235.45 44.6527 242.469 47.2851 249.419C51.2864 259.843 55.7088 270.092 60.5174 280.095C78.137 316.598 95.4408 353.628 117.658 387.112L118.22 387.252L118.36 386.585C104.707 361.665 91.2992 333.446 78.6284 307.788C66.0279 282.096 51.6022 254.543 40.7567 227.974L40.2302 227.728ZM282.272 290.099C291.96 270.233 301.085 249.7 307.614 228.324L307.368 227.763L306.807 227.974C301.085 241.627 295.048 255.07 288.625 268.267C268.9 306.876 249.806 348.608 229.203 386.585L229.308 387.217L229.87 387.112C250.157 356.681 266.127 323.197 282.237 290.063M24.2953 239.626C24.0496 240.434 24.0496 241.311 24.3655 242.048L25.9449 245.944C26.4363 247.102 27.4893 247.804 28.6125 247.804C29.0337 247.804 29.4197 247.699 29.8058 247.524C31.2449 246.786 31.9118 244.891 31.2449 243.312L29.6654 239.416C29.3495 238.644 28.7879 238.047 28.0509 237.766C27.6999 237.626 27.3489 237.555 26.9979 237.555C26.5767 237.555 26.1906 237.661 25.8045 237.836C25.0675 238.187 24.5761 238.819 24.2602 239.591M323.057 242.013C323.724 240.434 323.057 238.538 321.618 237.801C321.232 237.626 320.846 237.52 320.425 237.52C320.074 237.52 319.723 237.591 319.372 237.731C318.635 238.012 318.073 238.608 317.758 239.381L316.178 243.277C315.862 244.049 315.827 244.926 316.108 245.698C316.389 246.506 316.915 247.102 317.652 247.453C318.038 247.629 318.424 247.734 318.846 247.734C319.934 247.734 321.022 247.032 321.513 245.874L323.092 241.978M108.041 404.626C108.498 404.24 108.603 403.538 108.287 403.047L103.022 395.185C102.812 394.869 102.496 394.693 102.18 394.693C101.969 394.693 101.724 394.764 101.548 394.939C101.092 395.29 100.986 396.027 101.302 396.519L106.567 404.381C106.778 404.697 107.094 404.837 107.41 404.837L108.041 404.626ZM248.507 396.519C248.858 396.027 248.753 395.29 248.262 394.939C248.086 394.799 247.84 394.693 247.63 394.693C247.314 394.693 246.998 394.869 246.822 395.185L241.558 403.047C241.207 403.538 241.312 404.24 241.803 404.626L242.435 404.837C242.751 404.837 243.067 404.697 243.278 404.381L248.507 396.519ZM240.645 408.347C240.996 407.855 240.891 407.118 240.399 406.767C240.224 406.627 239.978 406.522 239.768 406.522C239.452 406.522 239.136 406.662 238.925 406.978L237.627 408.943C237.276 409.47 237.381 410.172 237.872 410.558L238.504 410.769C238.82 410.769 239.136 410.593 239.346 410.277L240.645 408.312M112.008 410.523C112.464 410.137 112.569 409.435 112.253 408.908L110.955 406.978C110.744 406.662 110.428 406.487 110.112 406.487C109.902 406.487 109.656 406.557 109.48 406.732C109.024 407.083 108.919 407.82 109.235 408.312L110.533 410.277C110.744 410.593 111.06 410.769 111.376 410.769L112.008 410.558" fill="white"/>
</svg>