<svg width="666" height="150" viewBox="0 0 666 150" fill="none" xmlns="http://www.w3.org/2000/svg">
<path fill-rule="evenodd" clip-rule="evenodd" d="M646.431 110.989C635.969 110.989 627.489 119.546 627.489 130.103C627.489 140.658 635.969 149.217 646.431 149.217C656.892 149.217 665.374 140.658 665.374 130.103C665.374 119.546 656.893 110.989 646.431 110.989ZM584.11 96.2113C584.11 81.7584 571.867 70.0447 556.765 70.0447C541.663 70.0447 529.419 81.7589 529.419 96.2113C529.419 110.664 541.661 122.381 556.765 122.381C571.869 122.381 584.11 110.664 584.11 96.2113ZM584.211 45.3529H614.39V147.066H584.211V140.566C575.685 146.433 565.394 149.882 554.293 149.882C524.919 149.882 501.105 125.853 501.105 96.2108C501.105 66.5685 524.919 42.5413 554.293 42.5413C565.394 42.5413 575.685 45.9902 584.211 51.8593V45.3529ZM342.695 58.6018V45.3543H311.796V147.066H342.764V99.5782C342.764 83.5564 359.973 74.945 371.914 74.945C372.037 74.945 372.151 74.9569 372.273 74.9584V45.3623C360.017 45.3623 348.745 50.6555 342.695 58.6018ZM265.727 96.2117C265.727 81.7587 253.483 70.045 238.38 70.045C223.278 70.045 211.034 81.7592 211.034 96.2117C211.034 110.665 223.277 122.382 238.38 122.382C253.483 122.382 265.727 110.665 265.727 96.2117ZM265.826 45.3532H296.007V147.067H265.826V140.566C257.3 146.433 247.009 149.882 235.91 149.882C206.534 149.882 182.72 125.853 182.72 96.2111C182.72 66.5689 206.534 42.5416 235.91 42.5416C247.009 42.5416 257.3 45.9906 265.826 51.8597V45.3532ZM447.479 42.6175C435.423 42.6175 424.013 46.3943 416.385 56.8141V45.3593H386.335V147.067H416.754V93.6163C416.754 78.1491 427.033 70.5753 439.41 70.5753C452.673 70.5753 460.299 78.5706 460.299 93.4066V147.067H490.442V82.3863C490.442 58.7162 471.792 42.6175 447.479 42.6175ZM138.76 147.067H170.348V0.0270117H138.76V147.067ZM0 147.108H33.4484V0.000355863H0V147.108ZM116.991 0.000355863C116.991 31.8477 104.692 61.474 82.7751 83.4951L129.01 147.113H87.6971L37.45 77.9743L50.4179 68.1743C71.9238 51.9185 84.259 27.0711 84.259 0L116.991 0.000355863Z" fill="#0A0B09"/>
</svg>
