<svg width="104" height="104" viewBox="0 0 104 104" fill="none" xmlns="http://www.w3.org/2000/svg">
<path d="M33.3899 49.5995C33.0114 49.2359 32.5049 49.0349 31.9806 49.0399C31.4552 49.045 30.9536 49.2572 30.5826 49.6284C30.2126 50.0005 30.002 50.5028 29.9985 51.0282C29.9951 51.5525 30.1977 52.0583 30.5624 52.4358L44.5996 66.4297C44.9761 66.8039 45.4858 67.0145 46.0165 67.0137C46.5472 67.0129 47.0563 66.8007 47.4316 66.4253L73.4202 40.3561C73.7838 39.9776 73.9848 39.4711 73.9798 38.9468C73.9747 38.4214 73.7625 37.9198 73.3913 37.5488C73.0191 37.1788 72.5169 36.9682 71.9915 36.9647C71.4672 36.9612 70.9614 37.1639 70.5839 37.5286L46.009 62.1806L33.3899 49.5995Z" fill="#32BF6E"/>
<path d="M52.0723 101.92C79.6441 101.876 101.962 79.4894 101.92 51.9176C101.879 24.3458 79.4946 2.03044 51.9228 2.07448C24.351 2.11853 2.03346 24.5053 2.07473 52.077C2.11601 79.6488 24.5005 101.964 52.0723 101.92Z" stroke="#32BF6E" stroke-width="3" stroke-linecap="round" stroke-linejoin="round"/>
</svg>
