<svg width="32" height="32" viewBox="0 0 32 32" fill="none" xmlns="http://www.w3.org/2000/svg">
<path d="M19.1322 1.35305C18.2593 0.480161 17.1005 0 15.8668 0C14.6331 0 13.473 0.480161 12.6015 1.35305L1.35097 12.6007C-0.450325 14.402 -0.450325 17.3316 1.35097 19.1329L12.6001 30.3806C13.169 30.9495 13.8782 31.3617 14.6484 31.5713C15.0439 31.6795 15.4533 31.7336 15.8654 31.7336C17.1005 31.7336 18.2607 31.2535 19.1308 30.3806L30.3785 19.1329C31.2514 18.2614 31.7316 17.1012 31.7316 15.8675C31.7316 14.6338 31.2514 13.4736 30.3785 12.6021L19.1322 1.35305ZM13.262 29.72L2.01293 18.4709C0.57661 17.0346 0.57661 14.6976 2.01293 13.2613L3.09676 12.1775L13.5659 29.9906C13.4591 29.906 13.3578 29.8144 13.2606 29.7186L13.262 29.72ZM3.77954 11.4947L13.2606 2.01362C13.9559 1.31836 14.8815 0.935342 15.8654 0.935342C16.8494 0.935342 17.775 1.31836 18.4703 2.01362L24.1614 7.70478L14.1321 10.3498C12.9387 10.6648 11.9395 11.4253 11.3192 12.4911C10.6975 13.5569 10.5295 14.8017 10.8446 15.9938L14.443 29.6354L3.77954 11.4947ZM29.7193 18.4709L18.4703 29.7186C17.886 30.3029 17.1408 30.6664 16.3331 30.7678V20.0169C16.3331 17.9866 17.9859 16.3338 20.0176 16.3338H30.7685C30.6672 17.1401 30.3036 17.8867 29.718 18.4709H29.7193ZM20.0176 15.3984C17.4711 15.3984 15.3978 17.4704 15.3978 20.0169V29.5937L11.748 15.7551C11.4968 14.8045 11.6314 13.8123 12.1268 12.9616C12.6223 12.1109 13.4188 11.5044 14.3708 11.2546L24.9163 8.47359C24.9163 8.47359 24.9233 8.47081 24.9274 8.47081L29.7193 13.2627C30.3036 13.8469 30.6672 14.5922 30.7685 15.3998H20.0176V15.3984Z" fill="black"/>
</svg>
