<svg width="83" height="32" viewBox="0 0 83 32" fill="none" xmlns="http://www.w3.org/2000/svg">
<path d="M46.0246 7.9209H42.3096V23.8106H46.0246V7.9209Z" fill="black"/>
<path d="M58.36 15.963C58.138 16.5708 57.5551 17.0038 56.8696 17.0038C56.184 17.0038 55.6123 16.5777 55.3861 15.9782L52.0111 7.92096H47.9533L54.7685 23.8148H58.9706L65.772 7.95565L65.7873 7.92096H61.7295L58.36 15.963Z" fill="black"/>
<path d="M79.1116 7.92096V15.0623H79.1089C79.1089 16.611 78.7147 17.7906 77.9334 18.6038C77.148 19.4198 76.0919 19.8251 74.7624 19.8251C73.5717 19.8251 72.6544 19.474 72.0105 18.769C71.3666 18.064 71.0447 17.0079 71.0447 15.598V7.92096H67.3241V16.0726C67.3241 18.4137 67.9347 20.1692 69.1559 21.3391C70.3758 22.5117 72.0466 23.096 74.1699 23.096C75.1635 23.096 76.085 22.9225 76.9384 22.5756C77.1424 22.4937 77.3381 22.4007 77.5282 22.2994L77.5254 22.3036C77.6573 22.2425 77.803 22.2078 77.9584 22.2078C78.5218 22.2078 78.9784 22.6644 78.9784 23.2278C78.9784 23.3333 78.9618 23.4346 78.9326 23.5303C78.7508 24.32 78.4289 24.9556 77.964 25.433C77.2021 26.2184 76.0031 26.6084 74.378 26.6084C73.3053 26.6084 72.2839 26.4405 71.3125 26.1032C70.3411 25.766 69.5167 25.3108 68.8437 24.7349L67.177 27.5312C68.0305 28.2653 69.1157 28.826 70.4354 29.2132C71.7552 29.6004 73.1402 29.7933 74.5876 29.7933C80.0831 29.7933 82.8322 26.9969 82.8322 21.4015V7.92096H79.1144H79.1116Z" fill="black"/>
<path d="M19.1322 1.35305C18.2593 0.480161 17.1005 0 15.8668 0C14.6331 0 13.473 0.480161 12.6015 1.35305L1.35097 12.6007C-0.450325 14.402 -0.450325 17.3316 1.35097 19.1329L12.6001 30.3806C13.169 30.9495 13.8782 31.3617 14.6484 31.5713C15.0439 31.6795 15.4533 31.7336 15.8654 31.7336C17.1005 31.7336 18.2607 31.2535 19.1308 30.3806L30.3785 19.1329C31.2514 18.2614 31.7316 17.1012 31.7316 15.8675C31.7316 14.6338 31.2514 13.4736 30.3785 12.6021L19.1322 1.35305ZM13.262 29.72L2.01293 18.4709C0.57661 17.0346 0.57661 14.6976 2.01293 13.2613L3.09676 12.1775L13.5659 29.9906C13.4591 29.906 13.3578 29.8144 13.2606 29.7186L13.262 29.72ZM3.77954 11.4947L13.2606 2.01362C13.9559 1.31836 14.8815 0.935342 15.8654 0.935342C16.8494 0.935342 17.775 1.31836 18.4703 2.01362L24.1614 7.70478L14.1321 10.3498C12.9387 10.6648 11.9395 11.4253 11.3192 12.4911C10.6975 13.5569 10.5295 14.8017 10.8446 15.9938L14.443 29.6354L3.77954 11.4947ZM29.7193 18.4709L18.4703 29.7186C17.886 30.3029 17.1408 30.6664 16.3331 30.7678V20.0169C16.3331 17.9866 17.9859 16.3338 20.0176 16.3338H30.7685C30.6672 17.1401 30.3036 17.8867 29.718 18.4709H29.7193ZM20.0176 15.3984C17.4711 15.3984 15.3978 17.4704 15.3978 20.0169V29.5937L11.748 15.7551C11.4968 14.8045 11.6314 13.8123 12.1268 12.9616C12.6223 12.1109 13.4188 11.5044 14.3708 11.2546L24.9163 8.47359C24.9163 8.47359 24.9233 8.47081 24.9274 8.47081L29.7193 13.2627C30.3036 13.8469 30.6672 14.5922 30.7685 15.3998H20.0176V15.3984Z" fill="black"/>
</svg>
