<svg width="592" height="653" viewBox="0 0 592 653" fill="none" xmlns="http://www.w3.org/2000/svg">
<path d="M592 0H0V653H592V0Z" fill="#F8A2AC"/>
<path d="M14.388 44.484C21.824 44.484 26.4 40.04 26.4 34.452C26.4 27.94 22.484 25.872 14.872 24.904C10.032 24.2 9.02 23.144 9.02 20.9C9.02 18.788 10.604 17.336 13.728 17.336C16.852 17.336 18.524 18.656 18.964 21.516H25.52C24.948 15.268 20.812 12.1 13.728 12.1C6.776 12.1 2.288 16.104 2.288 21.472C2.288 27.544 5.588 29.964 13.64 31.02C18.26 31.724 19.58 32.604 19.58 35.112C19.58 37.576 17.512 39.292 14.388 39.292C9.724 39.292 8.536 36.96 8.228 34.144H1.408C1.804 40.436 5.764 44.484 14.388 44.484ZM44.6036 44.484C54.4156 44.484 60.8396 37.664 60.8396 28.292V27.94C60.8396 18.48 54.1076 12.1 44.6476 12.1C35.3196 12.1 28.4556 18.744 28.4556 28.116V28.468C28.4556 37.664 34.7476 44.484 44.6036 44.484ZM44.7356 38.808C39.5876 38.808 35.8916 34.848 35.8916 28.424V28.072C35.8916 21.736 39.1916 17.732 44.6476 17.732C50.1476 17.732 53.4036 21.912 53.4036 28.028V28.38C53.4036 34.716 50.0596 38.808 44.7356 38.808ZM64.6855 44H71.0655V21.912L79.8215 44H82.1535L90.8655 21.912V44H97.9495V12.54H88.7095L81.4495 32.12L74.1015 12.54H64.6855V44ZM103.455 44H124.663V38.456H110.539V30.624H121.275V25.432H110.539V18.084H123.959V12.54H103.455V44ZM134.463 44H141.635V18.084H150.127V12.54H125.971V18.084H134.463V44ZM153.237 44H160.365V31.02H172.993V44H180.121V12.54H172.993V25.388H160.365V12.54H153.237V44ZM185.695 44H192.867V12.54H185.695V44ZM198.507 44H204.843V21.604L217.955 44H225.083V12.54H218.747V33.264L206.779 12.54H198.507V44ZM244.919 44.484C254.335 44.484 259.703 38.896 259.703 30.492V27.148H245.579V32.34H252.663C252.531 35.948 250.375 38.984 245.095 38.984C238.935 38.984 236.339 34.628 236.339 28.556V28.204C236.339 21.78 239.551 17.688 245.007 17.688C248.791 17.688 251.211 19.36 251.827 23.056H258.911C258.163 15.268 251.915 12.056 244.919 12.056C235.635 12.056 228.903 18.656 228.903 28.116V28.468C228.903 37.796 234.623 44.484 244.919 44.484ZM277.169 44H284.033L289.797 22.264L295.473 44H302.733L310.389 12.54H303.789L298.685 34.408L293.097 12.54H287.025L281.657 34.276L276.729 12.54H269.513L277.169 44ZM313.368 44H334.576V38.456H320.452V30.624H331.188V25.432H320.452V18.084H333.872V12.54H313.368V44ZM338.216 44H344.552V21.604L357.664 44H364.792V12.54H358.456V33.264L346.488 12.54H338.216V44ZM376.4 44H383.572V18.084H392.064V12.54H367.908V18.084H376.4V44ZM408.8 44H415.664L421.428 22.264L427.104 44H434.364L442.02 12.54H435.42L430.316 34.408L424.728 12.54H418.656L413.288 34.276L408.36 12.54H401.144L408.8 44ZM444.998 44H452.082V31.856H455.162L462.686 44H470.254L461.938 30.624C465.634 29.524 468.406 27.016 468.406 22.264V22.088C468.406 15.576 463.698 12.54 456.262 12.54H444.998V44ZM452.082 27.016V17.996H456.086C459.518 17.996 461.454 19.096 461.454 22.308V22.484C461.454 25.52 459.65 27.016 456.086 27.016H452.082ZM487.331 44.484C497.143 44.484 503.567 37.664 503.567 28.292V27.94C503.567 18.48 496.835 12.1 487.375 12.1C478.047 12.1 471.183 18.744 471.183 28.116V28.468C471.183 37.664 477.475 44.484 487.331 44.484ZM487.463 38.808C482.315 38.808 478.619 34.848 478.619 28.424V28.072C478.619 21.736 481.919 17.732 487.375 17.732C492.875 17.732 496.131 21.912 496.131 28.028V28.38C496.131 34.716 492.787 38.808 487.463 38.808ZM507.413 44H513.749V21.604L526.861 44H533.989V12.54H527.653V33.264L515.685 12.54H507.413V44ZM553.825 44.484C563.241 44.484 568.609 38.896 568.609 30.492V27.148H554.485V32.34H561.569C561.437 35.948 559.281 38.984 554.001 38.984C547.841 38.984 545.245 34.628 545.245 28.556V28.204C545.245 21.78 548.457 17.688 553.913 17.688C557.697 17.688 560.117 19.36 560.733 23.056H567.817C567.069 15.268 560.821 12.056 553.825 12.056C544.541 12.056 537.809 18.656 537.809 28.116V28.468C537.809 37.796 543.529 44.484 553.825 44.484ZM573.375 34.188H578.567L579.535 12.54H572.407L573.375 34.188ZM575.927 44.396C578.127 44.396 579.931 42.724 579.931 40.612C579.931 38.456 578.127 36.784 575.927 36.784C573.727 36.784 571.923 38.456 571.923 40.612C571.923 42.724 573.727 44.396 575.927 44.396ZM14.388 104.484C21.824 104.484 26.4 100.04 26.4 94.452C26.4 87.94 22.484 85.872 14.872 84.904C10.032 84.2 9.02 83.144 9.02 80.9C9.02 78.788 10.604 77.336 13.728 77.336C16.852 77.336 18.524 78.656 18.964 81.516H25.52C24.948 75.268 20.812 72.1 13.728 72.1C6.776 72.1 2.288 76.104 2.288 81.472C2.288 87.544 5.588 89.964 13.64 91.02C18.26 91.724 19.58 92.604 19.58 95.112C19.58 97.576 17.512 99.292 14.388 99.292C9.724 99.292 8.536 96.96 8.228 94.144H1.408C1.804 100.436 5.764 104.484 14.388 104.484ZM44.6036 104.484C54.4156 104.484 60.8396 97.664 60.8396 88.292V87.94C60.8396 78.48 54.1076 72.1 44.6476 72.1C35.3196 72.1 28.4556 78.744 28.4556 88.116V88.468C28.4556 97.664 34.7476 104.484 44.6036 104.484ZM44.7356 98.808C39.5876 98.808 35.8916 94.848 35.8916 88.424V88.072C35.8916 81.736 39.1916 77.732 44.6476 77.732C50.1476 77.732 53.4036 81.912 53.4036 88.028V88.38C53.4036 94.716 50.0596 98.808 44.7356 98.808ZM64.6855 104H71.0655V81.912L79.8215 104H82.1535L90.8655 81.912V104H97.9495V72.54H88.7095L81.4495 92.12L74.1015 72.54H64.6855V104ZM103.455 104H124.663V98.456H110.539V90.624H121.275V85.432H110.539V78.084H123.959V72.54H103.455V104ZM134.463 104H141.635V78.084H150.127V72.54H125.971V78.084H134.463V104ZM153.237 104H160.365V91.02H172.993V104H180.121V72.54H172.993V85.388H160.365V72.54H153.237V104ZM185.695 104H192.867V72.54H185.695V104ZM198.507 104H204.843V81.604L217.955 104H225.083V72.54H218.747V93.264L206.779 72.54H198.507V104ZM244.919 104.484C254.335 104.484 259.703 98.896 259.703 90.492V87.148H245.579V92.34H252.663C252.531 95.948 250.375 98.984 245.095 98.984C238.935 98.984 236.339 94.628 236.339 88.556V88.204C236.339 81.78 239.551 77.688 245.007 77.688C248.791 77.688 251.211 79.36 251.827 83.056H258.911C258.163 75.268 251.915 72.056 244.919 72.056C235.635 72.056 228.903 78.656 228.903 88.116V88.468C228.903 97.796 234.623 104.484 244.919 104.484ZM277.169 104H284.033L289.797 82.264L295.473 104H302.733L310.389 72.54H303.789L298.685 94.408L293.097 72.54H287.025L281.657 94.276L276.729 72.54H269.513L277.169 104ZM313.368 104H334.576V98.456H320.452V90.624H331.188V85.432H320.452V78.084H333.872V72.54H313.368V104ZM338.216 104H344.552V81.604L357.664 104H364.792V72.54H358.456V93.264L346.488 72.54H338.216V104ZM376.4 104H383.572V78.084H392.064V72.54H367.908V78.084H376.4V104ZM408.8 104H415.664L421.428 82.264L427.104 104H434.364L442.02 72.54H435.42L430.316 94.408L424.728 72.54H418.656L413.288 94.276L408.36 72.54H401.144L408.8 104ZM444.998 104H452.082V91.856H455.162L462.686 104H470.254L461.938 90.624C465.634 89.524 468.406 87.016 468.406 82.264V82.088C468.406 75.576 463.698 72.54 456.262 72.54H444.998V104ZM452.082 87.016V77.996H456.086C459.518 77.996 461.454 79.096 461.454 82.308V82.484C461.454 85.52 459.65 87.016 456.086 87.016H452.082ZM487.331 104.484C497.143 104.484 503.567 97.664 503.567 88.292V87.94C503.567 78.48 496.835 72.1 487.375 72.1C478.047 72.1 471.183 78.744 471.183 88.116V88.468C471.183 97.664 477.475 104.484 487.331 104.484ZM487.463 98.808C482.315 98.808 478.619 94.848 478.619 88.424V88.072C478.619 81.736 481.919 77.732 487.375 77.732C492.875 77.732 496.131 81.912 496.131 88.028V88.38C496.131 94.716 492.787 98.808 487.463 98.808ZM507.413 104H513.749V81.604L526.861 104H533.989V72.54H527.653V93.264L515.685 72.54H507.413V104ZM553.825 104.484C563.241 104.484 568.609 98.896 568.609 90.492V87.148H554.485V92.34H561.569C561.437 95.948 559.281 98.984 554.001 98.984C547.841 98.984 545.245 94.628 545.245 88.556V88.204C545.245 81.78 548.457 77.688 553.913 77.688C557.697 77.688 560.117 79.36 560.733 83.056H567.817C567.069 75.268 560.821 72.056 553.825 72.056C544.541 72.056 537.809 78.656 537.809 88.116V88.468C537.809 97.796 543.529 104.484 553.825 104.484ZM573.375 94.188H578.567L579.535 72.54H572.407L573.375 94.188ZM575.927 104.396C578.127 104.396 579.931 102.724 579.931 100.612C579.931 98.456 578.127 96.784 575.927 96.784C573.727 96.784 571.923 98.456 571.923 100.612C571.923 102.724 573.727 104.396 575.927 104.396ZM14.388 164.484C21.824 164.484 26.4 160.04 26.4 154.452C26.4 147.94 22.484 145.872 14.872 144.904C10.032 144.2 9.02 143.144 9.02 140.9C9.02 138.788 10.604 137.336 13.728 137.336C16.852 137.336 18.524 138.656 18.964 141.516H25.52C24.948 135.268 20.812 132.1 13.728 132.1C6.776 132.1 2.288 136.104 2.288 141.472C2.288 147.544 5.588 149.964 13.64 151.02C18.26 151.724 19.58 152.604 19.58 155.112C19.58 157.576 17.512 159.292 14.388 159.292C9.724 159.292 8.536 156.96 8.228 154.144H1.408C1.804 160.436 5.764 164.484 14.388 164.484ZM44.6036 164.484C54.4156 164.484 60.8396 157.664 60.8396 148.292V147.94C60.8396 138.48 54.1076 132.1 44.6476 132.1C35.3196 132.1 28.4556 138.744 28.4556 148.116V148.468C28.4556 157.664 34.7476 164.484 44.6036 164.484ZM44.7356 158.808C39.5876 158.808 35.8916 154.848 35.8916 148.424V148.072C35.8916 141.736 39.1916 137.732 44.6476 137.732C50.1476 137.732 53.4036 141.912 53.4036 148.028V148.38C53.4036 154.716 50.0596 158.808 44.7356 158.808ZM64.6855 164H71.0655V141.912L79.8215 164H82.1535L90.8655 141.912V164H97.9495V132.54H88.7095L81.4495 152.12L74.1015 132.54H64.6855V164ZM103.455 164H124.663V158.456H110.539V150.624H121.275V145.432H110.539V138.084H123.959V132.54H103.455V164ZM134.463 164H141.635V138.084H150.127V132.54H125.971V138.084H134.463V164ZM153.237 164H160.365V151.02H172.993V164H180.121V132.54H172.993V145.388H160.365V132.54H153.237V164ZM185.695 164H192.867V132.54H185.695V164ZM198.507 164H204.843V141.604L217.955 164H225.083V132.54H218.747V153.264L206.779 132.54H198.507V164ZM244.919 164.484C254.335 164.484 259.703 158.896 259.703 150.492V147.148H245.579V152.34H252.663C252.531 155.948 250.375 158.984 245.095 158.984C238.935 158.984 236.339 154.628 236.339 148.556V148.204C236.339 141.78 239.551 137.688 245.007 137.688C248.791 137.688 251.211 139.36 251.827 143.056H258.911C258.163 135.268 251.915 132.056 244.919 132.056C235.635 132.056 228.903 138.656 228.903 148.116V148.468C228.903 157.796 234.623 164.484 244.919 164.484ZM277.169 164H284.033L289.797 142.264L295.473 164H302.733L310.389 132.54H303.789L298.685 154.408L293.097 132.54H287.025L281.657 154.276L276.729 132.54H269.513L277.169 164ZM313.368 164H334.576V158.456H320.452V150.624H331.188V145.432H320.452V138.084H333.872V132.54H313.368V164ZM338.216 164H344.552V141.604L357.664 164H364.792V132.54H358.456V153.264L346.488 132.54H338.216V164ZM376.4 164H383.572V138.084H392.064V132.54H367.908V138.084H376.4V164ZM408.8 164H415.664L421.428 142.264L427.104 164H434.364L442.02 132.54H435.42L430.316 154.408L424.728 132.54H418.656L413.288 154.276L408.36 132.54H401.144L408.8 164ZM444.998 164H452.082V151.856H455.162L462.686 164H470.254L461.938 150.624C465.634 149.524 468.406 147.016 468.406 142.264V142.088C468.406 135.576 463.698 132.54 456.262 132.54H444.998V164ZM452.082 147.016V137.996H456.086C459.518 137.996 461.454 139.096 461.454 142.308V142.484C461.454 145.52 459.65 147.016 456.086 147.016H452.082ZM487.331 164.484C497.143 164.484 503.567 157.664 503.567 148.292V147.94C503.567 138.48 496.835 132.1 487.375 132.1C478.047 132.1 471.183 138.744 471.183 148.116V148.468C471.183 157.664 477.475 164.484 487.331 164.484ZM487.463 158.808C482.315 158.808 478.619 154.848 478.619 148.424V148.072C478.619 141.736 481.919 137.732 487.375 137.732C492.875 137.732 496.131 141.912 496.131 148.028V148.38C496.131 154.716 492.787 158.808 487.463 158.808ZM507.413 164H513.749V141.604L526.861 164H533.989V132.54H527.653V153.264L515.685 132.54H507.413V164ZM553.825 164.484C563.241 164.484 568.609 158.896 568.609 150.492V147.148H554.485V152.34H561.569C561.437 155.948 559.281 158.984 554.001 158.984C547.841 158.984 545.245 154.628 545.245 148.556V148.204C545.245 141.78 548.457 137.688 553.913 137.688C557.697 137.688 560.117 139.36 560.733 143.056H567.817C567.069 135.268 560.821 132.056 553.825 132.056C544.541 132.056 537.809 138.656 537.809 148.116V148.468C537.809 157.796 543.529 164.484 553.825 164.484ZM573.375 154.188H578.567L579.535 132.54H572.407L573.375 154.188ZM575.927 164.396C578.127 164.396 579.931 162.724 579.931 160.612C579.931 158.456 578.127 156.784 575.927 156.784C573.727 156.784 571.923 158.456 571.923 160.612C571.923 162.724 573.727 164.396 575.927 164.396ZM14.388 224.484C21.824 224.484 26.4 220.04 26.4 214.452C26.4 207.94 22.484 205.872 14.872 204.904C10.032 204.2 9.02 203.144 9.02 200.9C9.02 198.788 10.604 197.336 13.728 197.336C16.852 197.336 18.524 198.656 18.964 201.516H25.52C24.948 195.268 20.812 192.1 13.728 192.1C6.776 192.1 2.288 196.104 2.288 201.472C2.288 207.544 5.588 209.964 13.64 211.02C18.26 211.724 19.58 212.604 19.58 215.112C19.58 217.576 17.512 219.292 14.388 219.292C9.724 219.292 8.536 216.96 8.228 214.144H1.408C1.804 220.436 5.764 224.484 14.388 224.484ZM44.6036 224.484C54.4156 224.484 60.8396 217.664 60.8396 208.292V207.94C60.8396 198.48 54.1076 192.1 44.6476 192.1C35.3196 192.1 28.4556 198.744 28.4556 208.116V208.468C28.4556 217.664 34.7476 224.484 44.6036 224.484ZM44.7356 218.808C39.5876 218.808 35.8916 214.848 35.8916 208.424V208.072C35.8916 201.736 39.1916 197.732 44.6476 197.732C50.1476 197.732 53.4036 201.912 53.4036 208.028V208.38C53.4036 214.716 50.0596 218.808 44.7356 218.808ZM64.6855 224H71.0655V201.912L79.8215 224H82.1535L90.8655 201.912V224H97.9495V192.54H88.7095L81.4495 212.12L74.1015 192.54H64.6855V224ZM103.455 224H124.663V218.456H110.539V210.624H121.275V205.432H110.539V198.084H123.959V192.54H103.455V224ZM134.463 224H141.635V198.084H150.127V192.54H125.971V198.084H134.463V224ZM153.237 224H160.365V211.02H172.993V224H180.121V192.54H172.993V205.388H160.365V192.54H153.237V224ZM185.695 224H192.867V192.54H185.695V224ZM198.507 224H204.843V201.604L217.955 224H225.083V192.54H218.747V213.264L206.779 192.54H198.507V224ZM244.919 224.484C254.335 224.484 259.703 218.896 259.703 210.492V207.148H245.579V212.34H252.663C252.531 215.948 250.375 218.984 245.095 218.984C238.935 218.984 236.339 214.628 236.339 208.556V208.204C236.339 201.78 239.551 197.688 245.007 197.688C248.791 197.688 251.211 199.36 251.827 203.056H258.911C258.163 195.268 251.915 192.056 244.919 192.056C235.635 192.056 228.903 198.656 228.903 208.116V208.468C228.903 217.796 234.623 224.484 244.919 224.484ZM277.169 224H284.033L289.797 202.264L295.473 224H302.733L310.389 192.54H303.789L298.685 214.408L293.097 192.54H287.025L281.657 214.276L276.729 192.54H269.513L277.169 224ZM313.368 224H334.576V218.456H320.452V210.624H331.188V205.432H320.452V198.084H333.872V192.54H313.368V224ZM338.216 224H344.552V201.604L357.664 224H364.792V192.54H358.456V213.264L346.488 192.54H338.216V224ZM376.4 224H383.572V198.084H392.064V192.54H367.908V198.084H376.4V224ZM408.8 224H415.664L421.428 202.264L427.104 224H434.364L442.02 192.54H435.42L430.316 214.408L424.728 192.54H418.656L413.288 214.276L408.36 192.54H401.144L408.8 224ZM444.998 224H452.082V211.856H455.162L462.686 224H470.254L461.938 210.624C465.634 209.524 468.406 207.016 468.406 202.264V202.088C468.406 195.576 463.698 192.54 456.262 192.54H444.998V224ZM452.082 207.016V197.996H456.086C459.518 197.996 461.454 199.096 461.454 202.308V202.484C461.454 205.52 459.65 207.016 456.086 207.016H452.082ZM487.331 224.484C497.143 224.484 503.567 217.664 503.567 208.292V207.94C503.567 198.48 496.835 192.1 487.375 192.1C478.047 192.1 471.183 198.744 471.183 208.116V208.468C471.183 217.664 477.475 224.484 487.331 224.484ZM487.463 218.808C482.315 218.808 478.619 214.848 478.619 208.424V208.072C478.619 201.736 481.919 197.732 487.375 197.732C492.875 197.732 496.131 201.912 496.131 208.028V208.38C496.131 214.716 492.787 218.808 487.463 218.808ZM507.413 224H513.749V201.604L526.861 224H533.989V192.54H527.653V213.264L515.685 192.54H507.413V224ZM553.825 224.484C563.241 224.484 568.609 218.896 568.609 210.492V207.148H554.485V212.34H561.569C561.437 215.948 559.281 218.984 554.001 218.984C547.841 218.984 545.245 214.628 545.245 208.556V208.204C545.245 201.78 548.457 197.688 553.913 197.688C557.697 197.688 560.117 199.36 560.733 203.056H567.817C567.069 195.268 560.821 192.056 553.825 192.056C544.541 192.056 537.809 198.656 537.809 208.116V208.468C537.809 217.796 543.529 224.484 553.825 224.484ZM573.375 214.188H578.567L579.535 192.54H572.407L573.375 214.188ZM575.927 224.396C578.127 224.396 579.931 222.724 579.931 220.612C579.931 218.456 578.127 216.784 575.927 216.784C573.727 216.784 571.923 218.456 571.923 220.612C571.923 222.724 573.727 224.396 575.927 224.396ZM14.388 284.484C21.824 284.484 26.4 280.04 26.4 274.452C26.4 267.94 22.484 265.872 14.872 264.904C10.032 264.2 9.02 263.144 9.02 260.9C9.02 258.788 10.604 257.336 13.728 257.336C16.852 257.336 18.524 258.656 18.964 261.516H25.52C24.948 255.268 20.812 252.1 13.728 252.1C6.776 252.1 2.288 256.104 2.288 261.472C2.288 267.544 5.588 269.964 13.64 271.02C18.26 271.724 19.58 272.604 19.58 275.112C19.58 277.576 17.512 279.292 14.388 279.292C9.724 279.292 8.536 276.96 8.228 274.144H1.408C1.804 280.436 5.764 284.484 14.388 284.484ZM44.6036 284.484C54.4156 284.484 60.8396 277.664 60.8396 268.292V267.94C60.8396 258.48 54.1076 252.1 44.6476 252.1C35.3196 252.1 28.4556 258.744 28.4556 268.116V268.468C28.4556 277.664 34.7476 284.484 44.6036 284.484ZM44.7356 278.808C39.5876 278.808 35.8916 274.848 35.8916 268.424V268.072C35.8916 261.736 39.1916 257.732 44.6476 257.732C50.1476 257.732 53.4036 261.912 53.4036 268.028V268.38C53.4036 274.716 50.0596 278.808 44.7356 278.808ZM64.6855 284H71.0655V261.912L79.8215 284H82.1535L90.8655 261.912V284H97.9495V252.54H88.7095L81.4495 272.12L74.1015 252.54H64.6855V284ZM103.455 284H124.663V278.456H110.539V270.624H121.275V265.432H110.539V258.084H123.959V252.54H103.455V284ZM134.463 284H141.635V258.084H150.127V252.54H125.971V258.084H134.463V284ZM153.237 284H160.365V271.02H172.993V284H180.121V252.54H172.993V265.388H160.365V252.54H153.237V284ZM185.695 284H192.867V252.54H185.695V284ZM198.507 284H204.843V261.604L217.955 284H225.083V252.54H218.747V273.264L206.779 252.54H198.507V284ZM244.919 284.484C254.335 284.484 259.703 278.896 259.703 270.492V267.148H245.579V272.34H252.663C252.531 275.948 250.375 278.984 245.095 278.984C238.935 278.984 236.339 274.628 236.339 268.556V268.204C236.339 261.78 239.551 257.688 245.007 257.688C248.791 257.688 251.211 259.36 251.827 263.056H258.911C258.163 255.268 251.915 252.056 244.919 252.056C235.635 252.056 228.903 258.656 228.903 268.116V268.468C228.903 277.796 234.623 284.484 244.919 284.484ZM277.169 284H284.033L289.797 262.264L295.473 284H302.733L310.389 252.54H303.789L298.685 274.408L293.097 252.54H287.025L281.657 274.276L276.729 252.54H269.513L277.169 284ZM313.368 284H334.576V278.456H320.452V270.624H331.188V265.432H320.452V258.084H333.872V252.54H313.368V284ZM338.216 284H344.552V261.604L357.664 284H364.792V252.54H358.456V273.264L346.488 252.54H338.216V284ZM376.4 284H383.572V258.084H392.064V252.54H367.908V258.084H376.4V284ZM408.8 284H415.664L421.428 262.264L427.104 284H434.364L442.02 252.54H435.42L430.316 274.408L424.728 252.54H418.656L413.288 274.276L408.36 252.54H401.144L408.8 284ZM444.998 284H452.082V271.856H455.162L462.686 284H470.254L461.938 270.624C465.634 269.524 468.406 267.016 468.406 262.264V262.088C468.406 255.576 463.698 252.54 456.262 252.54H444.998V284ZM452.082 267.016V257.996H456.086C459.518 257.996 461.454 259.096 461.454 262.308V262.484C461.454 265.52 459.65 267.016 456.086 267.016H452.082ZM487.331 284.484C497.143 284.484 503.567 277.664 503.567 268.292V267.94C503.567 258.48 496.835 252.1 487.375 252.1C478.047 252.1 471.183 258.744 471.183 268.116V268.468C471.183 277.664 477.475 284.484 487.331 284.484ZM487.463 278.808C482.315 278.808 478.619 274.848 478.619 268.424V268.072C478.619 261.736 481.919 257.732 487.375 257.732C492.875 257.732 496.131 261.912 496.131 268.028V268.38C496.131 274.716 492.787 278.808 487.463 278.808ZM507.413 284H513.749V261.604L526.861 284H533.989V252.54H527.653V273.264L515.685 252.54H507.413V284ZM553.825 284.484C563.241 284.484 568.609 278.896 568.609 270.492V267.148H554.485V272.34H561.569C561.437 275.948 559.281 278.984 554.001 278.984C547.841 278.984 545.245 274.628 545.245 268.556V268.204C545.245 261.78 548.457 257.688 553.913 257.688C557.697 257.688 560.117 259.36 560.733 263.056H567.817C567.069 255.268 560.821 252.056 553.825 252.056C544.541 252.056 537.809 258.656 537.809 268.116V268.468C537.809 277.796 543.529 284.484 553.825 284.484ZM573.375 274.188H578.567L579.535 252.54H572.407L573.375 274.188ZM575.927 284.396C578.127 284.396 579.931 282.724 579.931 280.612C579.931 278.456 578.127 276.784 575.927 276.784C573.727 276.784 571.923 278.456 571.923 280.612C571.923 282.724 573.727 284.396 575.927 284.396ZM14.388 344.484C21.824 344.484 26.4 340.04 26.4 334.452C26.4 327.94 22.484 325.872 14.872 324.904C10.032 324.2 9.02 323.144 9.02 320.9C9.02 318.788 10.604 317.336 13.728 317.336C16.852 317.336 18.524 318.656 18.964 321.516H25.52C24.948 315.268 20.812 312.1 13.728 312.1C6.776 312.1 2.288 316.104 2.288 321.472C2.288 327.544 5.588 329.964 13.64 331.02C18.26 331.724 19.58 332.604 19.58 335.112C19.58 337.576 17.512 339.292 14.388 339.292C9.724 339.292 8.536 336.96 8.228 334.144H1.408C1.804 340.436 5.764 344.484 14.388 344.484ZM44.6036 344.484C54.4156 344.484 60.8396 337.664 60.8396 328.292V327.94C60.8396 318.48 54.1076 312.1 44.6476 312.1C35.3196 312.1 28.4556 318.744 28.4556 328.116V328.468C28.4556 337.664 34.7476 344.484 44.6036 344.484ZM44.7356 338.808C39.5876 338.808 35.8916 334.848 35.8916 328.424V328.072C35.8916 321.736 39.1916 317.732 44.6476 317.732C50.1476 317.732 53.4036 321.912 53.4036 328.028V328.38C53.4036 334.716 50.0596 338.808 44.7356 338.808ZM64.6855 344H71.0655V321.912L79.8215 344H82.1535L90.8655 321.912V344H97.9495V312.54H88.7095L81.4495 332.12L74.1015 312.54H64.6855V344ZM103.455 344H124.663V338.456H110.539V330.624H121.275V325.432H110.539V318.084H123.959V312.54H103.455V344ZM134.463 344H141.635V318.084H150.127V312.54H125.971V318.084H134.463V344ZM153.237 344H160.365V331.02H172.993V344H180.121V312.54H172.993V325.388H160.365V312.54H153.237V344ZM185.695 344H192.867V312.54H185.695V344ZM198.507 344H204.843V321.604L217.955 344H225.083V312.54H218.747V333.264L206.779 312.54H198.507V344ZM244.919 344.484C254.335 344.484 259.703 338.896 259.703 330.492V327.148H245.579V332.34H252.663C252.531 335.948 250.375 338.984 245.095 338.984C238.935 338.984 236.339 334.628 236.339 328.556V328.204C236.339 321.78 239.551 317.688 245.007 317.688C248.791 317.688 251.211 319.36 251.827 323.056H258.911C258.163 315.268 251.915 312.056 244.919 312.056C235.635 312.056 228.903 318.656 228.903 328.116V328.468C228.903 337.796 234.623 344.484 244.919 344.484ZM277.169 344H284.033L289.797 322.264L295.473 344H302.733L310.389 312.54H303.789L298.685 334.408L293.097 312.54H287.025L281.657 334.276L276.729 312.54H269.513L277.169 344ZM313.368 344H334.576V338.456H320.452V330.624H331.188V325.432H320.452V318.084H333.872V312.54H313.368V344ZM338.216 344H344.552V321.604L357.664 344H364.792V312.54H358.456V333.264L346.488 312.54H338.216V344ZM376.4 344H383.572V318.084H392.064V312.54H367.908V318.084H376.4V344ZM408.8 344H415.664L421.428 322.264L427.104 344H434.364L442.02 312.54H435.42L430.316 334.408L424.728 312.54H418.656L413.288 334.276L408.36 312.54H401.144L408.8 344ZM444.998 344H452.082V331.856H455.162L462.686 344H470.254L461.938 330.624C465.634 329.524 468.406 327.016 468.406 322.264V322.088C468.406 315.576 463.698 312.54 456.262 312.54H444.998V344ZM452.082 327.016V317.996H456.086C459.518 317.996 461.454 319.096 461.454 322.308V322.484C461.454 325.52 459.65 327.016 456.086 327.016H452.082ZM487.331 344.484C497.143 344.484 503.567 337.664 503.567 328.292V327.94C503.567 318.48 496.835 312.1 487.375 312.1C478.047 312.1 471.183 318.744 471.183 328.116V328.468C471.183 337.664 477.475 344.484 487.331 344.484ZM487.463 338.808C482.315 338.808 478.619 334.848 478.619 328.424V328.072C478.619 321.736 481.919 317.732 487.375 317.732C492.875 317.732 496.131 321.912 496.131 328.028V328.38C496.131 334.716 492.787 338.808 487.463 338.808ZM507.413 344H513.749V321.604L526.861 344H533.989V312.54H527.653V333.264L515.685 312.54H507.413V344ZM553.825 344.484C563.241 344.484 568.609 338.896 568.609 330.492V327.148H554.485V332.34H561.569C561.437 335.948 559.281 338.984 554.001 338.984C547.841 338.984 545.245 334.628 545.245 328.556V328.204C545.245 321.78 548.457 317.688 553.913 317.688C557.697 317.688 560.117 319.36 560.733 323.056H567.817C567.069 315.268 560.821 312.056 553.825 312.056C544.541 312.056 537.809 318.656 537.809 328.116V328.468C537.809 337.796 543.529 344.484 553.825 344.484ZM573.375 334.188H578.567L579.535 312.54H572.407L573.375 334.188ZM575.927 344.396C578.127 344.396 579.931 342.724 579.931 340.612C579.931 338.456 578.127 336.784 575.927 336.784C573.727 336.784 571.923 338.456 571.923 340.612C571.923 342.724 573.727 344.396 575.927 344.396ZM14.388 404.484C21.824 404.484 26.4 400.04 26.4 394.452C26.4 387.94 22.484 385.872 14.872 384.904C10.032 384.2 9.02 383.144 9.02 380.9C9.02 378.788 10.604 377.336 13.728 377.336C16.852 377.336 18.524 378.656 18.964 381.516H25.52C24.948 375.268 20.812 372.1 13.728 372.1C6.776 372.1 2.288 376.104 2.288 381.472C2.288 387.544 5.588 389.964 13.64 391.02C18.26 391.724 19.58 392.604 19.58 395.112C19.58 397.576 17.512 399.292 14.388 399.292C9.724 399.292 8.536 396.96 8.228 394.144H1.408C1.804 400.436 5.764 404.484 14.388 404.484ZM44.6036 404.484C54.4156 404.484 60.8396 397.664 60.8396 388.292V387.94C60.8396 378.48 54.1076 372.1 44.6476 372.1C35.3196 372.1 28.4556 378.744 28.4556 388.116V388.468C28.4556 397.664 34.7476 404.484 44.6036 404.484ZM44.7356 398.808C39.5876 398.808 35.8916 394.848 35.8916 388.424V388.072C35.8916 381.736 39.1916 377.732 44.6476 377.732C50.1476 377.732 53.4036 381.912 53.4036 388.028V388.38C53.4036 394.716 50.0596 398.808 44.7356 398.808ZM64.6855 404H71.0655V381.912L79.8215 404H82.1535L90.8655 381.912V404H97.9495V372.54H88.7095L81.4495 392.12L74.1015 372.54H64.6855V404ZM103.455 404H124.663V398.456H110.539V390.624H121.275V385.432H110.539V378.084H123.959V372.54H103.455V404ZM134.463 404H141.635V378.084H150.127V372.54H125.971V378.084H134.463V404ZM153.237 404H160.365V391.02H172.993V404H180.121V372.54H172.993V385.388H160.365V372.54H153.237V404ZM185.695 404H192.867V372.54H185.695V404ZM198.507 404H204.843V381.604L217.955 404H225.083V372.54H218.747V393.264L206.779 372.54H198.507V404ZM244.919 404.484C254.335 404.484 259.703 398.896 259.703 390.492V387.148H245.579V392.34H252.663C252.531 395.948 250.375 398.984 245.095 398.984C238.935 398.984 236.339 394.628 236.339 388.556V388.204C236.339 381.78 239.551 377.688 245.007 377.688C248.791 377.688 251.211 379.36 251.827 383.056H258.911C258.163 375.268 251.915 372.056 244.919 372.056C235.635 372.056 228.903 378.656 228.903 388.116V388.468C228.903 397.796 234.623 404.484 244.919 404.484ZM277.169 404H284.033L289.797 382.264L295.473 404H302.733L310.389 372.54H303.789L298.685 394.408L293.097 372.54H287.025L281.657 394.276L276.729 372.54H269.513L277.169 404ZM313.368 404H334.576V398.456H320.452V390.624H331.188V385.432H320.452V378.084H333.872V372.54H313.368V404ZM338.216 404H344.552V381.604L357.664 404H364.792V372.54H358.456V393.264L346.488 372.54H338.216V404ZM376.4 404H383.572V378.084H392.064V372.54H367.908V378.084H376.4V404ZM408.8 404H415.664L421.428 382.264L427.104 404H434.364L442.02 372.54H435.42L430.316 394.408L424.728 372.54H418.656L413.288 394.276L408.36 372.54H401.144L408.8 404ZM444.998 404H452.082V391.856H455.162L462.686 404H470.254L461.938 390.624C465.634 389.524 468.406 387.016 468.406 382.264V382.088C468.406 375.576 463.698 372.54 456.262 372.54H444.998V404ZM452.082 387.016V377.996H456.086C459.518 377.996 461.454 379.096 461.454 382.308V382.484C461.454 385.52 459.65 387.016 456.086 387.016H452.082ZM487.331 404.484C497.143 404.484 503.567 397.664 503.567 388.292V387.94C503.567 378.48 496.835 372.1 487.375 372.1C478.047 372.1 471.183 378.744 471.183 388.116V388.468C471.183 397.664 477.475 404.484 487.331 404.484ZM487.463 398.808C482.315 398.808 478.619 394.848 478.619 388.424V388.072C478.619 381.736 481.919 377.732 487.375 377.732C492.875 377.732 496.131 381.912 496.131 388.028V388.38C496.131 394.716 492.787 398.808 487.463 398.808ZM507.413 404H513.749V381.604L526.861 404H533.989V372.54H527.653V393.264L515.685 372.54H507.413V404ZM553.825 404.484C563.241 404.484 568.609 398.896 568.609 390.492V387.148H554.485V392.34H561.569C561.437 395.948 559.281 398.984 554.001 398.984C547.841 398.984 545.245 394.628 545.245 388.556V388.204C545.245 381.78 548.457 377.688 553.913 377.688C557.697 377.688 560.117 379.36 560.733 383.056H567.817C567.069 375.268 560.821 372.056 553.825 372.056C544.541 372.056 537.809 378.656 537.809 388.116V388.468C537.809 397.796 543.529 404.484 553.825 404.484ZM573.375 394.188H578.567L579.535 372.54H572.407L573.375 394.188ZM575.927 404.396C578.127 404.396 579.931 402.724 579.931 400.612C579.931 398.456 578.127 396.784 575.927 396.784C573.727 396.784 571.923 398.456 571.923 400.612C571.923 402.724 573.727 404.396 575.927 404.396ZM14.388 464.484C21.824 464.484 26.4 460.04 26.4 454.452C26.4 447.94 22.484 445.872 14.872 444.904C10.032 444.2 9.02 443.144 9.02 440.9C9.02 438.788 10.604 437.336 13.728 437.336C16.852 437.336 18.524 438.656 18.964 441.516H25.52C24.948 435.268 20.812 432.1 13.728 432.1C6.776 432.1 2.288 436.104 2.288 441.472C2.288 447.544 5.588 449.964 13.64 451.02C18.26 451.724 19.58 452.604 19.58 455.112C19.58 457.576 17.512 459.292 14.388 459.292C9.724 459.292 8.536 456.96 8.228 454.144H1.408C1.804 460.436 5.764 464.484 14.388 464.484ZM44.6036 464.484C54.4156 464.484 60.8396 457.664 60.8396 448.292V447.94C60.8396 438.48 54.1076 432.1 44.6476 432.1C35.3196 432.1 28.4556 438.744 28.4556 448.116V448.468C28.4556 457.664 34.7476 464.484 44.6036 464.484ZM44.7356 458.808C39.5876 458.808 35.8916 454.848 35.8916 448.424V448.072C35.8916 441.736 39.1916 437.732 44.6476 437.732C50.1476 437.732 53.4036 441.912 53.4036 448.028V448.38C53.4036 454.716 50.0596 458.808 44.7356 458.808ZM64.6855 464H71.0655V441.912L79.8215 464H82.1535L90.8655 441.912V464H97.9495V432.54H88.7095L81.4495 452.12L74.1015 432.54H64.6855V464ZM103.455 464H124.663V458.456H110.539V450.624H121.275V445.432H110.539V438.084H123.959V432.54H103.455V464ZM134.463 464H141.635V438.084H150.127V432.54H125.971V438.084H134.463V464ZM153.237 464H160.365V451.02H172.993V464H180.121V432.54H172.993V445.388H160.365V432.54H153.237V464ZM185.695 464H192.867V432.54H185.695V464ZM198.507 464H204.843V441.604L217.955 464H225.083V432.54H218.747V453.264L206.779 432.54H198.507V464ZM244.919 464.484C254.335 464.484 259.703 458.896 259.703 450.492V447.148H245.579V452.34H252.663C252.531 455.948 250.375 458.984 245.095 458.984C238.935 458.984 236.339 454.628 236.339 448.556V448.204C236.339 441.78 239.551 437.688 245.007 437.688C248.791 437.688 251.211 439.36 251.827 443.056H258.911C258.163 435.268 251.915 432.056 244.919 432.056C235.635 432.056 228.903 438.656 228.903 448.116V448.468C228.903 457.796 234.623 464.484 244.919 464.484ZM277.169 464H284.033L289.797 442.264L295.473 464H302.733L310.389 432.54H303.789L298.685 454.408L293.097 432.54H287.025L281.657 454.276L276.729 432.54H269.513L277.169 464ZM313.368 464H334.576V458.456H320.452V450.624H331.188V445.432H320.452V438.084H333.872V432.54H313.368V464ZM338.216 464H344.552V441.604L357.664 464H364.792V432.54H358.456V453.264L346.488 432.54H338.216V464ZM376.4 464H383.572V438.084H392.064V432.54H367.908V438.084H376.4V464ZM408.8 464H415.664L421.428 442.264L427.104 464H434.364L442.02 432.54H435.42L430.316 454.408L424.728 432.54H418.656L413.288 454.276L408.36 432.54H401.144L408.8 464ZM444.998 464H452.082V451.856H455.162L462.686 464H470.254L461.938 450.624C465.634 449.524 468.406 447.016 468.406 442.264V442.088C468.406 435.576 463.698 432.54 456.262 432.54H444.998V464ZM452.082 447.016V437.996H456.086C459.518 437.996 461.454 439.096 461.454 442.308V442.484C461.454 445.52 459.65 447.016 456.086 447.016H452.082ZM487.331 464.484C497.143 464.484 503.567 457.664 503.567 448.292V447.94C503.567 438.48 496.835 432.1 487.375 432.1C478.047 432.1 471.183 438.744 471.183 448.116V448.468C471.183 457.664 477.475 464.484 487.331 464.484ZM487.463 458.808C482.315 458.808 478.619 454.848 478.619 448.424V448.072C478.619 441.736 481.919 437.732 487.375 437.732C492.875 437.732 496.131 441.912 496.131 448.028V448.38C496.131 454.716 492.787 458.808 487.463 458.808ZM507.413 464H513.749V441.604L526.861 464H533.989V432.54H527.653V453.264L515.685 432.54H507.413V464ZM553.825 464.484C563.241 464.484 568.609 458.896 568.609 450.492V447.148H554.485V452.34H561.569C561.437 455.948 559.281 458.984 554.001 458.984C547.841 458.984 545.245 454.628 545.245 448.556V448.204C545.245 441.78 548.457 437.688 553.913 437.688C557.697 437.688 560.117 439.36 560.733 443.056H567.817C567.069 435.268 560.821 432.056 553.825 432.056C544.541 432.056 537.809 438.656 537.809 448.116V448.468C537.809 457.796 543.529 464.484 553.825 464.484ZM573.375 454.188H578.567L579.535 432.54H572.407L573.375 454.188ZM575.927 464.396C578.127 464.396 579.931 462.724 579.931 460.612C579.931 458.456 578.127 456.784 575.927 456.784C573.727 456.784 571.923 458.456 571.923 460.612C571.923 462.724 573.727 464.396 575.927 464.396ZM14.388 524.484C21.824 524.484 26.4 520.04 26.4 514.452C26.4 507.94 22.484 505.872 14.872 504.904C10.032 504.2 9.02 503.144 9.02 500.9C9.02 498.788 10.604 497.336 13.728 497.336C16.852 497.336 18.524 498.656 18.964 501.516H25.52C24.948 495.268 20.812 492.1 13.728 492.1C6.776 492.1 2.288 496.104 2.288 501.472C2.288 507.544 5.588 509.964 13.64 511.02C18.26 511.724 19.58 512.604 19.58 515.112C19.58 517.576 17.512 519.292 14.388 519.292C9.724 519.292 8.536 516.96 8.228 514.144H1.408C1.804 520.436 5.764 524.484 14.388 524.484ZM44.6036 524.484C54.4156 524.484 60.8396 517.664 60.8396 508.292V507.94C60.8396 498.48 54.1076 492.1 44.6476 492.1C35.3196 492.1 28.4556 498.744 28.4556 508.116V508.468C28.4556 517.664 34.7476 524.484 44.6036 524.484ZM44.7356 518.808C39.5876 518.808 35.8916 514.848 35.8916 508.424V508.072C35.8916 501.736 39.1916 497.732 44.6476 497.732C50.1476 497.732 53.4036 501.912 53.4036 508.028V508.38C53.4036 514.716 50.0596 518.808 44.7356 518.808ZM64.6855 524H71.0655V501.912L79.8215 524H82.1535L90.8655 501.912V524H97.9495V492.54H88.7095L81.4495 512.12L74.1015 492.54H64.6855V524ZM103.455 524H124.663V518.456H110.539V510.624H121.275V505.432H110.539V498.084H123.959V492.54H103.455V524ZM134.463 524H141.635V498.084H150.127V492.54H125.971V498.084H134.463V524ZM153.237 524H160.365V511.02H172.993V524H180.121V492.54H172.993V505.388H160.365V492.54H153.237V524ZM185.695 524H192.867V492.54H185.695V524ZM198.507 524H204.843V501.604L217.955 524H225.083V492.54H218.747V513.264L206.779 492.54H198.507V524ZM244.919 524.484C254.335 524.484 259.703 518.896 259.703 510.492V507.148H245.579V512.34H252.663C252.531 515.948 250.375 518.984 245.095 518.984C238.935 518.984 236.339 514.628 236.339 508.556V508.204C236.339 501.78 239.551 497.688 245.007 497.688C248.791 497.688 251.211 499.36 251.827 503.056H258.911C258.163 495.268 251.915 492.056 244.919 492.056C235.635 492.056 228.903 498.656 228.903 508.116V508.468C228.903 517.796 234.623 524.484 244.919 524.484ZM277.169 524H284.033L289.797 502.264L295.473 524H302.733L310.389 492.54H303.789L298.685 514.408L293.097 492.54H287.025L281.657 514.276L276.729 492.54H269.513L277.169 524ZM313.368 524H334.576V518.456H320.452V510.624H331.188V505.432H320.452V498.084H333.872V492.54H313.368V524ZM338.216 524H344.552V501.604L357.664 524H364.792V492.54H358.456V513.264L346.488 492.54H338.216V524ZM376.4 524H383.572V498.084H392.064V492.54H367.908V498.084H376.4V524ZM408.8 524H415.664L421.428 502.264L427.104 524H434.364L442.02 492.54H435.42L430.316 514.408L424.728 492.54H418.656L413.288 514.276L408.36 492.54H401.144L408.8 524ZM444.998 524H452.082V511.856H455.162L462.686 524H470.254L461.938 510.624C465.634 509.524 468.406 507.016 468.406 502.264V502.088C468.406 495.576 463.698 492.54 456.262 492.54H444.998V524ZM452.082 507.016V497.996H456.086C459.518 497.996 461.454 499.096 461.454 502.308V502.484C461.454 505.52 459.65 507.016 456.086 507.016H452.082ZM487.331 524.484C497.143 524.484 503.567 517.664 503.567 508.292V507.94C503.567 498.48 496.835 492.1 487.375 492.1C478.047 492.1 471.183 498.744 471.183 508.116V508.468C471.183 517.664 477.475 524.484 487.331 524.484ZM487.463 518.808C482.315 518.808 478.619 514.848 478.619 508.424V508.072C478.619 501.736 481.919 497.732 487.375 497.732C492.875 497.732 496.131 501.912 496.131 508.028V508.38C496.131 514.716 492.787 518.808 487.463 518.808ZM507.413 524H513.749V501.604L526.861 524H533.989V492.54H527.653V513.264L515.685 492.54H507.413V524ZM553.825 524.484C563.241 524.484 568.609 518.896 568.609 510.492V507.148H554.485V512.34H561.569C561.437 515.948 559.281 518.984 554.001 518.984C547.841 518.984 545.245 514.628 545.245 508.556V508.204C545.245 501.78 548.457 497.688 553.913 497.688C557.697 497.688 560.117 499.36 560.733 503.056H567.817C567.069 495.268 560.821 492.056 553.825 492.056C544.541 492.056 537.809 498.656 537.809 508.116V508.468C537.809 517.796 543.529 524.484 553.825 524.484ZM573.375 514.188H578.567L579.535 492.54H572.407L573.375 514.188ZM575.927 524.396C578.127 524.396 579.931 522.724 579.931 520.612C579.931 518.456 578.127 516.784 575.927 516.784C573.727 516.784 571.923 518.456 571.923 520.612C571.923 522.724 573.727 524.396 575.927 524.396ZM14.388 584.484C21.824 584.484 26.4 580.04 26.4 574.452C26.4 567.94 22.484 565.872 14.872 564.904C10.032 564.2 9.02 563.144 9.02 560.9C9.02 558.788 10.604 557.336 13.728 557.336C16.852 557.336 18.524 558.656 18.964 561.516H25.52C24.948 555.268 20.812 552.1 13.728 552.1C6.776 552.1 2.288 556.104 2.288 561.472C2.288 567.544 5.588 569.964 13.64 571.02C18.26 571.724 19.58 572.604 19.58 575.112C19.58 577.576 17.512 579.292 14.388 579.292C9.724 579.292 8.536 576.96 8.228 574.144H1.408C1.804 580.436 5.764 584.484 14.388 584.484ZM44.6036 584.484C54.4156 584.484 60.8396 577.664 60.8396 568.292V567.94C60.8396 558.48 54.1076 552.1 44.6476 552.1C35.3196 552.1 28.4556 558.744 28.4556 568.116V568.468C28.4556 577.664 34.7476 584.484 44.6036 584.484ZM44.7356 578.808C39.5876 578.808 35.8916 574.848 35.8916 568.424V568.072C35.8916 561.736 39.1916 557.732 44.6476 557.732C50.1476 557.732 53.4036 561.912 53.4036 568.028V568.38C53.4036 574.716 50.0596 578.808 44.7356 578.808ZM64.6855 584H71.0655V561.912L79.8215 584H82.1535L90.8655 561.912V584H97.9495V552.54H88.7095L81.4495 572.12L74.1015 552.54H64.6855V584ZM103.455 584H124.663V578.456H110.539V570.624H121.275V565.432H110.539V558.084H123.959V552.54H103.455V584ZM134.463 584H141.635V558.084H150.127V552.54H125.971V558.084H134.463V584ZM153.237 584H160.365V571.02H172.993V584H180.121V552.54H172.993V565.388H160.365V552.54H153.237V584ZM185.695 584H192.867V552.54H185.695V584ZM198.507 584H204.843V561.604L217.955 584H225.083V552.54H218.747V573.264L206.779 552.54H198.507V584ZM244.919 584.484C254.335 584.484 259.703 578.896 259.703 570.492V567.148H245.579V572.34H252.663C252.531 575.948 250.375 578.984 245.095 578.984C238.935 578.984 236.339 574.628 236.339 568.556V568.204C236.339 561.78 239.551 557.688 245.007 557.688C248.791 557.688 251.211 559.36 251.827 563.056H258.911C258.163 555.268 251.915 552.056 244.919 552.056C235.635 552.056 228.903 558.656 228.903 568.116V568.468C228.903 577.796 234.623 584.484 244.919 584.484ZM277.169 584H284.033L289.797 562.264L295.473 584H302.733L310.389 552.54H303.789L298.685 574.408L293.097 552.54H287.025L281.657 574.276L276.729 552.54H269.513L277.169 584ZM313.368 584H334.576V578.456H320.452V570.624H331.188V565.432H320.452V558.084H333.872V552.54H313.368V584ZM338.216 584H344.552V561.604L357.664 584H364.792V552.54H358.456V573.264L346.488 552.54H338.216V584ZM376.4 584H383.572V558.084H392.064V552.54H367.908V558.084H376.4V584ZM408.8 584H415.664L421.428 562.264L427.104 584H434.364L442.02 552.54H435.42L430.316 574.408L424.728 552.54H418.656L413.288 574.276L408.36 552.54H401.144L408.8 584ZM444.998 584H452.082V571.856H455.162L462.686 584H470.254L461.938 570.624C465.634 569.524 468.406 567.016 468.406 562.264V562.088C468.406 555.576 463.698 552.54 456.262 552.54H444.998V584ZM452.082 567.016V557.996H456.086C459.518 557.996 461.454 559.096 461.454 562.308V562.484C461.454 565.52 459.65 567.016 456.086 567.016H452.082ZM487.331 584.484C497.143 584.484 503.567 577.664 503.567 568.292V567.94C503.567 558.48 496.835 552.1 487.375 552.1C478.047 552.1 471.183 558.744 471.183 568.116V568.468C471.183 577.664 477.475 584.484 487.331 584.484ZM487.463 578.808C482.315 578.808 478.619 574.848 478.619 568.424V568.072C478.619 561.736 481.919 557.732 487.375 557.732C492.875 557.732 496.131 561.912 496.131 568.028V568.38C496.131 574.716 492.787 578.808 487.463 578.808ZM507.413 584H513.749V561.604L526.861 584H533.989V552.54H527.653V573.264L515.685 552.54H507.413V584ZM553.825 584.484C563.241 584.484 568.609 578.896 568.609 570.492V567.148H554.485V572.34H561.569C561.437 575.948 559.281 578.984 554.001 578.984C547.841 578.984 545.245 574.628 545.245 568.556V568.204C545.245 561.78 548.457 557.688 553.913 557.688C557.697 557.688 560.117 559.36 560.733 563.056H567.817C567.069 555.268 560.821 552.056 553.825 552.056C544.541 552.056 537.809 558.656 537.809 568.116V568.468C537.809 577.796 543.529 584.484 553.825 584.484ZM573.375 574.188H578.567L579.535 552.54H572.407L573.375 574.188ZM575.927 584.396C578.127 584.396 579.931 582.724 579.931 580.612C579.931 578.456 578.127 576.784 575.927 576.784C573.727 576.784 571.923 578.456 571.923 580.612C571.923 582.724 573.727 584.396 575.927 584.396ZM14.388 644.484C21.824 644.484 26.4 640.04 26.4 634.452C26.4 627.94 22.484 625.872 14.872 624.904C10.032 624.2 9.02 623.144 9.02 620.9C9.02 618.788 10.604 617.336 13.728 617.336C16.852 617.336 18.524 618.656 18.964 621.516H25.52C24.948 615.268 20.812 612.1 13.728 612.1C6.776 612.1 2.288 616.104 2.288 621.472C2.288 627.544 5.588 629.964 13.64 631.02C18.26 631.724 19.58 632.604 19.58 635.112C19.58 637.576 17.512 639.292 14.388 639.292C9.724 639.292 8.536 636.96 8.228 634.144H1.408C1.804 640.436 5.764 644.484 14.388 644.484ZM44.6036 644.484C54.4156 644.484 60.8396 637.664 60.8396 628.292V627.94C60.8396 618.48 54.1076 612.1 44.6476 612.1C35.3196 612.1 28.4556 618.744 28.4556 628.116V628.468C28.4556 637.664 34.7476 644.484 44.6036 644.484ZM44.7356 638.808C39.5876 638.808 35.8916 634.848 35.8916 628.424V628.072C35.8916 621.736 39.1916 617.732 44.6476 617.732C50.1476 617.732 53.4036 621.912 53.4036 628.028V628.38C53.4036 634.716 50.0596 638.808 44.7356 638.808ZM64.6855 644H71.0655V621.912L79.8215 644H82.1535L90.8655 621.912V644H97.9495V612.54H88.7095L81.4495 632.12L74.1015 612.54H64.6855V644ZM103.455 644H124.663V638.456H110.539V630.624H121.275V625.432H110.539V618.084H123.959V612.54H103.455V644ZM134.463 644H141.635V618.084H150.127V612.54H125.971V618.084H134.463V644ZM153.237 644H160.365V631.02H172.993V644H180.121V612.54H172.993V625.388H160.365V612.54H153.237V644ZM185.695 644H192.867V612.54H185.695V644ZM198.507 644H204.843V621.604L217.955 644H225.083V612.54H218.747V633.264L206.779 612.54H198.507V644ZM244.919 644.484C254.335 644.484 259.703 638.896 259.703 630.492V627.148H245.579V632.34H252.663C252.531 635.948 250.375 638.984 245.095 638.984C238.935 638.984 236.339 634.628 236.339 628.556V628.204C236.339 621.78 239.551 617.688 245.007 617.688C248.791 617.688 251.211 619.36 251.827 623.056H258.911C258.163 615.268 251.915 612.056 244.919 612.056C235.635 612.056 228.903 618.656 228.903 628.116V628.468C228.903 637.796 234.623 644.484 244.919 644.484ZM277.169 644H284.033L289.797 622.264L295.473 644H302.733L310.389 612.54H303.789L298.685 634.408L293.097 612.54H287.025L281.657 634.276L276.729 612.54H269.513L277.169 644ZM313.368 644H334.576V638.456H320.452V630.624H331.188V625.432H320.452V618.084H333.872V612.54H313.368V644ZM338.216 644H344.552V621.604L357.664 644H364.792V612.54H358.456V633.264L346.488 612.54H338.216V644ZM376.4 644H383.572V618.084H392.064V612.54H367.908V618.084H376.4V644ZM408.8 644H415.664L421.428 622.264L427.104 644H434.364L442.02 612.54H435.42L430.316 634.408L424.728 612.54H418.656L413.288 634.276L408.36 612.54H401.144L408.8 644ZM444.998 644H452.082V631.856H455.162L462.686 644H470.254L461.938 630.624C465.634 629.524 468.406 627.016 468.406 622.264V622.088C468.406 615.576 463.698 612.54 456.262 612.54H444.998V644ZM452.082 627.016V617.996H456.086C459.518 617.996 461.454 619.096 461.454 622.308V622.484C461.454 625.52 459.65 627.016 456.086 627.016H452.082ZM487.331 644.484C497.143 644.484 503.567 637.664 503.567 628.292V627.94C503.567 618.48 496.835 612.1 487.375 612.1C478.047 612.1 471.183 618.744 471.183 628.116V628.468C471.183 637.664 477.475 644.484 487.331 644.484ZM487.463 638.808C482.315 638.808 478.619 634.848 478.619 628.424V628.072C478.619 621.736 481.919 617.732 487.375 617.732C492.875 617.732 496.131 621.912 496.131 628.028V628.38C496.131 634.716 492.787 638.808 487.463 638.808ZM507.413 644H513.749V621.604L526.861 644H533.989V612.54H527.653V633.264L515.685 612.54H507.413V644ZM553.825 644.484C563.241 644.484 568.609 638.896 568.609 630.492V627.148H554.485V632.34H561.569C561.437 635.948 559.281 638.984 554.001 638.984C547.841 638.984 545.245 634.628 545.245 628.556V628.204C545.245 621.78 548.457 617.688 553.913 617.688C557.697 617.688 560.117 619.36 560.733 623.056H567.817C567.069 615.268 560.821 612.056 553.825 612.056C544.541 612.056 537.809 618.656 537.809 628.116V628.468C537.809 637.796 543.529 644.484 553.825 644.484ZM573.375 634.188H578.567L579.535 612.54H572.407L573.375 634.188ZM575.927 644.396C578.127 644.396 579.931 642.724 579.931 640.612C579.931 638.456 578.127 636.784 575.927 636.784C573.727 636.784 571.923 638.456 571.923 640.612C571.923 642.724 573.727 644.396 575.927 644.396Z" fill="#D71029"/>
</svg>
