<svg width="571" height="642" viewBox="0 0 571 642" fill="none" xmlns="http://www.w3.org/2000/svg">
<path d="M571 0H0V642H571V0Z" fill="#F8A2AC"/>
<path d="M15.7623 40.9053C24.7923 40.9053 30.3492 35.292 30.3492 28.2336C30.3492 20.0081 25.5938 17.3959 16.3501 16.1732C10.4726 15.2839 9.24368 13.9501 9.24368 11.1156C9.24368 8.44784 11.1672 6.61377 14.9609 6.61377C18.7545 6.61377 20.7849 8.28111 21.3192 11.8937H29.2806C28.5859 4.00161 23.5634 0 14.9609 0C6.51866 0 1.06863 5.05759 1.06863 11.8381C1.06863 19.5078 5.07601 22.5646 14.854 23.8985C20.4643 24.7878 22.0673 25.8993 22.0673 29.0672C22.0673 32.1796 19.556 34.3472 15.7623 34.3472C10.0986 34.3472 8.65593 31.4015 8.28191 27.8445H0C0.480885 35.7922 5.28974 40.9053 15.7623 40.9053ZM52.4549 40.9053C64.3701 40.9053 72.1712 32.2908 72.1712 20.4527V20.0081C72.1712 8.0588 63.9961 0 52.5083 0C41.1808 0 32.8455 8.39227 32.8455 20.2304V20.675C32.8455 32.2908 40.4862 40.9053 52.4549 40.9053ZM52.6152 33.7358C46.3637 33.7358 41.8754 28.7338 41.8754 20.6194V20.1748C41.8754 12.1716 45.8828 7.11397 52.5083 7.11397C59.1873 7.11397 63.1412 12.3939 63.1412 20.1192V20.5638C63.1412 28.567 59.0804 33.7358 52.6152 33.7358ZM76.8414 40.294H101.046V33.2356H85.4973V0.555779H76.8414V40.294ZM105.137 40.294H117.587C130.998 40.294 137.677 32.3463 137.677 20.4527V20.0081C137.677 8.11438 131.052 0.555779 117.64 0.555779H105.137V40.294ZM113.793 33.2912V7.5586H117.213C125.281 7.5586 128.647 11.9493 128.647 20.1192V20.5638C128.647 28.7894 125.014 33.2912 117.32 33.2912H113.793ZM170.178 40.9053C182.094 40.9053 189.895 32.2908 189.895 20.4527V20.0081C189.895 8.0588 181.72 0 170.232 0C158.904 0 150.569 8.39227 150.569 20.2304V20.675C150.569 32.2908 158.21 40.9053 170.178 40.9053ZM170.339 33.7358C164.087 33.7358 159.599 28.7338 159.599 20.6194V20.1748C159.599 12.1716 163.606 7.11397 170.232 7.11397C176.911 7.11397 180.865 12.3939 180.865 20.1192V20.5638C180.865 28.567 176.804 33.7358 170.339 33.7358ZM210.007 40.9053C220.319 40.9053 226.143 35.292 226.143 24.4543V0.555779H217.434V23.8985C217.434 31.1792 215.19 33.7358 210.06 33.7358C204.824 33.7358 202.954 30.8457 202.954 24.232V0.555779H194.244V24.7878C194.244 35.3476 199.962 40.9053 210.007 40.9053ZM239.941 40.294H248.651V7.5586H258.963V0.555779H229.629V7.5586H239.941V40.294ZM263.968 27.9001H270.273L271.449 0.555779H262.793L263.968 27.9001ZM267.067 40.7942C269.739 40.7942 271.93 38.6822 271.93 36.0145C271.93 33.2912 269.739 31.1792 267.067 31.1792C264.396 31.1792 262.205 33.2912 262.205 36.0145C262.205 38.6822 264.396 40.7942 267.067 40.7942ZM301.642 40.9053C310.672 40.9053 316.229 35.292 316.229 28.2336C316.229 20.0081 311.473 17.3959 302.23 16.1732C296.352 15.2839 295.123 13.9501 295.123 11.1156C295.123 8.44784 297.047 6.61377 300.841 6.61377C304.634 6.61377 306.665 8.28111 307.199 11.8937H315.16C314.466 4.00161 309.443 0 300.841 0C292.398 0 286.948 5.05759 286.948 11.8381C286.948 19.5078 290.956 22.5646 300.734 23.8985C306.344 24.7878 307.947 25.8993 307.947 29.0672C307.947 32.1796 305.436 34.3472 301.642 34.3472C295.978 34.3472 294.536 31.4015 294.162 27.8445H285.88C286.361 35.7922 291.169 40.9053 301.642 40.9053ZM338.335 40.9053C350.25 40.9053 358.051 32.2908 358.051 20.4527V20.0081C358.051 8.0588 349.876 0 338.389 0C327.061 0 318.726 8.39227 318.726 20.2304V20.675C318.726 32.2908 326.366 40.9053 338.335 40.9053ZM338.495 33.7358C332.244 33.7358 327.756 28.7338 327.756 20.6194V20.1748C327.756 12.1716 331.763 7.11397 338.389 7.11397C345.068 7.11397 349.021 12.3939 349.021 20.1192V20.5638C349.021 28.567 344.961 33.7358 338.495 33.7358ZM362.722 40.294H386.926V33.2356H371.378V0.555779H362.722V40.294ZM391.017 40.294H403.467C416.878 40.294 423.557 32.3463 423.557 20.4527V20.0081C423.557 8.11438 416.932 0.555779 403.52 0.555779H391.017V40.294ZM399.673 33.2912V7.5586H403.093C411.161 7.5586 414.527 11.9493 414.527 20.1192V20.5638C414.527 28.7894 410.894 33.2912 403.2 33.2912H399.673ZM456.058 40.9053C467.973 40.9053 475.774 32.2908 475.774 20.4527V20.0081C475.774 8.0588 467.599 0 456.112 0C444.784 0 436.449 8.39227 436.449 20.2304V20.675C436.449 32.2908 444.089 40.9053 456.058 40.9053ZM456.218 33.7358C449.967 33.7358 445.479 28.7338 445.479 20.6194V20.1748C445.479 12.1716 449.486 7.11397 456.112 7.11397C462.79 7.11397 466.744 12.3939 466.744 20.1192V20.5638C466.744 28.567 462.684 33.7358 456.218 33.7358ZM495.886 40.9053C506.199 40.9053 512.023 35.292 512.023 24.4543V0.555779H503.313V23.8985C503.313 31.1792 501.069 33.7358 495.94 33.7358C490.703 33.7358 488.833 30.8457 488.833 24.232V0.555779H480.124V24.7878C480.124 35.3476 485.841 40.9053 495.886 40.9053ZM525.823 40.294H534.532V7.5586H544.844V0.555779H515.51V7.5586H525.823V40.294ZM549.849 27.9001H556.154L557.33 0.555779H548.674L549.849 27.9001ZM552.948 40.7942C555.62 40.7942 557.811 38.6822 557.811 36.0145C557.811 33.2912 555.62 31.1792 552.948 31.1792C550.277 31.1792 548.086 33.2912 548.086 36.0145C548.086 38.6822 550.277 40.7942 552.948 40.7942ZM15.7623 100.99C24.7923 100.99 30.3492 95.3762 30.3492 88.3178C30.3492 80.0923 25.5938 77.4801 16.3501 76.2574C10.4726 75.3682 9.24368 74.0343 9.24368 71.1998C9.24368 68.5321 11.1672 66.698 14.9609 66.698C18.7545 66.698 20.7849 68.3653 21.3192 71.9779H29.2806C28.5859 64.0858 23.5634 60.0842 14.9609 60.0842C6.51866 60.0842 1.06863 65.1418 1.06863 71.9223C1.06863 79.5921 5.07601 82.6489 14.854 83.9827C20.4643 84.872 22.0673 85.9835 22.0673 89.1515C22.0673 92.2638 19.556 94.4314 15.7623 94.4314C10.0986 94.4314 8.65593 91.4857 8.28191 87.9288H0C0.480885 95.8764 5.28974 100.99 15.7623 100.99ZM52.4549 100.99C64.3701 100.99 72.1712 92.375 72.1712 80.5369V80.0923C72.1712 68.143 63.9961 60.0842 52.5083 60.0842C41.1808 60.0842 32.8455 68.4765 32.8455 80.3146V80.7592C32.8455 92.375 40.4862 100.99 52.4549 100.99ZM52.6152 93.82C46.3637 93.82 41.8754 88.818 41.8754 80.7036V80.259C41.8754 72.2558 45.8828 67.1982 52.5083 67.1982C59.1873 67.1982 63.1412 72.4781 63.1412 80.2034V80.6481C63.1412 88.6513 59.0804 93.82 52.6152 93.82ZM76.8414 100.378H101.046V93.3198H85.4973V60.64H76.8414V100.378ZM105.137 100.378H117.587C130.998 100.378 137.677 92.4306 137.677 80.5369V80.0923C137.677 68.1986 131.052 60.64 117.64 60.64H105.137V100.378ZM113.793 93.3754V67.6428H117.213C125.281 67.6428 128.647 72.0335 128.647 80.2034V80.6481C128.647 88.8736 125.014 93.3754 117.32 93.3754H113.793ZM170.178 100.99C182.094 100.99 189.895 92.375 189.895 80.5369V80.0923C189.895 68.143 181.72 60.0842 170.232 60.0842C158.904 60.0842 150.569 68.4765 150.569 80.3146V80.7592C150.569 92.375 158.21 100.99 170.178 100.99ZM170.339 93.82C164.087 93.82 159.599 88.818 159.599 80.7036V80.259C159.599 72.2558 163.606 67.1982 170.232 67.1982C176.911 67.1982 180.865 72.4781 180.865 80.2034V80.6481C180.865 88.6513 176.804 93.82 170.339 93.82ZM210.007 100.99C220.319 100.99 226.143 95.3762 226.143 84.5385V60.64H217.434V83.9827C217.434 91.2634 215.19 93.82 210.06 93.82C204.824 93.82 202.954 90.93 202.954 84.3162V60.64H194.244V84.872C194.244 95.4318 199.962 100.99 210.007 100.99ZM239.941 100.378H248.651V67.6428H258.963V60.64H229.629V67.6428H239.941V100.378ZM263.968 87.9843H270.273L271.449 60.64H262.793L263.968 87.9843ZM267.067 100.878C269.739 100.878 271.93 98.7665 271.93 96.0987C271.93 93.3754 269.739 91.2634 267.067 91.2634C264.396 91.2634 262.205 93.3754 262.205 96.0987C262.205 98.7665 264.396 100.878 267.067 100.878ZM301.642 100.99C310.672 100.99 316.229 95.3762 316.229 88.3178C316.229 80.0923 311.473 77.4801 302.23 76.2574C296.352 75.3682 295.123 74.0343 295.123 71.1998C295.123 68.5321 297.047 66.698 300.841 66.698C304.634 66.698 306.665 68.3653 307.199 71.9779H315.16C314.466 64.0858 309.443 60.0842 300.841 60.0842C292.398 60.0842 286.948 65.1418 286.948 71.9223C286.948 79.5921 290.956 82.6489 300.734 83.9827C306.344 84.872 307.947 85.9835 307.947 89.1515C307.947 92.2638 305.436 94.4314 301.642 94.4314C295.978 94.4314 294.536 91.4857 294.162 87.9288H285.88C286.361 95.8764 291.169 100.99 301.642 100.99ZM338.335 100.99C350.25 100.99 358.051 92.375 358.051 80.5369V80.0923C358.051 68.143 349.876 60.0842 338.389 60.0842C327.061 60.0842 318.726 68.4765 318.726 80.3146V80.7592C318.726 92.375 326.366 100.99 338.335 100.99ZM338.495 93.82C332.244 93.82 327.756 88.818 327.756 80.7036V80.259C327.756 72.2558 331.763 67.1982 338.389 67.1982C345.068 67.1982 349.021 72.4781 349.021 80.2034V80.6481C349.021 88.6513 344.961 93.82 338.495 93.82ZM362.722 100.378H386.926V93.3198H371.378V60.64H362.722V100.378ZM391.017 100.378H403.467C416.878 100.378 423.557 92.4306 423.557 80.5369V80.0923C423.557 68.1986 416.932 60.64 403.52 60.64H391.017V100.378ZM399.673 93.3754V67.6428H403.093C411.161 67.6428 414.527 72.0335 414.527 80.2034V80.6481C414.527 88.8736 410.894 93.3754 403.2 93.3754H399.673ZM456.058 100.99C467.973 100.99 475.774 92.375 475.774 80.5369V80.0923C475.774 68.143 467.599 60.0842 456.112 60.0842C444.784 60.0842 436.449 68.4765 436.449 80.3146V80.7592C436.449 92.375 444.089 100.99 456.058 100.99ZM456.218 93.82C449.967 93.82 445.479 88.818 445.479 80.7036V80.259C445.479 72.2558 449.486 67.1982 456.112 67.1982C462.79 67.1982 466.744 72.4781 466.744 80.2034V80.6481C466.744 88.6513 462.684 93.82 456.218 93.82ZM495.886 100.99C506.199 100.99 512.023 95.3762 512.023 84.5385V60.64H503.313V83.9827C503.313 91.2634 501.069 93.82 495.94 93.82C490.703 93.82 488.833 90.93 488.833 84.3162V60.64H480.124V84.872C480.124 95.4318 485.841 100.99 495.886 100.99ZM525.823 100.378H534.532V67.6428H544.844V60.64H515.51V67.6428H525.823V100.378ZM549.849 87.9843H556.154L557.33 60.64H548.674L549.849 87.9843ZM552.948 100.878C555.62 100.878 557.811 98.7665 557.811 96.0987C557.811 93.3754 555.62 91.2634 552.948 91.2634C550.277 91.2634 548.086 93.3754 548.086 96.0987C548.086 98.7665 550.277 100.878 552.948 100.878ZM15.7623 161.074C24.7923 161.074 30.3492 155.46 30.3492 148.402C30.3492 140.177 25.5938 137.564 16.3501 136.342C10.4726 135.452 9.24368 134.119 9.24368 131.284C9.24368 128.616 11.1672 126.782 14.9609 126.782C18.7545 126.782 20.7849 128.45 21.3192 132.062H29.2806C28.5859 124.17 23.5634 120.168 14.9609 120.168C6.51866 120.168 1.06863 125.226 1.06863 132.007C1.06863 139.676 5.07601 142.733 14.854 144.067C20.4643 144.956 22.0673 146.068 22.0673 149.236C22.0673 152.348 19.556 154.516 15.7623 154.516C10.0986 154.516 8.65593 151.57 8.28191 148.013H0C0.480885 155.961 5.28974 161.074 15.7623 161.074ZM52.4549 161.074C64.3701 161.074 72.1712 152.459 72.1712 140.621V140.177C72.1712 128.227 63.9961 120.168 52.5083 120.168C41.1808 120.168 32.8455 128.561 32.8455 140.399V140.843C32.8455 152.459 40.4862 161.074 52.4549 161.074ZM52.6152 153.904C46.3637 153.904 41.8754 148.902 41.8754 140.788V140.343C41.8754 132.34 45.8828 127.282 52.5083 127.282C59.1873 127.282 63.1412 132.562 63.1412 140.288V140.732C63.1412 148.736 59.0804 153.904 52.6152 153.904ZM76.8414 160.462H101.046V153.404H85.4973V120.724H76.8414V160.462ZM105.137 160.462H117.587C130.998 160.462 137.677 152.515 137.677 140.621V140.177C137.677 128.283 131.052 120.724 117.64 120.724H105.137V160.462ZM113.793 153.46V127.727H117.213C125.281 127.727 128.647 132.118 128.647 140.288V140.732C128.647 148.958 125.014 153.46 117.32 153.46H113.793ZM170.178 161.074C182.094 161.074 189.895 152.459 189.895 140.621V140.177C189.895 128.227 181.72 120.168 170.232 120.168C158.904 120.168 150.569 128.561 150.569 140.399V140.843C150.569 152.459 158.21 161.074 170.178 161.074ZM170.339 153.904C164.087 153.904 159.599 148.902 159.599 140.788V140.343C159.599 132.34 163.606 127.282 170.232 127.282C176.911 127.282 180.865 132.562 180.865 140.288V140.732C180.865 148.736 176.804 153.904 170.339 153.904ZM210.007 161.074C220.319 161.074 226.143 155.46 226.143 144.623V120.724H217.434V144.067C217.434 151.348 215.19 153.904 210.06 153.904C204.824 153.904 202.954 151.014 202.954 144.4V120.724H194.244V144.956C194.244 155.516 199.962 161.074 210.007 161.074ZM239.941 160.462H248.651V127.727H258.963V120.724H229.629V127.727H239.941V160.462ZM263.968 148.069H270.273L271.449 120.724H262.793L263.968 148.069ZM267.067 160.963C269.739 160.963 271.93 158.851 271.93 156.183C271.93 153.46 269.739 151.348 267.067 151.348C264.396 151.348 262.205 153.46 262.205 156.183C262.205 158.851 264.396 160.963 267.067 160.963ZM301.642 161.074C310.672 161.074 316.229 155.46 316.229 148.402C316.229 140.177 311.473 137.564 302.23 136.342C296.352 135.452 295.123 134.119 295.123 131.284C295.123 128.616 297.047 126.782 300.841 126.782C304.634 126.782 306.665 128.45 307.199 132.062H315.16C314.466 124.17 309.443 120.168 300.841 120.168C292.398 120.168 286.948 125.226 286.948 132.007C286.948 139.676 290.956 142.733 300.734 144.067C306.344 144.956 307.947 146.068 307.947 149.236C307.947 152.348 305.436 154.516 301.642 154.516C295.978 154.516 294.536 151.57 294.162 148.013H285.88C286.361 155.961 291.169 161.074 301.642 161.074ZM338.335 161.074C350.25 161.074 358.051 152.459 358.051 140.621V140.177C358.051 128.227 349.876 120.168 338.389 120.168C327.061 120.168 318.726 128.561 318.726 140.399V140.843C318.726 152.459 326.366 161.074 338.335 161.074ZM338.495 153.904C332.244 153.904 327.756 148.902 327.756 140.788V140.343C327.756 132.34 331.763 127.282 338.389 127.282C345.068 127.282 349.021 132.562 349.021 140.288V140.732C349.021 148.736 344.961 153.904 338.495 153.904ZM362.722 160.462H386.926V153.404H371.378V120.724H362.722V160.462ZM391.017 160.462H403.467C416.878 160.462 423.557 152.515 423.557 140.621V140.177C423.557 128.283 416.932 120.724 403.52 120.724H391.017V160.462ZM399.673 153.46V127.727H403.093C411.161 127.727 414.527 132.118 414.527 140.288V140.732C414.527 148.958 410.894 153.46 403.2 153.46H399.673ZM456.058 161.074C467.973 161.074 475.774 152.459 475.774 140.621V140.177C475.774 128.227 467.599 120.168 456.112 120.168C444.784 120.168 436.449 128.561 436.449 140.399V140.843C436.449 152.459 444.089 161.074 456.058 161.074ZM456.218 153.904C449.967 153.904 445.479 148.902 445.479 140.788V140.343C445.479 132.34 449.486 127.282 456.112 127.282C462.79 127.282 466.744 132.562 466.744 140.288V140.732C466.744 148.736 462.684 153.904 456.218 153.904ZM495.886 161.074C506.199 161.074 512.023 155.46 512.023 144.623V120.724H503.313V144.067C503.313 151.348 501.069 153.904 495.94 153.904C490.703 153.904 488.833 151.014 488.833 144.4V120.724H480.124V144.956C480.124 155.516 485.841 161.074 495.886 161.074ZM525.823 160.462H534.532V127.727H544.844V120.724H515.51V127.727H525.823V160.462ZM549.849 148.069H556.154L557.33 120.724H548.674L549.849 148.069ZM552.948 160.963C555.62 160.963 557.811 158.851 557.811 156.183C557.811 153.46 555.62 151.348 552.948 151.348C550.277 151.348 548.086 153.46 548.086 156.183C548.086 158.851 550.277 160.963 552.948 160.963ZM15.7623 221.158C24.7923 221.158 30.3492 215.545 30.3492 208.486C30.3492 200.261 25.5938 197.649 16.3501 196.426C10.4726 195.537 9.24368 194.203 9.24368 191.368C9.24368 188.701 11.1672 186.866 14.9609 186.866C18.7545 186.866 20.7849 188.534 21.3192 192.146H29.2806C28.5859 184.254 23.5634 180.253 14.9609 180.253C6.51866 180.253 1.06863 185.31 1.06863 192.091C1.06863 199.761 5.07601 202.817 14.854 204.151C20.4643 205.04 22.0673 206.152 22.0673 209.32C22.0673 212.432 19.556 214.6 15.7623 214.6C10.0986 214.6 8.65593 211.654 8.28191 208.097H0C0.480885 216.045 5.28974 221.158 15.7623 221.158ZM52.4549 221.158C64.3701 221.158 72.1712 212.543 72.1712 200.705V200.261C72.1712 188.311 63.9961 180.253 52.5083 180.253C41.1808 180.253 32.8455 188.645 32.8455 200.483V200.928C32.8455 212.543 40.4862 221.158 52.4549 221.158ZM52.6152 213.988C46.3637 213.988 41.8754 208.986 41.8754 200.872V200.427C41.8754 192.424 45.8828 187.367 52.5083 187.367C59.1873 187.367 63.1412 192.647 63.1412 200.372V200.817C63.1412 208.82 59.0804 213.988 52.6152 213.988ZM76.8414 220.547H101.046V213.488H85.4973V180.808H76.8414V220.547ZM105.137 220.547H117.587C130.998 220.547 137.677 212.599 137.677 200.705V200.261C137.677 188.367 131.052 180.808 117.64 180.808H105.137V220.547ZM113.793 213.544V187.811H117.213C125.281 187.811 128.647 192.202 128.647 200.372V200.817C128.647 209.042 125.014 213.544 117.32 213.544H113.793ZM170.178 221.158C182.094 221.158 189.895 212.543 189.895 200.705V200.261C189.895 188.311 181.72 180.253 170.232 180.253C158.904 180.253 150.569 188.645 150.569 200.483V200.928C150.569 212.543 158.21 221.158 170.178 221.158ZM170.339 213.988C164.087 213.988 159.599 208.986 159.599 200.872V200.427C159.599 192.424 163.606 187.367 170.232 187.367C176.911 187.367 180.865 192.647 180.865 200.372V200.817C180.865 208.82 176.804 213.988 170.339 213.988ZM210.007 221.158C220.319 221.158 226.143 215.545 226.143 204.707V180.808H217.434V204.151C217.434 211.432 215.19 213.988 210.06 213.988C204.824 213.988 202.954 211.098 202.954 204.485V180.808H194.244V205.04C194.244 215.6 199.962 221.158 210.007 221.158ZM239.941 220.547H248.651V187.811H258.963V180.808H229.629V187.811H239.941V220.547ZM263.968 208.153H270.273L271.449 180.808H262.793L263.968 208.153ZM267.067 221.047C269.739 221.047 271.93 218.935 271.93 216.267C271.93 213.544 269.739 211.432 267.067 211.432C264.396 211.432 262.205 213.544 262.205 216.267C262.205 218.935 264.396 221.047 267.067 221.047ZM301.642 221.158C310.672 221.158 316.229 215.545 316.229 208.486C316.229 200.261 311.473 197.649 302.23 196.426C296.352 195.537 295.123 194.203 295.123 191.368C295.123 188.701 297.047 186.866 300.841 186.866C304.634 186.866 306.665 188.534 307.199 192.146H315.16C314.466 184.254 309.443 180.253 300.841 180.253C292.398 180.253 286.948 185.31 286.948 192.091C286.948 199.761 290.956 202.817 300.734 204.151C306.344 205.04 307.947 206.152 307.947 209.32C307.947 212.432 305.436 214.6 301.642 214.6C295.978 214.6 294.536 211.654 294.162 208.097H285.88C286.361 216.045 291.169 221.158 301.642 221.158ZM338.335 221.158C350.25 221.158 358.051 212.543 358.051 200.705V200.261C358.051 188.311 349.876 180.253 338.389 180.253C327.061 180.253 318.726 188.645 318.726 200.483V200.928C318.726 212.543 326.366 221.158 338.335 221.158ZM338.495 213.988C332.244 213.988 327.756 208.986 327.756 200.872V200.427C327.756 192.424 331.763 187.367 338.389 187.367C345.068 187.367 349.021 192.647 349.021 200.372V200.817C349.021 208.82 344.961 213.988 338.495 213.988ZM362.722 220.547H386.926V213.488H371.378V180.808H362.722V220.547ZM391.017 220.547H403.467C416.878 220.547 423.557 212.599 423.557 200.705V200.261C423.557 188.367 416.932 180.808 403.52 180.808H391.017V220.547ZM399.673 213.544V187.811H403.093C411.161 187.811 414.527 192.202 414.527 200.372V200.817C414.527 209.042 410.894 213.544 403.2 213.544H399.673ZM456.058 221.158C467.973 221.158 475.774 212.543 475.774 200.705V200.261C475.774 188.311 467.599 180.253 456.112 180.253C444.784 180.253 436.449 188.645 436.449 200.483V200.928C436.449 212.543 444.089 221.158 456.058 221.158ZM456.218 213.988C449.967 213.988 445.479 208.986 445.479 200.872V200.427C445.479 192.424 449.486 187.367 456.112 187.367C462.79 187.367 466.744 192.647 466.744 200.372V200.817C466.744 208.82 462.684 213.988 456.218 213.988ZM495.886 221.158C506.199 221.158 512.023 215.545 512.023 204.707V180.808H503.313V204.151C503.313 211.432 501.069 213.988 495.94 213.988C490.703 213.988 488.833 211.098 488.833 204.485V180.808H480.124V205.04C480.124 215.6 485.841 221.158 495.886 221.158ZM525.823 220.547H534.532V187.811H544.844V180.808H515.51V187.811H525.823V220.547ZM549.849 208.153H556.154L557.33 180.808H548.674L549.849 208.153ZM552.948 221.047C555.62 221.047 557.811 218.935 557.811 216.267C557.811 213.544 555.62 211.432 552.948 211.432C550.277 211.432 548.086 213.544 548.086 216.267C548.086 218.935 550.277 221.047 552.948 221.047ZM15.7623 281.242C24.7923 281.242 30.3492 275.629 30.3492 268.57C30.3492 260.345 25.5938 257.733 16.3501 256.51C10.4726 255.621 9.24368 254.287 9.24368 251.453C9.24368 248.785 11.1672 246.951 14.9609 246.951C18.7545 246.951 20.7849 248.618 21.3192 252.231H29.2806C28.5859 244.339 23.5634 240.337 14.9609 240.337C6.51866 240.337 1.06863 245.395 1.06863 252.175C1.06863 259.845 5.07601 262.902 14.854 264.235C20.4643 265.125 22.0673 266.236 22.0673 269.404C22.0673 272.517 19.556 274.684 15.7623 274.684C10.0986 274.684 8.65593 271.738 8.28191 268.181H0C0.480885 276.129 5.28974 281.242 15.7623 281.242ZM52.4549 281.242C64.3701 281.242 72.1712 272.628 72.1712 260.79V260.345C72.1712 248.396 63.9961 240.337 52.5083 240.337C41.1808 240.337 32.8455 248.729 32.8455 260.567V261.012C32.8455 272.628 40.4862 281.242 52.4549 281.242ZM52.6152 274.073C46.3637 274.073 41.8754 269.071 41.8754 260.956V260.512C41.8754 252.508 45.8828 247.451 52.5083 247.451C59.1873 247.451 63.1412 252.731 63.1412 260.456V260.901C63.1412 268.904 59.0804 274.073 52.6152 274.073ZM76.8414 280.631H101.046V273.573H85.4973V240.893H76.8414V280.631ZM105.137 280.631H117.587C130.998 280.631 137.677 272.683 137.677 260.79V260.345C137.677 248.451 131.052 240.893 117.64 240.893H105.137V280.631ZM113.793 273.628V247.896H117.213C125.281 247.896 128.647 252.286 128.647 260.456V260.901C128.647 269.126 125.014 273.628 117.32 273.628H113.793ZM170.178 281.242C182.094 281.242 189.895 272.628 189.895 260.79V260.345C189.895 248.396 181.72 240.337 170.232 240.337C158.904 240.337 150.569 248.729 150.569 260.567V261.012C150.569 272.628 158.21 281.242 170.178 281.242ZM170.339 274.073C164.087 274.073 159.599 269.071 159.599 260.956V260.512C159.599 252.508 163.606 247.451 170.232 247.451C176.911 247.451 180.865 252.731 180.865 260.456V260.901C180.865 268.904 176.804 274.073 170.339 274.073ZM210.007 281.242C220.319 281.242 226.143 275.629 226.143 264.791V240.893H217.434V264.235C217.434 271.516 215.19 274.073 210.06 274.073C204.824 274.073 202.954 271.183 202.954 264.569V240.893H194.244V265.125C194.244 275.684 199.962 281.242 210.007 281.242ZM239.941 280.631H248.651V247.896H258.963V240.893H229.629V247.896H239.941V280.631ZM263.968 268.237H270.273L271.449 240.893H262.793L263.968 268.237ZM267.067 281.131C269.739 281.131 271.93 279.019 271.93 276.351C271.93 273.628 269.739 271.516 267.067 271.516C264.396 271.516 262.205 273.628 262.205 276.351C262.205 279.019 264.396 281.131 267.067 281.131ZM301.642 281.242C310.672 281.242 316.229 275.629 316.229 268.57C316.229 260.345 311.473 257.733 302.23 256.51C296.352 255.621 295.123 254.287 295.123 251.453C295.123 248.785 297.047 246.951 300.841 246.951C304.634 246.951 306.665 248.618 307.199 252.231H315.16C314.466 244.339 309.443 240.337 300.841 240.337C292.398 240.337 286.948 245.395 286.948 252.175C286.948 259.845 290.956 262.902 300.734 264.235C306.344 265.125 307.947 266.236 307.947 269.404C307.947 272.517 305.436 274.684 301.642 274.684C295.978 274.684 294.536 271.738 294.162 268.181H285.88C286.361 276.129 291.169 281.242 301.642 281.242ZM338.335 281.242C350.25 281.242 358.051 272.628 358.051 260.79V260.345C358.051 248.396 349.876 240.337 338.389 240.337C327.061 240.337 318.726 248.729 318.726 260.567V261.012C318.726 272.628 326.366 281.242 338.335 281.242ZM338.495 274.073C332.244 274.073 327.756 269.071 327.756 260.956V260.512C327.756 252.508 331.763 247.451 338.389 247.451C345.068 247.451 349.021 252.731 349.021 260.456V260.901C349.021 268.904 344.961 274.073 338.495 274.073ZM362.722 280.631H386.926V273.573H371.378V240.893H362.722V280.631ZM391.017 280.631H403.467C416.878 280.631 423.557 272.683 423.557 260.79V260.345C423.557 248.451 416.932 240.893 403.52 240.893H391.017V280.631ZM399.673 273.628V247.896H403.093C411.161 247.896 414.527 252.286 414.527 260.456V260.901C414.527 269.126 410.894 273.628 403.2 273.628H399.673ZM456.058 281.242C467.973 281.242 475.774 272.628 475.774 260.79V260.345C475.774 248.396 467.599 240.337 456.112 240.337C444.784 240.337 436.449 248.729 436.449 260.567V261.012C436.449 272.628 444.089 281.242 456.058 281.242ZM456.218 274.073C449.967 274.073 445.479 269.071 445.479 260.956V260.512C445.479 252.508 449.486 247.451 456.112 247.451C462.79 247.451 466.744 252.731 466.744 260.456V260.901C466.744 268.904 462.684 274.073 456.218 274.073ZM495.886 281.242C506.199 281.242 512.023 275.629 512.023 264.791V240.893H503.313V264.235C503.313 271.516 501.069 274.073 495.94 274.073C490.703 274.073 488.833 271.183 488.833 264.569V240.893H480.124V265.125C480.124 275.684 485.841 281.242 495.886 281.242ZM525.823 280.631H534.532V247.896H544.844V240.893H515.51V247.896H525.823V280.631ZM549.849 268.237H556.154L557.33 240.893H548.674L549.849 268.237ZM552.948 281.131C555.62 281.131 557.811 279.019 557.811 276.351C557.811 273.628 555.62 271.516 552.948 271.516C550.277 271.516 548.086 273.628 548.086 276.351C548.086 279.019 550.277 281.131 552.948 281.131ZM15.7623 341.327C24.7923 341.327 30.3492 335.713 30.3492 328.655C30.3492 320.429 25.5938 317.817 16.3501 316.594C10.4726 315.705 9.24368 314.371 9.24368 311.537C9.24368 308.869 11.1672 307.035 14.9609 307.035C18.7545 307.035 20.7849 308.702 21.3192 312.315H29.2806C28.5859 304.423 23.5634 300.421 14.9609 300.421C6.51866 300.421 1.06863 305.479 1.06863 312.259C1.06863 319.929 5.07601 322.986 14.854 324.32C20.4643 325.209 22.0673 326.32 22.0673 329.488C22.0673 332.601 19.556 334.768 15.7623 334.768C10.0986 334.768 8.65593 331.823 8.28191 328.266H0C0.480885 336.213 5.28974 341.327 15.7623 341.327ZM52.4549 341.327C64.3701 341.327 72.1712 332.712 72.1712 320.874V320.429C72.1712 308.48 63.9961 300.421 52.5083 300.421C41.1808 300.421 32.8455 308.813 32.8455 320.651V321.096C32.8455 332.712 40.4862 341.327 52.4549 341.327ZM52.6152 334.157C46.3637 334.157 41.8754 329.155 41.8754 321.041V320.596C41.8754 312.593 45.8828 307.535 52.5083 307.535C59.1873 307.535 63.1412 312.815 63.1412 320.54V320.985C63.1412 328.988 59.0804 334.157 52.6152 334.157ZM76.8414 340.715H101.046V333.657H85.4973V300.977H76.8414V340.715ZM105.137 340.715H117.587C130.998 340.715 137.677 332.767 137.677 320.874V320.429C137.677 308.536 131.052 300.977 117.64 300.977H105.137V340.715ZM113.793 333.712V307.98H117.213C125.281 307.98 128.647 312.37 128.647 320.54V320.985C128.647 329.21 125.014 333.712 117.32 333.712H113.793ZM170.178 341.327C182.094 341.327 189.895 332.712 189.895 320.874V320.429C189.895 308.48 181.72 300.421 170.232 300.421C158.904 300.421 150.569 308.813 150.569 320.651V321.096C150.569 332.712 158.21 341.327 170.178 341.327ZM170.339 334.157C164.087 334.157 159.599 329.155 159.599 321.041V320.596C159.599 312.593 163.606 307.535 170.232 307.535C176.911 307.535 180.865 312.815 180.865 320.54V320.985C180.865 328.988 176.804 334.157 170.339 334.157ZM210.007 341.327C220.319 341.327 226.143 335.713 226.143 324.875V300.977H217.434V324.32C217.434 331.6 215.19 334.157 210.06 334.157C204.824 334.157 202.954 331.267 202.954 324.653V300.977H194.244V325.209C194.244 335.769 199.962 341.327 210.007 341.327ZM239.941 340.715H248.651V307.98H258.963V300.977H229.629V307.98H239.941V340.715ZM263.968 328.321H270.273L271.449 300.977H262.793L263.968 328.321ZM267.067 341.215C269.739 341.215 271.93 339.103 271.93 336.436C271.93 333.712 269.739 331.6 267.067 331.6C264.396 331.6 262.205 333.712 262.205 336.436C262.205 339.103 264.396 341.215 267.067 341.215ZM301.642 341.327C310.672 341.327 316.229 335.713 316.229 328.655C316.229 320.429 311.473 317.817 302.23 316.594C296.352 315.705 295.123 314.371 295.123 311.537C295.123 308.869 297.047 307.035 300.841 307.035C304.634 307.035 306.665 308.702 307.199 312.315H315.16C314.466 304.423 309.443 300.421 300.841 300.421C292.398 300.421 286.948 305.479 286.948 312.259C286.948 319.929 290.956 322.986 300.734 324.32C306.344 325.209 307.947 326.32 307.947 329.488C307.947 332.601 305.436 334.768 301.642 334.768C295.978 334.768 294.536 331.823 294.162 328.266H285.88C286.361 336.213 291.169 341.327 301.642 341.327ZM338.335 341.327C350.25 341.327 358.051 332.712 358.051 320.874V320.429C358.051 308.48 349.876 300.421 338.389 300.421C327.061 300.421 318.726 308.813 318.726 320.651V321.096C318.726 332.712 326.366 341.327 338.335 341.327ZM338.495 334.157C332.244 334.157 327.756 329.155 327.756 321.041V320.596C327.756 312.593 331.763 307.535 338.389 307.535C345.068 307.535 349.021 312.815 349.021 320.54V320.985C349.021 328.988 344.961 334.157 338.495 334.157ZM362.722 340.715H386.926V333.657H371.378V300.977H362.722V340.715ZM391.017 340.715H403.467C416.878 340.715 423.557 332.767 423.557 320.874V320.429C423.557 308.536 416.932 300.977 403.52 300.977H391.017V340.715ZM399.673 333.712V307.98H403.093C411.161 307.98 414.527 312.37 414.527 320.54V320.985C414.527 329.21 410.894 333.712 403.2 333.712H399.673ZM456.058 341.327C467.973 341.327 475.774 332.712 475.774 320.874V320.429C475.774 308.48 467.599 300.421 456.112 300.421C444.784 300.421 436.449 308.813 436.449 320.651V321.096C436.449 332.712 444.089 341.327 456.058 341.327ZM456.218 334.157C449.967 334.157 445.479 329.155 445.479 321.041V320.596C445.479 312.593 449.486 307.535 456.112 307.535C462.79 307.535 466.744 312.815 466.744 320.54V320.985C466.744 328.988 462.684 334.157 456.218 334.157ZM495.886 341.327C506.199 341.327 512.023 335.713 512.023 324.875V300.977H503.313V324.32C503.313 331.6 501.069 334.157 495.94 334.157C490.703 334.157 488.833 331.267 488.833 324.653V300.977H480.124V325.209C480.124 335.769 485.841 341.327 495.886 341.327ZM525.823 340.715H534.532V307.98H544.844V300.977H515.51V307.98H525.823V340.715ZM549.849 328.321H556.154L557.33 300.977H548.674L549.849 328.321ZM552.948 341.215C555.62 341.215 557.811 339.103 557.811 336.436C557.811 333.712 555.62 331.6 552.948 331.6C550.277 331.6 548.086 333.712 548.086 336.436C548.086 339.103 550.277 341.215 552.948 341.215ZM15.7623 401.411C24.7923 401.411 30.3492 395.797 30.3492 388.739C30.3492 380.513 25.5938 377.901 16.3501 376.679C10.4726 375.789 9.24368 374.455 9.24368 371.621C9.24368 368.953 11.1672 367.119 14.9609 367.119C18.7545 367.119 20.7849 368.786 21.3192 372.399H29.2806C28.5859 364.507 23.5634 360.505 14.9609 360.505C6.51866 360.505 1.06863 365.563 1.06863 372.343C1.06863 380.013 5.07601 383.07 14.854 384.404C20.4643 385.293 22.0673 386.405 22.0673 389.573C22.0673 392.685 19.556 394.853 15.7623 394.853C10.0986 394.853 8.65593 391.907 8.28191 388.35H0C0.480885 396.298 5.28974 401.411 15.7623 401.411ZM52.4549 401.411C64.3701 401.411 72.1712 392.796 72.1712 380.958V380.513C72.1712 368.564 63.9961 360.505 52.5083 360.505C41.1808 360.505 32.8455 368.898 32.8455 380.736V381.18C32.8455 392.796 40.4862 401.411 52.4549 401.411ZM52.6152 394.241C46.3637 394.241 41.8754 389.239 41.8754 381.125V380.68C41.8754 372.677 45.8828 367.619 52.5083 367.619C59.1873 367.619 63.1412 372.899 63.1412 380.625V381.069C63.1412 389.072 59.0804 394.241 52.6152 394.241ZM76.8414 400.799H101.046V393.741H85.4973V361.061H76.8414V400.799ZM105.137 400.799H117.587C130.998 400.799 137.677 392.852 137.677 380.958V380.513C137.677 368.62 131.052 361.061 117.64 361.061H105.137V400.799ZM113.793 393.797V368.064H117.213C125.281 368.064 128.647 372.455 128.647 380.625V381.069C128.647 389.295 125.014 393.797 117.32 393.797H113.793ZM170.178 401.411C182.094 401.411 189.895 392.796 189.895 380.958V380.513C189.895 368.564 181.72 360.505 170.232 360.505C158.904 360.505 150.569 368.898 150.569 380.736V381.18C150.569 392.796 158.21 401.411 170.178 401.411ZM170.339 394.241C164.087 394.241 159.599 389.239 159.599 381.125V380.68C159.599 372.677 163.606 367.619 170.232 367.619C176.911 367.619 180.865 372.899 180.865 380.625V381.069C180.865 389.072 176.804 394.241 170.339 394.241ZM210.007 401.411C220.319 401.411 226.143 395.797 226.143 384.96V361.061H217.434V384.404C217.434 391.685 215.19 394.241 210.06 394.241C204.824 394.241 202.954 391.351 202.954 384.737V361.061H194.244V385.293C194.244 395.853 199.962 401.411 210.007 401.411ZM239.941 400.799H248.651V368.064H258.963V361.061H229.629V368.064H239.941V400.799ZM263.968 388.405H270.273L271.449 361.061H262.793L263.968 388.405ZM267.067 401.3C269.739 401.3 271.93 399.188 271.93 396.52C271.93 393.797 269.739 391.685 267.067 391.685C264.396 391.685 262.205 393.797 262.205 396.52C262.205 399.188 264.396 401.3 267.067 401.3ZM301.642 401.411C310.672 401.411 316.229 395.797 316.229 388.739C316.229 380.513 311.473 377.901 302.23 376.679C296.352 375.789 295.123 374.455 295.123 371.621C295.123 368.953 297.047 367.119 300.841 367.119C304.634 367.119 306.665 368.786 307.199 372.399H315.16C314.466 364.507 309.443 360.505 300.841 360.505C292.398 360.505 286.948 365.563 286.948 372.343C286.948 380.013 290.956 383.07 300.734 384.404C306.344 385.293 307.947 386.405 307.947 389.573C307.947 392.685 305.436 394.853 301.642 394.853C295.978 394.853 294.536 391.907 294.162 388.35H285.88C286.361 396.298 291.169 401.411 301.642 401.411ZM338.335 401.411C350.25 401.411 358.051 392.796 358.051 380.958V380.513C358.051 368.564 349.876 360.505 338.389 360.505C327.061 360.505 318.726 368.898 318.726 380.736V381.18C318.726 392.796 326.366 401.411 338.335 401.411ZM338.495 394.241C332.244 394.241 327.756 389.239 327.756 381.125V380.68C327.756 372.677 331.763 367.619 338.389 367.619C345.068 367.619 349.021 372.899 349.021 380.625V381.069C349.021 389.072 344.961 394.241 338.495 394.241ZM362.722 400.799H386.926V393.741H371.378V361.061H362.722V400.799ZM391.017 400.799H403.467C416.878 400.799 423.557 392.852 423.557 380.958V380.513C423.557 368.62 416.932 361.061 403.52 361.061H391.017V400.799ZM399.673 393.797V368.064H403.093C411.161 368.064 414.527 372.455 414.527 380.625V381.069C414.527 389.295 410.894 393.797 403.2 393.797H399.673ZM456.058 401.411C467.973 401.411 475.774 392.796 475.774 380.958V380.513C475.774 368.564 467.599 360.505 456.112 360.505C444.784 360.505 436.449 368.898 436.449 380.736V381.18C436.449 392.796 444.089 401.411 456.058 401.411ZM456.218 394.241C449.967 394.241 445.479 389.239 445.479 381.125V380.68C445.479 372.677 449.486 367.619 456.112 367.619C462.79 367.619 466.744 372.899 466.744 380.625V381.069C466.744 389.072 462.684 394.241 456.218 394.241ZM495.886 401.411C506.199 401.411 512.023 395.797 512.023 384.96V361.061H503.313V384.404C503.313 391.685 501.069 394.241 495.94 394.241C490.703 394.241 488.833 391.351 488.833 384.737V361.061H480.124V385.293C480.124 395.853 485.841 401.411 495.886 401.411ZM525.823 400.799H534.532V368.064H544.844V361.061H515.51V368.064H525.823V400.799ZM549.849 388.405H556.154L557.33 361.061H548.674L549.849 388.405ZM552.948 401.3C555.62 401.3 557.811 399.188 557.811 396.52C557.811 393.797 555.62 391.685 552.948 391.685C550.277 391.685 548.086 393.797 548.086 396.52C548.086 399.188 550.277 401.3 552.948 401.3ZM15.7623 461.495C24.7923 461.495 30.3492 455.882 30.3492 448.823C30.3492 440.598 25.5938 437.985 16.3501 436.763C10.4726 435.874 9.24368 434.54 9.24368 431.705C9.24368 429.037 11.1672 427.203 14.9609 427.203C18.7545 427.203 20.7849 428.871 21.3192 432.483H29.2806C28.5859 424.591 23.5634 420.59 14.9609 420.59C6.51866 420.59 1.06863 425.647 1.06863 432.428C1.06863 440.097 5.07601 443.154 14.854 444.488C20.4643 445.377 22.0673 446.489 22.0673 449.657C22.0673 452.769 19.556 454.937 15.7623 454.937C10.0986 454.937 8.65593 451.991 8.28191 448.434H0C0.480885 456.382 5.28974 461.495 15.7623 461.495ZM52.4549 461.495C64.3701 461.495 72.1712 452.88 72.1712 441.042V440.598C72.1712 428.648 63.9961 420.59 52.5083 420.59C41.1808 420.59 32.8455 428.982 32.8455 440.82V441.265C32.8455 452.88 40.4862 461.495 52.4549 461.495ZM52.6152 454.325C46.3637 454.325 41.8754 449.323 41.8754 441.209V440.764C41.8754 432.761 45.8828 427.704 52.5083 427.704C59.1873 427.704 63.1412 432.983 63.1412 440.709V441.153C63.1412 449.157 59.0804 454.325 52.6152 454.325ZM76.8414 460.884H101.046V453.825H85.4973V421.145H76.8414V460.884ZM105.137 460.884H117.587C130.998 460.884 137.677 452.936 137.677 441.042V440.598C137.677 428.704 131.052 421.145 117.64 421.145H105.137V460.884ZM113.793 453.881V428.148H117.213C125.281 428.148 128.647 432.539 128.647 440.709V441.153C128.647 449.379 125.014 453.881 117.32 453.881H113.793ZM170.178 461.495C182.094 461.495 189.895 452.88 189.895 441.042V440.598C189.895 428.648 181.72 420.59 170.232 420.59C158.904 420.59 150.569 428.982 150.569 440.82V441.265C150.569 452.88 158.21 461.495 170.178 461.495ZM170.339 454.325C164.087 454.325 159.599 449.323 159.599 441.209V440.764C159.599 432.761 163.606 427.704 170.232 427.704C176.911 427.704 180.865 432.983 180.865 440.709V441.153C180.865 449.157 176.804 454.325 170.339 454.325ZM210.007 461.495C220.319 461.495 226.143 455.882 226.143 445.044V421.145H217.434V444.488C217.434 451.769 215.19 454.325 210.06 454.325C204.824 454.325 202.954 451.435 202.954 444.822V421.145H194.244V445.377C194.244 455.937 199.962 461.495 210.007 461.495ZM239.941 460.884H248.651V428.148H258.963V421.145H229.629V428.148H239.941V460.884ZM263.968 448.49H270.273L271.449 421.145H262.793L263.968 448.49ZM267.067 461.384C269.739 461.384 271.93 459.272 271.93 456.604C271.93 453.881 269.739 451.769 267.067 451.769C264.396 451.769 262.205 453.881 262.205 456.604C262.205 459.272 264.396 461.384 267.067 461.384ZM301.642 461.495C310.672 461.495 316.229 455.882 316.229 448.823C316.229 440.598 311.473 437.985 302.23 436.763C296.352 435.874 295.123 434.54 295.123 431.705C295.123 429.037 297.047 427.203 300.841 427.203C304.634 427.203 306.665 428.871 307.199 432.483H315.16C314.466 424.591 309.443 420.59 300.841 420.59C292.398 420.59 286.948 425.647 286.948 432.428C286.948 440.097 290.956 443.154 300.734 444.488C306.344 445.377 307.947 446.489 307.947 449.657C307.947 452.769 305.436 454.937 301.642 454.937C295.978 454.937 294.536 451.991 294.162 448.434H285.88C286.361 456.382 291.169 461.495 301.642 461.495ZM338.335 461.495C350.25 461.495 358.051 452.88 358.051 441.042V440.598C358.051 428.648 349.876 420.59 338.389 420.59C327.061 420.59 318.726 428.982 318.726 440.82V441.265C318.726 452.88 326.366 461.495 338.335 461.495ZM338.495 454.325C332.244 454.325 327.756 449.323 327.756 441.209V440.764C327.756 432.761 331.763 427.704 338.389 427.704C345.068 427.704 349.021 432.983 349.021 440.709V441.153C349.021 449.157 344.961 454.325 338.495 454.325ZM362.722 460.884H386.926V453.825H371.378V421.145H362.722V460.884ZM391.017 460.884H403.467C416.878 460.884 423.557 452.936 423.557 441.042V440.598C423.557 428.704 416.932 421.145 403.52 421.145H391.017V460.884ZM399.673 453.881V428.148H403.093C411.161 428.148 414.527 432.539 414.527 440.709V441.153C414.527 449.379 410.894 453.881 403.2 453.881H399.673ZM456.058 461.495C467.973 461.495 475.774 452.88 475.774 441.042V440.598C475.774 428.648 467.599 420.59 456.112 420.59C444.784 420.59 436.449 428.982 436.449 440.82V441.265C436.449 452.88 444.089 461.495 456.058 461.495ZM456.218 454.325C449.967 454.325 445.479 449.323 445.479 441.209V440.764C445.479 432.761 449.486 427.704 456.112 427.704C462.79 427.704 466.744 432.983 466.744 440.709V441.153C466.744 449.157 462.684 454.325 456.218 454.325ZM495.886 461.495C506.199 461.495 512.023 455.882 512.023 445.044V421.145H503.313V444.488C503.313 451.769 501.069 454.325 495.94 454.325C490.703 454.325 488.833 451.435 488.833 444.822V421.145H480.124V445.377C480.124 455.937 485.841 461.495 495.886 461.495ZM525.823 460.884H534.532V428.148H544.844V421.145H515.51V428.148H525.823V460.884ZM549.849 448.49H556.154L557.33 421.145H548.674L549.849 448.49ZM552.948 461.384C555.62 461.384 557.811 459.272 557.811 456.604C557.811 453.881 555.62 451.769 552.948 451.769C550.277 451.769 548.086 453.881 548.086 456.604C548.086 459.272 550.277 461.384 552.948 461.384ZM15.7623 521.579C24.7923 521.579 30.3492 515.966 30.3492 508.907C30.3492 500.682 25.5938 498.07 16.3501 496.847C10.4726 495.958 9.24368 494.624 9.24368 491.789C9.24368 489.122 11.1672 487.288 14.9609 487.288C18.7545 487.288 20.7849 488.955 21.3192 492.568H29.2806C28.5859 484.675 23.5634 480.674 14.9609 480.674C6.51866 480.674 1.06863 485.731 1.06863 492.512C1.06863 500.182 5.07601 503.238 14.854 504.572C20.4643 505.462 22.0673 506.573 22.0673 509.741C22.0673 512.853 19.556 515.021 15.7623 515.021C10.0986 515.021 8.65593 512.075 8.28191 508.518H0C0.480885 516.466 5.28974 521.579 15.7623 521.579ZM52.4549 521.579C64.3701 521.579 72.1712 512.965 72.1712 501.126V500.682C72.1712 488.733 63.9961 480.674 52.5083 480.674C41.1808 480.674 32.8455 489.066 32.8455 500.904V501.349C32.8455 512.965 40.4862 521.579 52.4549 521.579ZM52.6152 514.41C46.3637 514.41 41.8754 509.408 41.8754 501.293V500.849C41.8754 492.845 45.8828 487.788 52.5083 487.788C59.1873 487.788 63.1412 493.068 63.1412 500.793V501.238C63.1412 509.241 59.0804 514.41 52.6152 514.41ZM76.8414 520.968H101.046V513.909H85.4973V481.23H76.8414V520.968ZM105.137 520.968H117.587C130.998 520.968 137.677 513.02 137.677 501.126V500.682C137.677 488.788 131.052 481.23 117.64 481.23H105.137V520.968ZM113.793 513.965V488.232H117.213C125.281 488.232 128.647 492.623 128.647 500.793V501.238C128.647 509.463 125.014 513.965 117.32 513.965H113.793ZM170.178 521.579C182.094 521.579 189.895 512.965 189.895 501.126V500.682C189.895 488.733 181.72 480.674 170.232 480.674C158.904 480.674 150.569 489.066 150.569 500.904V501.349C150.569 512.965 158.21 521.579 170.178 521.579ZM170.339 514.41C164.087 514.41 159.599 509.408 159.599 501.293V500.849C159.599 492.845 163.606 487.788 170.232 487.788C176.911 487.788 180.865 493.068 180.865 500.793V501.238C180.865 509.241 176.804 514.41 170.339 514.41ZM210.007 521.579C220.319 521.579 226.143 515.966 226.143 505.128V481.23H217.434V504.572C217.434 511.853 215.19 514.41 210.06 514.41C204.824 514.41 202.954 511.52 202.954 504.906V481.23H194.244V505.462C194.244 516.021 199.962 521.579 210.007 521.579ZM239.941 520.968H248.651V488.232H258.963V481.23H229.629V488.232H239.941V520.968ZM263.968 508.574H270.273L271.449 481.23H262.793L263.968 508.574ZM267.067 521.468C269.739 521.468 271.93 519.356 271.93 516.688C271.93 513.965 269.739 511.853 267.067 511.853C264.396 511.853 262.205 513.965 262.205 516.688C262.205 519.356 264.396 521.468 267.067 521.468ZM301.642 521.579C310.672 521.579 316.229 515.966 316.229 508.907C316.229 500.682 311.473 498.07 302.23 496.847C296.352 495.958 295.123 494.624 295.123 491.789C295.123 489.122 297.047 487.288 300.841 487.288C304.634 487.288 306.665 488.955 307.199 492.568H315.16C314.466 484.675 309.443 480.674 300.841 480.674C292.398 480.674 286.948 485.731 286.948 492.512C286.948 500.182 290.956 503.238 300.734 504.572C306.344 505.462 307.947 506.573 307.947 509.741C307.947 512.853 305.436 515.021 301.642 515.021C295.978 515.021 294.536 512.075 294.162 508.518H285.88C286.361 516.466 291.169 521.579 301.642 521.579ZM338.335 521.579C350.25 521.579 358.051 512.965 358.051 501.126V500.682C358.051 488.733 349.876 480.674 338.389 480.674C327.061 480.674 318.726 489.066 318.726 500.904V501.349C318.726 512.965 326.366 521.579 338.335 521.579ZM338.495 514.41C332.244 514.41 327.756 509.408 327.756 501.293V500.849C327.756 492.845 331.763 487.788 338.389 487.788C345.068 487.788 349.021 493.068 349.021 500.793V501.238C349.021 509.241 344.961 514.41 338.495 514.41ZM362.722 520.968H386.926V513.909H371.378V481.23H362.722V520.968ZM391.017 520.968H403.467C416.878 520.968 423.557 513.02 423.557 501.126V500.682C423.557 488.788 416.932 481.23 403.52 481.23H391.017V520.968ZM399.673 513.965V488.232H403.093C411.161 488.232 414.527 492.623 414.527 500.793V501.238C414.527 509.463 410.894 513.965 403.2 513.965H399.673ZM456.058 521.579C467.973 521.579 475.774 512.965 475.774 501.126V500.682C475.774 488.733 467.599 480.674 456.112 480.674C444.784 480.674 436.449 489.066 436.449 500.904V501.349C436.449 512.965 444.089 521.579 456.058 521.579ZM456.218 514.41C449.967 514.41 445.479 509.408 445.479 501.293V500.849C445.479 492.845 449.486 487.788 456.112 487.788C462.79 487.788 466.744 493.068 466.744 500.793V501.238C466.744 509.241 462.684 514.41 456.218 514.41ZM495.886 521.579C506.199 521.579 512.023 515.966 512.023 505.128V481.23H503.313V504.572C503.313 511.853 501.069 514.41 495.94 514.41C490.703 514.41 488.833 511.52 488.833 504.906V481.23H480.124V505.462C480.124 516.021 485.841 521.579 495.886 521.579ZM525.823 520.968H534.532V488.232H544.844V481.23H515.51V488.232H525.823V520.968ZM549.849 508.574H556.154L557.33 481.23H548.674L549.849 508.574ZM552.948 521.468C555.62 521.468 557.811 519.356 557.811 516.688C557.811 513.965 555.62 511.853 552.948 511.853C550.277 511.853 548.086 513.965 548.086 516.688C548.086 519.356 550.277 521.468 552.948 521.468ZM15.7623 581.663C24.7923 581.663 30.3492 576.05 30.3492 568.992C30.3492 560.766 25.5938 558.154 16.3501 556.931C10.4726 556.042 9.24368 554.708 9.24368 551.874C9.24368 549.206 11.1672 547.372 14.9609 547.372C18.7545 547.372 20.7849 549.039 21.3192 552.652H29.2806C28.5859 544.76 23.5634 540.758 14.9609 540.758C6.51866 540.758 1.06863 545.816 1.06863 552.596C1.06863 560.266 5.07601 563.323 14.854 564.657C20.4643 565.546 22.0673 566.657 22.0673 569.825C22.0673 572.938 19.556 575.105 15.7623 575.105C10.0986 575.105 8.65593 572.16 8.28191 568.603H0C0.480885 576.55 5.28974 581.663 15.7623 581.663ZM52.4549 581.663C64.3701 581.663 72.1712 573.049 72.1712 561.211V560.766C72.1712 548.817 63.9961 540.758 52.5083 540.758C41.1808 540.758 32.8455 549.15 32.8455 560.988V561.433C32.8455 573.049 40.4862 581.663 52.4549 581.663ZM52.6152 574.494C46.3637 574.494 41.8754 569.492 41.8754 561.377V560.933C41.8754 552.93 45.8828 547.872 52.5083 547.872C59.1873 547.872 63.1412 553.152 63.1412 560.877V561.322C63.1412 569.325 59.0804 574.494 52.6152 574.494ZM76.8414 581.052H101.046V573.994H85.4973V541.314H76.8414V581.052ZM105.137 581.052H117.587C130.998 581.052 137.677 573.104 137.677 561.211V560.766C137.677 548.872 131.052 541.314 117.64 541.314H105.137V581.052ZM113.793 574.049V548.317H117.213C125.281 548.317 128.647 552.707 128.647 560.877V561.322C128.647 569.547 125.014 574.049 117.32 574.049H113.793ZM170.178 581.663C182.094 581.663 189.895 573.049 189.895 561.211V560.766C189.895 548.817 181.72 540.758 170.232 540.758C158.904 540.758 150.569 549.15 150.569 560.988V561.433C150.569 573.049 158.21 581.663 170.178 581.663ZM170.339 574.494C164.087 574.494 159.599 569.492 159.599 561.377V560.933C159.599 552.93 163.606 547.872 170.232 547.872C176.911 547.872 180.865 553.152 180.865 560.877V561.322C180.865 569.325 176.804 574.494 170.339 574.494ZM210.007 581.663C220.319 581.663 226.143 576.05 226.143 565.212V541.314H217.434V564.657C217.434 571.937 215.19 574.494 210.06 574.494C204.824 574.494 202.954 571.604 202.954 564.99V541.314H194.244V565.546C194.244 576.106 199.962 581.663 210.007 581.663ZM239.941 581.052H248.651V548.317H258.963V541.314H229.629V548.317H239.941V581.052ZM263.968 568.658H270.273L271.449 541.314H262.793L263.968 568.658ZM267.067 581.552C269.739 581.552 271.93 579.44 271.93 576.773C271.93 574.049 269.739 571.937 267.067 571.937C264.396 571.937 262.205 574.049 262.205 576.773C262.205 579.44 264.396 581.552 267.067 581.552ZM301.642 581.663C310.672 581.663 316.229 576.05 316.229 568.992C316.229 560.766 311.473 558.154 302.23 556.931C296.352 556.042 295.123 554.708 295.123 551.874C295.123 549.206 297.047 547.372 300.841 547.372C304.634 547.372 306.665 549.039 307.199 552.652H315.16C314.466 544.76 309.443 540.758 300.841 540.758C292.398 540.758 286.948 545.816 286.948 552.596C286.948 560.266 290.956 563.323 300.734 564.657C306.344 565.546 307.947 566.657 307.947 569.825C307.947 572.938 305.436 575.105 301.642 575.105C295.978 575.105 294.536 572.16 294.162 568.603H285.88C286.361 576.55 291.169 581.663 301.642 581.663ZM338.335 581.663C350.25 581.663 358.051 573.049 358.051 561.211V560.766C358.051 548.817 349.876 540.758 338.389 540.758C327.061 540.758 318.726 549.15 318.726 560.988V561.433C318.726 573.049 326.366 581.663 338.335 581.663ZM338.495 574.494C332.244 574.494 327.756 569.492 327.756 561.377V560.933C327.756 552.93 331.763 547.872 338.389 547.872C345.068 547.872 349.021 553.152 349.021 560.877V561.322C349.021 569.325 344.961 574.494 338.495 574.494ZM362.722 581.052H386.926V573.994H371.378V541.314H362.722V581.052ZM391.017 581.052H403.467C416.878 581.052 423.557 573.104 423.557 561.211V560.766C423.557 548.872 416.932 541.314 403.52 541.314H391.017V581.052ZM399.673 574.049V548.317H403.093C411.161 548.317 414.527 552.707 414.527 560.877V561.322C414.527 569.547 410.894 574.049 403.2 574.049H399.673ZM456.058 581.663C467.973 581.663 475.774 573.049 475.774 561.211V560.766C475.774 548.817 467.599 540.758 456.112 540.758C444.784 540.758 436.449 549.15 436.449 560.988V561.433C436.449 573.049 444.089 581.663 456.058 581.663ZM456.218 574.494C449.967 574.494 445.479 569.492 445.479 561.377V560.933C445.479 552.93 449.486 547.872 456.112 547.872C462.79 547.872 466.744 553.152 466.744 560.877V561.322C466.744 569.325 462.684 574.494 456.218 574.494ZM495.886 581.663C506.199 581.663 512.023 576.05 512.023 565.212V541.314H503.313V564.657C503.313 571.937 501.069 574.494 495.94 574.494C490.703 574.494 488.833 571.604 488.833 564.99V541.314H480.124V565.546C480.124 576.106 485.841 581.663 495.886 581.663ZM525.823 581.052H534.532V548.317H544.844V541.314H515.51V548.317H525.823V581.052ZM549.849 568.658H556.154L557.33 541.314H548.674L549.849 568.658ZM552.948 581.552C555.62 581.552 557.811 579.44 557.811 576.773C557.811 574.049 555.62 571.937 552.948 571.937C550.277 571.937 548.086 574.049 548.086 576.773C548.086 579.44 550.277 581.552 552.948 581.552ZM15.7623 641.748C24.7923 641.748 30.3492 636.134 30.3492 629.076C30.3492 620.85 25.5938 618.238 16.3501 617.015C10.4726 616.126 9.24368 614.792 9.24368 611.958C9.24368 609.29 11.1672 607.456 14.9609 607.456C18.7545 607.456 20.7849 609.123 21.3192 612.736H29.2806C28.5859 604.844 23.5634 600.842 14.9609 600.842C6.51866 600.842 1.06863 605.9 1.06863 612.68C1.06863 620.35 5.07601 623.407 14.854 624.741C20.4643 625.63 22.0673 626.742 22.0673 629.91C22.0673 633.022 19.556 635.189 15.7623 635.189C10.0986 635.189 8.65593 632.244 8.28191 628.687H0C0.480885 636.634 5.28974 641.748 15.7623 641.748ZM52.4549 641.748C64.3701 641.748 72.1712 633.133 72.1712 621.295V620.85C72.1712 608.901 63.9961 600.842 52.5083 600.842C41.1808 600.842 32.8455 609.235 32.8455 621.073V621.517C32.8455 633.133 40.4862 641.748 52.4549 641.748ZM52.6152 634.578C46.3637 634.578 41.8754 629.576 41.8754 621.462V621.017C41.8754 613.014 45.8828 607.956 52.5083 607.956C59.1873 607.956 63.1412 613.236 63.1412 620.961V621.406C63.1412 629.409 59.0804 634.578 52.6152 634.578ZM76.8414 641.136H101.046V634.078H85.4973V601.398H76.8414V641.136ZM105.137 641.136H117.587C130.998 641.136 137.677 633.189 137.677 621.295V620.85C137.677 608.957 131.052 601.398 117.64 601.398H105.137V641.136ZM113.793 634.133V608.401H117.213C125.281 608.401 128.647 612.792 128.647 620.961V621.406C128.647 629.632 125.014 634.133 117.32 634.133H113.793ZM170.178 641.748C182.094 641.748 189.895 633.133 189.895 621.295V620.85C189.895 608.901 181.72 600.842 170.232 600.842C158.904 600.842 150.569 609.235 150.569 621.073V621.517C150.569 633.133 158.21 641.748 170.178 641.748ZM170.339 634.578C164.087 634.578 159.599 629.576 159.599 621.462V621.017C159.599 613.014 163.606 607.956 170.232 607.956C176.911 607.956 180.865 613.236 180.865 620.961V621.406C180.865 629.409 176.804 634.578 170.339 634.578ZM210.007 641.748C220.319 641.748 226.143 636.134 226.143 625.297V601.398H217.434V624.741C217.434 632.022 215.19 634.578 210.06 634.578C204.824 634.578 202.954 631.688 202.954 625.074V601.398H194.244V625.63C194.244 636.19 199.962 641.748 210.007 641.748ZM239.941 641.136H248.651V608.401H258.963V601.398H229.629V608.401H239.941V641.136ZM263.968 628.742H270.273L271.449 601.398H262.793L263.968 628.742ZM267.067 641.636C269.739 641.636 271.93 639.524 271.93 636.857C271.93 634.133 269.739 632.021 267.067 632.021C264.396 632.021 262.205 634.133 262.205 636.857C262.205 639.524 264.396 641.636 267.067 641.636ZM301.642 641.748C310.672 641.748 316.229 636.134 316.229 629.076C316.229 620.85 311.473 618.238 302.23 617.015C296.352 616.126 295.123 614.792 295.123 611.958C295.123 609.29 297.047 607.456 300.841 607.456C304.634 607.456 306.665 609.123 307.199 612.736H315.16C314.466 604.844 309.443 600.842 300.841 600.842C292.398 600.842 286.948 605.9 286.948 612.68C286.948 620.35 290.956 623.407 300.734 624.741C306.344 625.63 307.947 626.742 307.947 629.91C307.947 633.022 305.436 635.189 301.642 635.189C295.978 635.189 294.536 632.244 294.162 628.687H285.88C286.361 636.634 291.169 641.748 301.642 641.748ZM338.335 641.748C350.25 641.748 358.051 633.133 358.051 621.295V620.85C358.051 608.901 349.876 600.842 338.389 600.842C327.061 600.842 318.726 609.235 318.726 621.073V621.517C318.726 633.133 326.366 641.748 338.335 641.748ZM338.495 634.578C332.244 634.578 327.756 629.576 327.756 621.462V621.017C327.756 613.014 331.763 607.956 338.389 607.956C345.068 607.956 349.021 613.236 349.021 620.961V621.406C349.021 629.409 344.961 634.578 338.495 634.578ZM362.722 641.136H386.926V634.078H371.378V601.398H362.722V641.136ZM391.017 641.136H403.467C416.878 641.136 423.557 633.189 423.557 621.295V620.85C423.557 608.957 416.932 601.398 403.52 601.398H391.017V641.136ZM399.673 634.133V608.401H403.093C411.161 608.401 414.527 612.792 414.527 620.961V621.406C414.527 629.632 410.894 634.133 403.2 634.133H399.673ZM456.058 641.748C467.973 641.748 475.774 633.133 475.774 621.295V620.85C475.774 608.901 467.599 600.842 456.112 600.842C444.784 600.842 436.449 609.235 436.449 621.073V621.517C436.449 633.133 444.089 641.748 456.058 641.748ZM456.218 634.578C449.967 634.578 445.479 629.576 445.479 621.462V621.017C445.479 613.014 449.486 607.956 456.112 607.956C462.79 607.956 466.744 613.236 466.744 620.961V621.406C466.744 629.409 462.684 634.578 456.218 634.578ZM495.886 641.748C506.199 641.748 512.023 636.134 512.023 625.297V601.398H503.313V624.741C503.313 632.022 501.069 634.578 495.94 634.578C490.703 634.578 488.833 631.688 488.833 625.074V601.398H480.124V625.63C480.124 636.19 485.841 641.748 495.886 641.748ZM525.823 641.136H534.532V608.401H544.844V601.398H515.51V608.401H525.823V641.136ZM549.849 628.742H556.154L557.33 601.398H548.674L549.849 628.742ZM552.948 641.636C555.62 641.636 557.811 639.524 557.811 636.857C557.811 634.133 555.62 632.021 552.948 632.021C550.277 632.021 548.086 634.133 548.086 636.857C548.086 639.524 550.277 641.636 552.948 641.636Z" fill="#D71029"/>
</svg>
