<svg width="592" height="653" viewBox="0 0 592 653" fill="none" xmlns="http://www.w3.org/2000/svg">
<path d="M592 0H0V653H592V0Z" fill="#C1E6B1"/>
<path d="M19.293 48.649C29.264 48.649 35.4 42.69 35.4 35.197C35.4 26.465 30.149 23.692 19.942 22.394C13.452 21.45 12.095 20.034 12.095 17.025C12.095 14.193 14.219 12.246 18.408 12.246C22.597 12.246 24.839 14.016 25.429 17.851H34.22C33.453 9.473 27.907 5.225 18.408 5.225C9.086 5.225 3.068 10.594 3.068 17.792C3.068 25.934 7.493 29.179 18.29 30.595C24.485 31.539 26.255 32.719 26.255 36.082C26.255 39.386 23.482 41.687 19.293 41.687C13.039 41.687 11.446 38.56 11.033 34.784H1.888C2.419 43.221 7.729 48.649 19.293 48.649ZM57.1599 48.649C68.5469 48.649 74.9779 42.69 74.9779 31.185V5.815H65.3609V30.595C65.3609 38.324 62.8829 41.038 57.2189 41.038C51.4369 41.038 49.3719 37.97 49.3719 30.949V5.815H39.7549V31.539C39.7549 42.749 46.0679 48.649 57.1599 48.649ZM100.953 48.649C111.337 48.649 118.83 43.28 119.892 32.837H110.511C109.744 38.265 106.086 40.92 100.835 40.92C93.8731 40.92 89.8611 35.846 89.8611 27.114V26.642C89.8611 17.91 94.1091 12.718 100.776 12.718C106.086 12.718 108.918 15.432 109.626 20.506H119.42C118.417 10.122 110.865 5.166 100.717 5.166C88.7401 5.166 79.7721 13.898 79.7721 26.701V27.173C79.7721 40.153 87.1471 48.649 100.953 48.649ZM143.318 48.649C153.702 48.649 161.195 43.28 162.257 32.837H152.876C152.109 38.265 148.451 40.92 143.2 40.92C136.238 40.92 132.226 35.846 132.226 27.114V26.642C132.226 17.91 136.474 12.718 143.141 12.718C148.451 12.718 151.283 15.432 151.991 20.506H161.785C160.782 10.122 153.23 5.166 143.082 5.166C131.105 5.166 122.137 13.898 122.137 26.701V27.173C122.137 40.153 129.512 48.649 143.318 48.649ZM166.685 48H195.123V40.566H176.184V30.064H190.58V23.102H176.184V13.249H194.179V5.815H166.685V48ZM214.869 48.649C224.84 48.649 230.976 42.69 230.976 35.197C230.976 26.465 225.725 23.692 215.518 22.394C209.028 21.45 207.671 20.034 207.671 17.025C207.671 14.193 209.795 12.246 213.984 12.246C218.173 12.246 220.415 14.016 221.005 17.851H229.796C229.029 9.473 223.483 5.225 213.984 5.225C204.662 5.225 198.644 10.594 198.644 17.792C198.644 25.934 203.069 29.179 213.866 30.595C220.061 31.539 221.831 32.719 221.831 36.082C221.831 39.386 219.058 41.687 214.869 41.687C208.615 41.687 207.022 38.56 206.609 34.784H197.464C197.995 43.221 203.305 48.649 214.869 48.649ZM250.319 48.649C260.29 48.649 266.426 42.69 266.426 35.197C266.426 26.465 261.175 23.692 250.968 22.394C244.478 21.45 243.121 20.034 243.121 17.025C243.121 14.193 245.245 12.246 249.434 12.246C253.623 12.246 255.865 14.016 256.455 17.851H265.246C264.479 9.473 258.933 5.225 249.434 5.225C240.112 5.225 234.094 10.594 234.094 17.792C234.094 25.934 238.519 29.179 249.316 30.595C255.511 31.539 257.281 32.719 257.281 36.082C257.281 39.386 254.508 41.687 250.319 41.687C244.065 41.687 242.472 38.56 242.059 34.784H232.914C233.445 43.221 238.755 48.649 250.319 48.649ZM272.32 34.843H279.282L280.58 5.815H271.022L272.32 34.843ZM275.742 48.531C278.692 48.531 281.111 46.289 281.111 43.457C281.111 40.566 278.692 38.324 275.742 38.324C272.792 38.324 270.373 40.566 270.373 43.457C270.373 46.289 272.792 48.531 275.742 48.531ZM313.92 48.649C323.891 48.649 330.027 42.69 330.027 35.197C330.027 26.465 324.776 23.692 314.569 22.394C308.079 21.45 306.722 20.034 306.722 17.025C306.722 14.193 308.846 12.246 313.035 12.246C317.224 12.246 319.466 14.016 320.056 17.851H328.847C328.08 9.473 322.534 5.225 313.035 5.225C303.713 5.225 297.695 10.594 297.695 17.792C297.695 25.934 302.12 29.179 312.917 30.595C319.112 31.539 320.882 32.719 320.882 36.082C320.882 39.386 318.109 41.687 313.92 41.687C307.666 41.687 306.073 38.56 305.66 34.784H296.515C297.046 43.221 302.356 48.649 313.92 48.649ZM351.787 48.649C363.174 48.649 369.605 42.69 369.605 31.185V5.815H359.988V30.595C359.988 38.324 357.51 41.038 351.846 41.038C346.064 41.038 343.999 37.97 343.999 30.949V5.815H334.382V31.539C334.382 42.749 340.695 48.649 351.787 48.649ZM395.58 48.649C405.964 48.649 413.457 43.28 414.519 32.837H405.138C404.371 38.265 400.713 40.92 395.462 40.92C388.5 40.92 384.488 35.846 384.488 27.114V26.642C384.488 17.91 388.736 12.718 395.403 12.718C400.713 12.718 403.545 15.432 404.253 20.506H414.047C413.044 10.122 405.492 5.166 395.344 5.166C383.367 5.166 374.399 13.898 374.399 26.701V27.173C374.399 40.153 381.774 48.649 395.58 48.649ZM437.945 48.649C448.329 48.649 455.822 43.28 456.884 32.837H447.503C446.736 38.265 443.078 40.92 437.827 40.92C430.865 40.92 426.853 35.846 426.853 27.114V26.642C426.853 17.91 431.101 12.718 437.768 12.718C443.078 12.718 445.91 15.432 446.618 20.506H456.412C455.409 10.122 447.857 5.166 437.709 5.166C425.732 5.166 416.764 13.898 416.764 26.701V27.173C416.764 40.153 424.139 48.649 437.945 48.649ZM461.311 48H489.749V40.566H470.81V30.064H485.206V23.102H470.81V13.249H488.805V5.815H461.311V48ZM509.495 48.649C519.466 48.649 525.602 42.69 525.602 35.197C525.602 26.465 520.351 23.692 510.144 22.394C503.654 21.45 502.297 20.034 502.297 17.025C502.297 14.193 504.421 12.246 508.61 12.246C512.799 12.246 515.041 14.016 515.631 17.851H524.422C523.655 9.473 518.109 5.225 508.61 5.225C499.288 5.225 493.27 10.594 493.27 17.792C493.27 25.934 497.695 29.179 508.492 30.595C514.687 31.539 516.457 32.719 516.457 36.082C516.457 39.386 513.684 41.687 509.495 41.687C503.241 41.687 501.648 38.56 501.235 34.784H492.09C492.621 43.221 497.931 48.649 509.495 48.649ZM544.946 48.649C554.917 48.649 561.053 42.69 561.053 35.197C561.053 26.465 555.802 23.692 545.595 22.394C539.105 21.45 537.748 20.034 537.748 17.025C537.748 14.193 539.872 12.246 544.061 12.246C548.25 12.246 550.492 14.016 551.082 17.851H559.873C559.106 9.473 553.56 5.225 544.061 5.225C534.739 5.225 528.721 10.594 528.721 17.792C528.721 25.934 533.146 29.179 543.943 30.595C550.138 31.539 551.908 32.719 551.908 36.082C551.908 39.386 549.135 41.687 544.946 41.687C538.692 41.687 537.099 38.56 536.686 34.784H527.541C528.072 43.221 533.382 48.649 544.946 48.649ZM566.946 34.843H573.908L575.206 5.815H565.648L566.946 34.843ZM570.368 48.531C573.318 48.531 575.737 46.289 575.737 43.457C575.737 40.566 573.318 38.324 570.368 38.324C567.418 38.324 564.999 40.566 564.999 43.457C564.999 46.289 567.418 48.531 570.368 48.531ZM19.293 108.649C29.264 108.649 35.4 102.69 35.4 95.197C35.4 86.465 30.149 83.692 19.942 82.394C13.452 81.45 12.095 80.034 12.095 77.025C12.095 74.193 14.219 72.246 18.408 72.246C22.597 72.246 24.839 74.016 25.429 77.851H34.22C33.453 69.473 27.907 65.225 18.408 65.225C9.086 65.225 3.068 70.594 3.068 77.792C3.068 85.934 7.493 89.179 18.29 90.595C24.485 91.539 26.255 92.719 26.255 96.082C26.255 99.386 23.482 101.687 19.293 101.687C13.039 101.687 11.446 98.56 11.033 94.784H1.888C2.419 103.221 7.729 108.649 19.293 108.649ZM57.1599 108.649C68.5469 108.649 74.9779 102.69 74.9779 91.185V65.815H65.3609V90.595C65.3609 98.324 62.8829 101.038 57.2189 101.038C51.4369 101.038 49.3719 97.97 49.3719 90.949V65.815H39.7549V91.539C39.7549 102.749 46.0679 108.649 57.1599 108.649ZM100.953 108.649C111.337 108.649 118.83 103.28 119.892 92.837H110.511C109.744 98.265 106.086 100.92 100.835 100.92C93.8731 100.92 89.8611 95.846 89.8611 87.114V86.642C89.8611 77.91 94.1091 72.718 100.776 72.718C106.086 72.718 108.918 75.432 109.626 80.506H119.42C118.417 70.122 110.865 65.166 100.717 65.166C88.7401 65.166 79.7721 73.898 79.7721 86.701V87.173C79.7721 100.153 87.1471 108.649 100.953 108.649ZM143.318 108.649C153.702 108.649 161.195 103.28 162.257 92.837H152.876C152.109 98.265 148.451 100.92 143.2 100.92C136.238 100.92 132.226 95.846 132.226 87.114V86.642C132.226 77.91 136.474 72.718 143.141 72.718C148.451 72.718 151.283 75.432 151.991 80.506H161.785C160.782 70.122 153.23 65.166 143.082 65.166C131.105 65.166 122.137 73.898 122.137 86.701V87.173C122.137 100.153 129.512 108.649 143.318 108.649ZM166.685 108H195.123V100.566H176.184V90.064H190.58V83.102H176.184V73.249H194.179V65.815H166.685V108ZM214.869 108.649C224.84 108.649 230.976 102.69 230.976 95.197C230.976 86.465 225.725 83.692 215.518 82.394C209.028 81.45 207.671 80.034 207.671 77.025C207.671 74.193 209.795 72.246 213.984 72.246C218.173 72.246 220.415 74.016 221.005 77.851H229.796C229.029 69.473 223.483 65.225 213.984 65.225C204.662 65.225 198.644 70.594 198.644 77.792C198.644 85.934 203.069 89.179 213.866 90.595C220.061 91.539 221.831 92.719 221.831 96.082C221.831 99.386 219.058 101.687 214.869 101.687C208.615 101.687 207.022 98.56 206.609 94.784H197.464C197.995 103.221 203.305 108.649 214.869 108.649ZM250.319 108.649C260.29 108.649 266.426 102.69 266.426 95.197C266.426 86.465 261.175 83.692 250.968 82.394C244.478 81.45 243.121 80.034 243.121 77.025C243.121 74.193 245.245 72.246 249.434 72.246C253.623 72.246 255.865 74.016 256.455 77.851H265.246C264.479 69.473 258.933 65.225 249.434 65.225C240.112 65.225 234.094 70.594 234.094 77.792C234.094 85.934 238.519 89.179 249.316 90.595C255.511 91.539 257.281 92.719 257.281 96.082C257.281 99.386 254.508 101.687 250.319 101.687C244.065 101.687 242.472 98.56 242.059 94.784H232.914C233.445 103.221 238.755 108.649 250.319 108.649ZM272.32 94.843H279.282L280.58 65.815H271.022L272.32 94.843ZM275.742 108.531C278.692 108.531 281.111 106.289 281.111 103.457C281.111 100.566 278.692 98.324 275.742 98.324C272.792 98.324 270.373 100.566 270.373 103.457C270.373 106.289 272.792 108.531 275.742 108.531ZM313.92 108.649C323.891 108.649 330.027 102.69 330.027 95.197C330.027 86.465 324.776 83.692 314.569 82.394C308.079 81.45 306.722 80.034 306.722 77.025C306.722 74.193 308.846 72.246 313.035 72.246C317.224 72.246 319.466 74.016 320.056 77.851H328.847C328.08 69.473 322.534 65.225 313.035 65.225C303.713 65.225 297.695 70.594 297.695 77.792C297.695 85.934 302.12 89.179 312.917 90.595C319.112 91.539 320.882 92.719 320.882 96.082C320.882 99.386 318.109 101.687 313.92 101.687C307.666 101.687 306.073 98.56 305.66 94.784H296.515C297.046 103.221 302.356 108.649 313.92 108.649ZM351.787 108.649C363.174 108.649 369.605 102.69 369.605 91.185V65.815H359.988V90.595C359.988 98.324 357.51 101.038 351.846 101.038C346.064 101.038 343.999 97.97 343.999 90.949V65.815H334.382V91.539C334.382 102.749 340.695 108.649 351.787 108.649ZM395.58 108.649C405.964 108.649 413.457 103.28 414.519 92.837H405.138C404.371 98.265 400.713 100.92 395.462 100.92C388.5 100.92 384.488 95.846 384.488 87.114V86.642C384.488 77.91 388.736 72.718 395.403 72.718C400.713 72.718 403.545 75.432 404.253 80.506H414.047C413.044 70.122 405.492 65.166 395.344 65.166C383.367 65.166 374.399 73.898 374.399 86.701V87.173C374.399 100.153 381.774 108.649 395.58 108.649ZM437.945 108.649C448.329 108.649 455.822 103.28 456.884 92.837H447.503C446.736 98.265 443.078 100.92 437.827 100.92C430.865 100.92 426.853 95.846 426.853 87.114V86.642C426.853 77.91 431.101 72.718 437.768 72.718C443.078 72.718 445.91 75.432 446.618 80.506H456.412C455.409 70.122 447.857 65.166 437.709 65.166C425.732 65.166 416.764 73.898 416.764 86.701V87.173C416.764 100.153 424.139 108.649 437.945 108.649ZM461.311 108H489.749V100.566H470.81V90.064H485.206V83.102H470.81V73.249H488.805V65.815H461.311V108ZM509.495 108.649C519.466 108.649 525.602 102.69 525.602 95.197C525.602 86.465 520.351 83.692 510.144 82.394C503.654 81.45 502.297 80.034 502.297 77.025C502.297 74.193 504.421 72.246 508.61 72.246C512.799 72.246 515.041 74.016 515.631 77.851H524.422C523.655 69.473 518.109 65.225 508.61 65.225C499.288 65.225 493.27 70.594 493.27 77.792C493.27 85.934 497.695 89.179 508.492 90.595C514.687 91.539 516.457 92.719 516.457 96.082C516.457 99.386 513.684 101.687 509.495 101.687C503.241 101.687 501.648 98.56 501.235 94.784H492.09C492.621 103.221 497.931 108.649 509.495 108.649ZM544.946 108.649C554.917 108.649 561.053 102.69 561.053 95.197C561.053 86.465 555.802 83.692 545.595 82.394C539.105 81.45 537.748 80.034 537.748 77.025C537.748 74.193 539.872 72.246 544.061 72.246C548.25 72.246 550.492 74.016 551.082 77.851H559.873C559.106 69.473 553.56 65.225 544.061 65.225C534.739 65.225 528.721 70.594 528.721 77.792C528.721 85.934 533.146 89.179 543.943 90.595C550.138 91.539 551.908 92.719 551.908 96.082C551.908 99.386 549.135 101.687 544.946 101.687C538.692 101.687 537.099 98.56 536.686 94.784H527.541C528.072 103.221 533.382 108.649 544.946 108.649ZM566.946 94.843H573.908L575.206 65.815H565.648L566.946 94.843ZM570.368 108.531C573.318 108.531 575.737 106.289 575.737 103.457C575.737 100.566 573.318 98.324 570.368 98.324C567.418 98.324 564.999 100.566 564.999 103.457C564.999 106.289 567.418 108.531 570.368 108.531ZM19.293 168.649C29.264 168.649 35.4 162.69 35.4 155.197C35.4 146.465 30.149 143.692 19.942 142.394C13.452 141.45 12.095 140.034 12.095 137.025C12.095 134.193 14.219 132.246 18.408 132.246C22.597 132.246 24.839 134.016 25.429 137.851H34.22C33.453 129.473 27.907 125.225 18.408 125.225C9.086 125.225 3.068 130.594 3.068 137.792C3.068 145.934 7.493 149.179 18.29 150.595C24.485 151.539 26.255 152.719 26.255 156.082C26.255 159.386 23.482 161.687 19.293 161.687C13.039 161.687 11.446 158.56 11.033 154.784H1.888C2.419 163.221 7.729 168.649 19.293 168.649ZM57.1599 168.649C68.5469 168.649 74.9779 162.69 74.9779 151.185V125.815H65.3609V150.595C65.3609 158.324 62.8829 161.038 57.2189 161.038C51.4369 161.038 49.3719 157.97 49.3719 150.949V125.815H39.7549V151.539C39.7549 162.749 46.0679 168.649 57.1599 168.649ZM100.953 168.649C111.337 168.649 118.83 163.28 119.892 152.837H110.511C109.744 158.265 106.086 160.92 100.835 160.92C93.8731 160.92 89.8611 155.846 89.8611 147.114V146.642C89.8611 137.91 94.1091 132.718 100.776 132.718C106.086 132.718 108.918 135.432 109.626 140.506H119.42C118.417 130.122 110.865 125.166 100.717 125.166C88.7401 125.166 79.7721 133.898 79.7721 146.701V147.173C79.7721 160.153 87.1471 168.649 100.953 168.649ZM143.318 168.649C153.702 168.649 161.195 163.28 162.257 152.837H152.876C152.109 158.265 148.451 160.92 143.2 160.92C136.238 160.92 132.226 155.846 132.226 147.114V146.642C132.226 137.91 136.474 132.718 143.141 132.718C148.451 132.718 151.283 135.432 151.991 140.506H161.785C160.782 130.122 153.23 125.166 143.082 125.166C131.105 125.166 122.137 133.898 122.137 146.701V147.173C122.137 160.153 129.512 168.649 143.318 168.649ZM166.685 168H195.123V160.566H176.184V150.064H190.58V143.102H176.184V133.249H194.179V125.815H166.685V168ZM214.869 168.649C224.84 168.649 230.976 162.69 230.976 155.197C230.976 146.465 225.725 143.692 215.518 142.394C209.028 141.45 207.671 140.034 207.671 137.025C207.671 134.193 209.795 132.246 213.984 132.246C218.173 132.246 220.415 134.016 221.005 137.851H229.796C229.029 129.473 223.483 125.225 213.984 125.225C204.662 125.225 198.644 130.594 198.644 137.792C198.644 145.934 203.069 149.179 213.866 150.595C220.061 151.539 221.831 152.719 221.831 156.082C221.831 159.386 219.058 161.687 214.869 161.687C208.615 161.687 207.022 158.56 206.609 154.784H197.464C197.995 163.221 203.305 168.649 214.869 168.649ZM250.319 168.649C260.29 168.649 266.426 162.69 266.426 155.197C266.426 146.465 261.175 143.692 250.968 142.394C244.478 141.45 243.121 140.034 243.121 137.025C243.121 134.193 245.245 132.246 249.434 132.246C253.623 132.246 255.865 134.016 256.455 137.851H265.246C264.479 129.473 258.933 125.225 249.434 125.225C240.112 125.225 234.094 130.594 234.094 137.792C234.094 145.934 238.519 149.179 249.316 150.595C255.511 151.539 257.281 152.719 257.281 156.082C257.281 159.386 254.508 161.687 250.319 161.687C244.065 161.687 242.472 158.56 242.059 154.784H232.914C233.445 163.221 238.755 168.649 250.319 168.649ZM272.32 154.843H279.282L280.58 125.815H271.022L272.32 154.843ZM275.742 168.531C278.692 168.531 281.111 166.289 281.111 163.457C281.111 160.566 278.692 158.324 275.742 158.324C272.792 158.324 270.373 160.566 270.373 163.457C270.373 166.289 272.792 168.531 275.742 168.531ZM313.92 168.649C323.891 168.649 330.027 162.69 330.027 155.197C330.027 146.465 324.776 143.692 314.569 142.394C308.079 141.45 306.722 140.034 306.722 137.025C306.722 134.193 308.846 132.246 313.035 132.246C317.224 132.246 319.466 134.016 320.056 137.851H328.847C328.08 129.473 322.534 125.225 313.035 125.225C303.713 125.225 297.695 130.594 297.695 137.792C297.695 145.934 302.12 149.179 312.917 150.595C319.112 151.539 320.882 152.719 320.882 156.082C320.882 159.386 318.109 161.687 313.92 161.687C307.666 161.687 306.073 158.56 305.66 154.784H296.515C297.046 163.221 302.356 168.649 313.92 168.649ZM351.787 168.649C363.174 168.649 369.605 162.69 369.605 151.185V125.815H359.988V150.595C359.988 158.324 357.51 161.038 351.846 161.038C346.064 161.038 343.999 157.97 343.999 150.949V125.815H334.382V151.539C334.382 162.749 340.695 168.649 351.787 168.649ZM395.58 168.649C405.964 168.649 413.457 163.28 414.519 152.837H405.138C404.371 158.265 400.713 160.92 395.462 160.92C388.5 160.92 384.488 155.846 384.488 147.114V146.642C384.488 137.91 388.736 132.718 395.403 132.718C400.713 132.718 403.545 135.432 404.253 140.506H414.047C413.044 130.122 405.492 125.166 395.344 125.166C383.367 125.166 374.399 133.898 374.399 146.701V147.173C374.399 160.153 381.774 168.649 395.58 168.649ZM437.945 168.649C448.329 168.649 455.822 163.28 456.884 152.837H447.503C446.736 158.265 443.078 160.92 437.827 160.92C430.865 160.92 426.853 155.846 426.853 147.114V146.642C426.853 137.91 431.101 132.718 437.768 132.718C443.078 132.718 445.91 135.432 446.618 140.506H456.412C455.409 130.122 447.857 125.166 437.709 125.166C425.732 125.166 416.764 133.898 416.764 146.701V147.173C416.764 160.153 424.139 168.649 437.945 168.649ZM461.311 168H489.749V160.566H470.81V150.064H485.206V143.102H470.81V133.249H488.805V125.815H461.311V168ZM509.495 168.649C519.466 168.649 525.602 162.69 525.602 155.197C525.602 146.465 520.351 143.692 510.144 142.394C503.654 141.45 502.297 140.034 502.297 137.025C502.297 134.193 504.421 132.246 508.61 132.246C512.799 132.246 515.041 134.016 515.631 137.851H524.422C523.655 129.473 518.109 125.225 508.61 125.225C499.288 125.225 493.27 130.594 493.27 137.792C493.27 145.934 497.695 149.179 508.492 150.595C514.687 151.539 516.457 152.719 516.457 156.082C516.457 159.386 513.684 161.687 509.495 161.687C503.241 161.687 501.648 158.56 501.235 154.784H492.09C492.621 163.221 497.931 168.649 509.495 168.649ZM544.946 168.649C554.917 168.649 561.053 162.69 561.053 155.197C561.053 146.465 555.802 143.692 545.595 142.394C539.105 141.45 537.748 140.034 537.748 137.025C537.748 134.193 539.872 132.246 544.061 132.246C548.25 132.246 550.492 134.016 551.082 137.851H559.873C559.106 129.473 553.56 125.225 544.061 125.225C534.739 125.225 528.721 130.594 528.721 137.792C528.721 145.934 533.146 149.179 543.943 150.595C550.138 151.539 551.908 152.719 551.908 156.082C551.908 159.386 549.135 161.687 544.946 161.687C538.692 161.687 537.099 158.56 536.686 154.784H527.541C528.072 163.221 533.382 168.649 544.946 168.649ZM566.946 154.843H573.908L575.206 125.815H565.648L566.946 154.843ZM570.368 168.531C573.318 168.531 575.737 166.289 575.737 163.457C575.737 160.566 573.318 158.324 570.368 158.324C567.418 158.324 564.999 160.566 564.999 163.457C564.999 166.289 567.418 168.531 570.368 168.531ZM19.293 228.649C29.264 228.649 35.4 222.69 35.4 215.197C35.4 206.465 30.149 203.692 19.942 202.394C13.452 201.45 12.095 200.034 12.095 197.025C12.095 194.193 14.219 192.246 18.408 192.246C22.597 192.246 24.839 194.016 25.429 197.851H34.22C33.453 189.473 27.907 185.225 18.408 185.225C9.086 185.225 3.068 190.594 3.068 197.792C3.068 205.934 7.493 209.179 18.29 210.595C24.485 211.539 26.255 212.719 26.255 216.082C26.255 219.386 23.482 221.687 19.293 221.687C13.039 221.687 11.446 218.56 11.033 214.784H1.888C2.419 223.221 7.729 228.649 19.293 228.649ZM57.1599 228.649C68.5469 228.649 74.9779 222.69 74.9779 211.185V185.815H65.3609V210.595C65.3609 218.324 62.8829 221.038 57.2189 221.038C51.4369 221.038 49.3719 217.97 49.3719 210.949V185.815H39.7549V211.539C39.7549 222.749 46.0679 228.649 57.1599 228.649ZM100.953 228.649C111.337 228.649 118.83 223.28 119.892 212.837H110.511C109.744 218.265 106.086 220.92 100.835 220.92C93.8731 220.92 89.8611 215.846 89.8611 207.114V206.642C89.8611 197.91 94.1091 192.718 100.776 192.718C106.086 192.718 108.918 195.432 109.626 200.506H119.42C118.417 190.122 110.865 185.166 100.717 185.166C88.7401 185.166 79.7721 193.898 79.7721 206.701V207.173C79.7721 220.153 87.1471 228.649 100.953 228.649ZM143.318 228.649C153.702 228.649 161.195 223.28 162.257 212.837H152.876C152.109 218.265 148.451 220.92 143.2 220.92C136.238 220.92 132.226 215.846 132.226 207.114V206.642C132.226 197.91 136.474 192.718 143.141 192.718C148.451 192.718 151.283 195.432 151.991 200.506H161.785C160.782 190.122 153.23 185.166 143.082 185.166C131.105 185.166 122.137 193.898 122.137 206.701V207.173C122.137 220.153 129.512 228.649 143.318 228.649ZM166.685 228H195.123V220.566H176.184V210.064H190.58V203.102H176.184V193.249H194.179V185.815H166.685V228ZM214.869 228.649C224.84 228.649 230.976 222.69 230.976 215.197C230.976 206.465 225.725 203.692 215.518 202.394C209.028 201.45 207.671 200.034 207.671 197.025C207.671 194.193 209.795 192.246 213.984 192.246C218.173 192.246 220.415 194.016 221.005 197.851H229.796C229.029 189.473 223.483 185.225 213.984 185.225C204.662 185.225 198.644 190.594 198.644 197.792C198.644 205.934 203.069 209.179 213.866 210.595C220.061 211.539 221.831 212.719 221.831 216.082C221.831 219.386 219.058 221.687 214.869 221.687C208.615 221.687 207.022 218.56 206.609 214.784H197.464C197.995 223.221 203.305 228.649 214.869 228.649ZM250.319 228.649C260.29 228.649 266.426 222.69 266.426 215.197C266.426 206.465 261.175 203.692 250.968 202.394C244.478 201.45 243.121 200.034 243.121 197.025C243.121 194.193 245.245 192.246 249.434 192.246C253.623 192.246 255.865 194.016 256.455 197.851H265.246C264.479 189.473 258.933 185.225 249.434 185.225C240.112 185.225 234.094 190.594 234.094 197.792C234.094 205.934 238.519 209.179 249.316 210.595C255.511 211.539 257.281 212.719 257.281 216.082C257.281 219.386 254.508 221.687 250.319 221.687C244.065 221.687 242.472 218.56 242.059 214.784H232.914C233.445 223.221 238.755 228.649 250.319 228.649ZM272.32 214.843H279.282L280.58 185.815H271.022L272.32 214.843ZM275.742 228.531C278.692 228.531 281.111 226.289 281.111 223.457C281.111 220.566 278.692 218.324 275.742 218.324C272.792 218.324 270.373 220.566 270.373 223.457C270.373 226.289 272.792 228.531 275.742 228.531ZM313.92 228.649C323.891 228.649 330.027 222.69 330.027 215.197C330.027 206.465 324.776 203.692 314.569 202.394C308.079 201.45 306.722 200.034 306.722 197.025C306.722 194.193 308.846 192.246 313.035 192.246C317.224 192.246 319.466 194.016 320.056 197.851H328.847C328.08 189.473 322.534 185.225 313.035 185.225C303.713 185.225 297.695 190.594 297.695 197.792C297.695 205.934 302.12 209.179 312.917 210.595C319.112 211.539 320.882 212.719 320.882 216.082C320.882 219.386 318.109 221.687 313.92 221.687C307.666 221.687 306.073 218.56 305.66 214.784H296.515C297.046 223.221 302.356 228.649 313.92 228.649ZM351.787 228.649C363.174 228.649 369.605 222.69 369.605 211.185V185.815H359.988V210.595C359.988 218.324 357.51 221.038 351.846 221.038C346.064 221.038 343.999 217.97 343.999 210.949V185.815H334.382V211.539C334.382 222.749 340.695 228.649 351.787 228.649ZM395.58 228.649C405.964 228.649 413.457 223.28 414.519 212.837H405.138C404.371 218.265 400.713 220.92 395.462 220.92C388.5 220.92 384.488 215.846 384.488 207.114V206.642C384.488 197.91 388.736 192.718 395.403 192.718C400.713 192.718 403.545 195.432 404.253 200.506H414.047C413.044 190.122 405.492 185.166 395.344 185.166C383.367 185.166 374.399 193.898 374.399 206.701V207.173C374.399 220.153 381.774 228.649 395.58 228.649ZM437.945 228.649C448.329 228.649 455.822 223.28 456.884 212.837H447.503C446.736 218.265 443.078 220.92 437.827 220.92C430.865 220.92 426.853 215.846 426.853 207.114V206.642C426.853 197.91 431.101 192.718 437.768 192.718C443.078 192.718 445.91 195.432 446.618 200.506H456.412C455.409 190.122 447.857 185.166 437.709 185.166C425.732 185.166 416.764 193.898 416.764 206.701V207.173C416.764 220.153 424.139 228.649 437.945 228.649ZM461.311 228H489.749V220.566H470.81V210.064H485.206V203.102H470.81V193.249H488.805V185.815H461.311V228ZM509.495 228.649C519.466 228.649 525.602 222.69 525.602 215.197C525.602 206.465 520.351 203.692 510.144 202.394C503.654 201.45 502.297 200.034 502.297 197.025C502.297 194.193 504.421 192.246 508.61 192.246C512.799 192.246 515.041 194.016 515.631 197.851H524.422C523.655 189.473 518.109 185.225 508.61 185.225C499.288 185.225 493.27 190.594 493.27 197.792C493.27 205.934 497.695 209.179 508.492 210.595C514.687 211.539 516.457 212.719 516.457 216.082C516.457 219.386 513.684 221.687 509.495 221.687C503.241 221.687 501.648 218.56 501.235 214.784H492.09C492.621 223.221 497.931 228.649 509.495 228.649ZM544.946 228.649C554.917 228.649 561.053 222.69 561.053 215.197C561.053 206.465 555.802 203.692 545.595 202.394C539.105 201.45 537.748 200.034 537.748 197.025C537.748 194.193 539.872 192.246 544.061 192.246C548.25 192.246 550.492 194.016 551.082 197.851H559.873C559.106 189.473 553.56 185.225 544.061 185.225C534.739 185.225 528.721 190.594 528.721 197.792C528.721 205.934 533.146 209.179 543.943 210.595C550.138 211.539 551.908 212.719 551.908 216.082C551.908 219.386 549.135 221.687 544.946 221.687C538.692 221.687 537.099 218.56 536.686 214.784H527.541C528.072 223.221 533.382 228.649 544.946 228.649ZM566.946 214.843H573.908L575.206 185.815H565.648L566.946 214.843ZM570.368 228.531C573.318 228.531 575.737 226.289 575.737 223.457C575.737 220.566 573.318 218.324 570.368 218.324C567.418 218.324 564.999 220.566 564.999 223.457C564.999 226.289 567.418 228.531 570.368 228.531ZM19.293 288.649C29.264 288.649 35.4 282.69 35.4 275.197C35.4 266.465 30.149 263.692 19.942 262.394C13.452 261.45 12.095 260.034 12.095 257.025C12.095 254.193 14.219 252.246 18.408 252.246C22.597 252.246 24.839 254.016 25.429 257.851H34.22C33.453 249.473 27.907 245.225 18.408 245.225C9.086 245.225 3.068 250.594 3.068 257.792C3.068 265.934 7.493 269.179 18.29 270.595C24.485 271.539 26.255 272.719 26.255 276.082C26.255 279.386 23.482 281.687 19.293 281.687C13.039 281.687 11.446 278.56 11.033 274.784H1.888C2.419 283.221 7.729 288.649 19.293 288.649ZM57.1599 288.649C68.5469 288.649 74.9779 282.69 74.9779 271.185V245.815H65.3609V270.595C65.3609 278.324 62.8829 281.038 57.2189 281.038C51.4369 281.038 49.3719 277.97 49.3719 270.949V245.815H39.7549V271.539C39.7549 282.749 46.0679 288.649 57.1599 288.649ZM100.953 288.649C111.337 288.649 118.83 283.28 119.892 272.837H110.511C109.744 278.265 106.086 280.92 100.835 280.92C93.8731 280.92 89.8611 275.846 89.8611 267.114V266.642C89.8611 257.91 94.1091 252.718 100.776 252.718C106.086 252.718 108.918 255.432 109.626 260.506H119.42C118.417 250.122 110.865 245.166 100.717 245.166C88.7401 245.166 79.7721 253.898 79.7721 266.701V267.173C79.7721 280.153 87.1471 288.649 100.953 288.649ZM143.318 288.649C153.702 288.649 161.195 283.28 162.257 272.837H152.876C152.109 278.265 148.451 280.92 143.2 280.92C136.238 280.92 132.226 275.846 132.226 267.114V266.642C132.226 257.91 136.474 252.718 143.141 252.718C148.451 252.718 151.283 255.432 151.991 260.506H161.785C160.782 250.122 153.23 245.166 143.082 245.166C131.105 245.166 122.137 253.898 122.137 266.701V267.173C122.137 280.153 129.512 288.649 143.318 288.649ZM166.685 288H195.123V280.566H176.184V270.064H190.58V263.102H176.184V253.249H194.179V245.815H166.685V288ZM214.869 288.649C224.84 288.649 230.976 282.69 230.976 275.197C230.976 266.465 225.725 263.692 215.518 262.394C209.028 261.45 207.671 260.034 207.671 257.025C207.671 254.193 209.795 252.246 213.984 252.246C218.173 252.246 220.415 254.016 221.005 257.851H229.796C229.029 249.473 223.483 245.225 213.984 245.225C204.662 245.225 198.644 250.594 198.644 257.792C198.644 265.934 203.069 269.179 213.866 270.595C220.061 271.539 221.831 272.719 221.831 276.082C221.831 279.386 219.058 281.687 214.869 281.687C208.615 281.687 207.022 278.56 206.609 274.784H197.464C197.995 283.221 203.305 288.649 214.869 288.649ZM250.319 288.649C260.29 288.649 266.426 282.69 266.426 275.197C266.426 266.465 261.175 263.692 250.968 262.394C244.478 261.45 243.121 260.034 243.121 257.025C243.121 254.193 245.245 252.246 249.434 252.246C253.623 252.246 255.865 254.016 256.455 257.851H265.246C264.479 249.473 258.933 245.225 249.434 245.225C240.112 245.225 234.094 250.594 234.094 257.792C234.094 265.934 238.519 269.179 249.316 270.595C255.511 271.539 257.281 272.719 257.281 276.082C257.281 279.386 254.508 281.687 250.319 281.687C244.065 281.687 242.472 278.56 242.059 274.784H232.914C233.445 283.221 238.755 288.649 250.319 288.649ZM272.32 274.843H279.282L280.58 245.815H271.022L272.32 274.843ZM275.742 288.531C278.692 288.531 281.111 286.289 281.111 283.457C281.111 280.566 278.692 278.324 275.742 278.324C272.792 278.324 270.373 280.566 270.373 283.457C270.373 286.289 272.792 288.531 275.742 288.531ZM313.92 288.649C323.891 288.649 330.027 282.69 330.027 275.197C330.027 266.465 324.776 263.692 314.569 262.394C308.079 261.45 306.722 260.034 306.722 257.025C306.722 254.193 308.846 252.246 313.035 252.246C317.224 252.246 319.466 254.016 320.056 257.851H328.847C328.08 249.473 322.534 245.225 313.035 245.225C303.713 245.225 297.695 250.594 297.695 257.792C297.695 265.934 302.12 269.179 312.917 270.595C319.112 271.539 320.882 272.719 320.882 276.082C320.882 279.386 318.109 281.687 313.92 281.687C307.666 281.687 306.073 278.56 305.66 274.784H296.515C297.046 283.221 302.356 288.649 313.92 288.649ZM351.787 288.649C363.174 288.649 369.605 282.69 369.605 271.185V245.815H359.988V270.595C359.988 278.324 357.51 281.038 351.846 281.038C346.064 281.038 343.999 277.97 343.999 270.949V245.815H334.382V271.539C334.382 282.749 340.695 288.649 351.787 288.649ZM395.58 288.649C405.964 288.649 413.457 283.28 414.519 272.837H405.138C404.371 278.265 400.713 280.92 395.462 280.92C388.5 280.92 384.488 275.846 384.488 267.114V266.642C384.488 257.91 388.736 252.718 395.403 252.718C400.713 252.718 403.545 255.432 404.253 260.506H414.047C413.044 250.122 405.492 245.166 395.344 245.166C383.367 245.166 374.399 253.898 374.399 266.701V267.173C374.399 280.153 381.774 288.649 395.58 288.649ZM437.945 288.649C448.329 288.649 455.822 283.28 456.884 272.837H447.503C446.736 278.265 443.078 280.92 437.827 280.92C430.865 280.92 426.853 275.846 426.853 267.114V266.642C426.853 257.91 431.101 252.718 437.768 252.718C443.078 252.718 445.91 255.432 446.618 260.506H456.412C455.409 250.122 447.857 245.166 437.709 245.166C425.732 245.166 416.764 253.898 416.764 266.701V267.173C416.764 280.153 424.139 288.649 437.945 288.649ZM461.311 288H489.749V280.566H470.81V270.064H485.206V263.102H470.81V253.249H488.805V245.815H461.311V288ZM509.495 288.649C519.466 288.649 525.602 282.69 525.602 275.197C525.602 266.465 520.351 263.692 510.144 262.394C503.654 261.45 502.297 260.034 502.297 257.025C502.297 254.193 504.421 252.246 508.61 252.246C512.799 252.246 515.041 254.016 515.631 257.851H524.422C523.655 249.473 518.109 245.225 508.61 245.225C499.288 245.225 493.27 250.594 493.27 257.792C493.27 265.934 497.695 269.179 508.492 270.595C514.687 271.539 516.457 272.719 516.457 276.082C516.457 279.386 513.684 281.687 509.495 281.687C503.241 281.687 501.648 278.56 501.235 274.784H492.09C492.621 283.221 497.931 288.649 509.495 288.649ZM544.946 288.649C554.917 288.649 561.053 282.69 561.053 275.197C561.053 266.465 555.802 263.692 545.595 262.394C539.105 261.45 537.748 260.034 537.748 257.025C537.748 254.193 539.872 252.246 544.061 252.246C548.25 252.246 550.492 254.016 551.082 257.851H559.873C559.106 249.473 553.56 245.225 544.061 245.225C534.739 245.225 528.721 250.594 528.721 257.792C528.721 265.934 533.146 269.179 543.943 270.595C550.138 271.539 551.908 272.719 551.908 276.082C551.908 279.386 549.135 281.687 544.946 281.687C538.692 281.687 537.099 278.56 536.686 274.784H527.541C528.072 283.221 533.382 288.649 544.946 288.649ZM566.946 274.843H573.908L575.206 245.815H565.648L566.946 274.843ZM570.368 288.531C573.318 288.531 575.737 286.289 575.737 283.457C575.737 280.566 573.318 278.324 570.368 278.324C567.418 278.324 564.999 280.566 564.999 283.457C564.999 286.289 567.418 288.531 570.368 288.531ZM19.293 348.649C29.264 348.649 35.4 342.69 35.4 335.197C35.4 326.465 30.149 323.692 19.942 322.394C13.452 321.45 12.095 320.034 12.095 317.025C12.095 314.193 14.219 312.246 18.408 312.246C22.597 312.246 24.839 314.016 25.429 317.851H34.22C33.453 309.473 27.907 305.225 18.408 305.225C9.086 305.225 3.068 310.594 3.068 317.792C3.068 325.934 7.493 329.179 18.29 330.595C24.485 331.539 26.255 332.719 26.255 336.082C26.255 339.386 23.482 341.687 19.293 341.687C13.039 341.687 11.446 338.56 11.033 334.784H1.888C2.419 343.221 7.729 348.649 19.293 348.649ZM57.1599 348.649C68.5469 348.649 74.9779 342.69 74.9779 331.185V305.815H65.3609V330.595C65.3609 338.324 62.8829 341.038 57.2189 341.038C51.4369 341.038 49.3719 337.97 49.3719 330.949V305.815H39.7549V331.539C39.7549 342.749 46.0679 348.649 57.1599 348.649ZM100.953 348.649C111.337 348.649 118.83 343.28 119.892 332.837H110.511C109.744 338.265 106.086 340.92 100.835 340.92C93.8731 340.92 89.8611 335.846 89.8611 327.114V326.642C89.8611 317.91 94.1091 312.718 100.776 312.718C106.086 312.718 108.918 315.432 109.626 320.506H119.42C118.417 310.122 110.865 305.166 100.717 305.166C88.7401 305.166 79.7721 313.898 79.7721 326.701V327.173C79.7721 340.153 87.1471 348.649 100.953 348.649ZM143.318 348.649C153.702 348.649 161.195 343.28 162.257 332.837H152.876C152.109 338.265 148.451 340.92 143.2 340.92C136.238 340.92 132.226 335.846 132.226 327.114V326.642C132.226 317.91 136.474 312.718 143.141 312.718C148.451 312.718 151.283 315.432 151.991 320.506H161.785C160.782 310.122 153.23 305.166 143.082 305.166C131.105 305.166 122.137 313.898 122.137 326.701V327.173C122.137 340.153 129.512 348.649 143.318 348.649ZM166.685 348H195.123V340.566H176.184V330.064H190.58V323.102H176.184V313.249H194.179V305.815H166.685V348ZM214.869 348.649C224.84 348.649 230.976 342.69 230.976 335.197C230.976 326.465 225.725 323.692 215.518 322.394C209.028 321.45 207.671 320.034 207.671 317.025C207.671 314.193 209.795 312.246 213.984 312.246C218.173 312.246 220.415 314.016 221.005 317.851H229.796C229.029 309.473 223.483 305.225 213.984 305.225C204.662 305.225 198.644 310.594 198.644 317.792C198.644 325.934 203.069 329.179 213.866 330.595C220.061 331.539 221.831 332.719 221.831 336.082C221.831 339.386 219.058 341.687 214.869 341.687C208.615 341.687 207.022 338.56 206.609 334.784H197.464C197.995 343.221 203.305 348.649 214.869 348.649ZM250.319 348.649C260.29 348.649 266.426 342.69 266.426 335.197C266.426 326.465 261.175 323.692 250.968 322.394C244.478 321.45 243.121 320.034 243.121 317.025C243.121 314.193 245.245 312.246 249.434 312.246C253.623 312.246 255.865 314.016 256.455 317.851H265.246C264.479 309.473 258.933 305.225 249.434 305.225C240.112 305.225 234.094 310.594 234.094 317.792C234.094 325.934 238.519 329.179 249.316 330.595C255.511 331.539 257.281 332.719 257.281 336.082C257.281 339.386 254.508 341.687 250.319 341.687C244.065 341.687 242.472 338.56 242.059 334.784H232.914C233.445 343.221 238.755 348.649 250.319 348.649ZM272.32 334.843H279.282L280.58 305.815H271.022L272.32 334.843ZM275.742 348.531C278.692 348.531 281.111 346.289 281.111 343.457C281.111 340.566 278.692 338.324 275.742 338.324C272.792 338.324 270.373 340.566 270.373 343.457C270.373 346.289 272.792 348.531 275.742 348.531ZM313.92 348.649C323.891 348.649 330.027 342.69 330.027 335.197C330.027 326.465 324.776 323.692 314.569 322.394C308.079 321.45 306.722 320.034 306.722 317.025C306.722 314.193 308.846 312.246 313.035 312.246C317.224 312.246 319.466 314.016 320.056 317.851H328.847C328.08 309.473 322.534 305.225 313.035 305.225C303.713 305.225 297.695 310.594 297.695 317.792C297.695 325.934 302.12 329.179 312.917 330.595C319.112 331.539 320.882 332.719 320.882 336.082C320.882 339.386 318.109 341.687 313.92 341.687C307.666 341.687 306.073 338.56 305.66 334.784H296.515C297.046 343.221 302.356 348.649 313.92 348.649ZM351.787 348.649C363.174 348.649 369.605 342.69 369.605 331.185V305.815H359.988V330.595C359.988 338.324 357.51 341.038 351.846 341.038C346.064 341.038 343.999 337.97 343.999 330.949V305.815H334.382V331.539C334.382 342.749 340.695 348.649 351.787 348.649ZM395.58 348.649C405.964 348.649 413.457 343.28 414.519 332.837H405.138C404.371 338.265 400.713 340.92 395.462 340.92C388.5 340.92 384.488 335.846 384.488 327.114V326.642C384.488 317.91 388.736 312.718 395.403 312.718C400.713 312.718 403.545 315.432 404.253 320.506H414.047C413.044 310.122 405.492 305.166 395.344 305.166C383.367 305.166 374.399 313.898 374.399 326.701V327.173C374.399 340.153 381.774 348.649 395.58 348.649ZM437.945 348.649C448.329 348.649 455.822 343.28 456.884 332.837H447.503C446.736 338.265 443.078 340.92 437.827 340.92C430.865 340.92 426.853 335.846 426.853 327.114V326.642C426.853 317.91 431.101 312.718 437.768 312.718C443.078 312.718 445.91 315.432 446.618 320.506H456.412C455.409 310.122 447.857 305.166 437.709 305.166C425.732 305.166 416.764 313.898 416.764 326.701V327.173C416.764 340.153 424.139 348.649 437.945 348.649ZM461.311 348H489.749V340.566H470.81V330.064H485.206V323.102H470.81V313.249H488.805V305.815H461.311V348ZM509.495 348.649C519.466 348.649 525.602 342.69 525.602 335.197C525.602 326.465 520.351 323.692 510.144 322.394C503.654 321.45 502.297 320.034 502.297 317.025C502.297 314.193 504.421 312.246 508.61 312.246C512.799 312.246 515.041 314.016 515.631 317.851H524.422C523.655 309.473 518.109 305.225 508.61 305.225C499.288 305.225 493.27 310.594 493.27 317.792C493.27 325.934 497.695 329.179 508.492 330.595C514.687 331.539 516.457 332.719 516.457 336.082C516.457 339.386 513.684 341.687 509.495 341.687C503.241 341.687 501.648 338.56 501.235 334.784H492.09C492.621 343.221 497.931 348.649 509.495 348.649ZM544.946 348.649C554.917 348.649 561.053 342.69 561.053 335.197C561.053 326.465 555.802 323.692 545.595 322.394C539.105 321.45 537.748 320.034 537.748 317.025C537.748 314.193 539.872 312.246 544.061 312.246C548.25 312.246 550.492 314.016 551.082 317.851H559.873C559.106 309.473 553.56 305.225 544.061 305.225C534.739 305.225 528.721 310.594 528.721 317.792C528.721 325.934 533.146 329.179 543.943 330.595C550.138 331.539 551.908 332.719 551.908 336.082C551.908 339.386 549.135 341.687 544.946 341.687C538.692 341.687 537.099 338.56 536.686 334.784H527.541C528.072 343.221 533.382 348.649 544.946 348.649ZM566.946 334.843H573.908L575.206 305.815H565.648L566.946 334.843ZM570.368 348.531C573.318 348.531 575.737 346.289 575.737 343.457C575.737 340.566 573.318 338.324 570.368 338.324C567.418 338.324 564.999 340.566 564.999 343.457C564.999 346.289 567.418 348.531 570.368 348.531ZM19.293 408.649C29.264 408.649 35.4 402.69 35.4 395.197C35.4 386.465 30.149 383.692 19.942 382.394C13.452 381.45 12.095 380.034 12.095 377.025C12.095 374.193 14.219 372.246 18.408 372.246C22.597 372.246 24.839 374.016 25.429 377.851H34.22C33.453 369.473 27.907 365.225 18.408 365.225C9.086 365.225 3.068 370.594 3.068 377.792C3.068 385.934 7.493 389.179 18.29 390.595C24.485 391.539 26.255 392.719 26.255 396.082C26.255 399.386 23.482 401.687 19.293 401.687C13.039 401.687 11.446 398.56 11.033 394.784H1.888C2.419 403.221 7.729 408.649 19.293 408.649ZM57.1599 408.649C68.5469 408.649 74.9779 402.69 74.9779 391.185V365.815H65.3609V390.595C65.3609 398.324 62.8829 401.038 57.2189 401.038C51.4369 401.038 49.3719 397.97 49.3719 390.949V365.815H39.7549V391.539C39.7549 402.749 46.0679 408.649 57.1599 408.649ZM100.953 408.649C111.337 408.649 118.83 403.28 119.892 392.837H110.511C109.744 398.265 106.086 400.92 100.835 400.92C93.8731 400.92 89.8611 395.846 89.8611 387.114V386.642C89.8611 377.91 94.1091 372.718 100.776 372.718C106.086 372.718 108.918 375.432 109.626 380.506H119.42C118.417 370.122 110.865 365.166 100.717 365.166C88.7401 365.166 79.7721 373.898 79.7721 386.701V387.173C79.7721 400.153 87.1471 408.649 100.953 408.649ZM143.318 408.649C153.702 408.649 161.195 403.28 162.257 392.837H152.876C152.109 398.265 148.451 400.92 143.2 400.92C136.238 400.92 132.226 395.846 132.226 387.114V386.642C132.226 377.91 136.474 372.718 143.141 372.718C148.451 372.718 151.283 375.432 151.991 380.506H161.785C160.782 370.122 153.23 365.166 143.082 365.166C131.105 365.166 122.137 373.898 122.137 386.701V387.173C122.137 400.153 129.512 408.649 143.318 408.649ZM166.685 408H195.123V400.566H176.184V390.064H190.58V383.102H176.184V373.249H194.179V365.815H166.685V408ZM214.869 408.649C224.84 408.649 230.976 402.69 230.976 395.197C230.976 386.465 225.725 383.692 215.518 382.394C209.028 381.45 207.671 380.034 207.671 377.025C207.671 374.193 209.795 372.246 213.984 372.246C218.173 372.246 220.415 374.016 221.005 377.851H229.796C229.029 369.473 223.483 365.225 213.984 365.225C204.662 365.225 198.644 370.594 198.644 377.792C198.644 385.934 203.069 389.179 213.866 390.595C220.061 391.539 221.831 392.719 221.831 396.082C221.831 399.386 219.058 401.687 214.869 401.687C208.615 401.687 207.022 398.56 206.609 394.784H197.464C197.995 403.221 203.305 408.649 214.869 408.649ZM250.319 408.649C260.29 408.649 266.426 402.69 266.426 395.197C266.426 386.465 261.175 383.692 250.968 382.394C244.478 381.45 243.121 380.034 243.121 377.025C243.121 374.193 245.245 372.246 249.434 372.246C253.623 372.246 255.865 374.016 256.455 377.851H265.246C264.479 369.473 258.933 365.225 249.434 365.225C240.112 365.225 234.094 370.594 234.094 377.792C234.094 385.934 238.519 389.179 249.316 390.595C255.511 391.539 257.281 392.719 257.281 396.082C257.281 399.386 254.508 401.687 250.319 401.687C244.065 401.687 242.472 398.56 242.059 394.784H232.914C233.445 403.221 238.755 408.649 250.319 408.649ZM272.32 394.843H279.282L280.58 365.815H271.022L272.32 394.843ZM275.742 408.531C278.692 408.531 281.111 406.289 281.111 403.457C281.111 400.566 278.692 398.324 275.742 398.324C272.792 398.324 270.373 400.566 270.373 403.457C270.373 406.289 272.792 408.531 275.742 408.531ZM313.92 408.649C323.891 408.649 330.027 402.69 330.027 395.197C330.027 386.465 324.776 383.692 314.569 382.394C308.079 381.45 306.722 380.034 306.722 377.025C306.722 374.193 308.846 372.246 313.035 372.246C317.224 372.246 319.466 374.016 320.056 377.851H328.847C328.08 369.473 322.534 365.225 313.035 365.225C303.713 365.225 297.695 370.594 297.695 377.792C297.695 385.934 302.12 389.179 312.917 390.595C319.112 391.539 320.882 392.719 320.882 396.082C320.882 399.386 318.109 401.687 313.92 401.687C307.666 401.687 306.073 398.56 305.66 394.784H296.515C297.046 403.221 302.356 408.649 313.92 408.649ZM351.787 408.649C363.174 408.649 369.605 402.69 369.605 391.185V365.815H359.988V390.595C359.988 398.324 357.51 401.038 351.846 401.038C346.064 401.038 343.999 397.97 343.999 390.949V365.815H334.382V391.539C334.382 402.749 340.695 408.649 351.787 408.649ZM395.58 408.649C405.964 408.649 413.457 403.28 414.519 392.837H405.138C404.371 398.265 400.713 400.92 395.462 400.92C388.5 400.92 384.488 395.846 384.488 387.114V386.642C384.488 377.91 388.736 372.718 395.403 372.718C400.713 372.718 403.545 375.432 404.253 380.506H414.047C413.044 370.122 405.492 365.166 395.344 365.166C383.367 365.166 374.399 373.898 374.399 386.701V387.173C374.399 400.153 381.774 408.649 395.58 408.649ZM437.945 408.649C448.329 408.649 455.822 403.28 456.884 392.837H447.503C446.736 398.265 443.078 400.92 437.827 400.92C430.865 400.92 426.853 395.846 426.853 387.114V386.642C426.853 377.91 431.101 372.718 437.768 372.718C443.078 372.718 445.91 375.432 446.618 380.506H456.412C455.409 370.122 447.857 365.166 437.709 365.166C425.732 365.166 416.764 373.898 416.764 386.701V387.173C416.764 400.153 424.139 408.649 437.945 408.649ZM461.311 408H489.749V400.566H470.81V390.064H485.206V383.102H470.81V373.249H488.805V365.815H461.311V408ZM509.495 408.649C519.466 408.649 525.602 402.69 525.602 395.197C525.602 386.465 520.351 383.692 510.144 382.394C503.654 381.45 502.297 380.034 502.297 377.025C502.297 374.193 504.421 372.246 508.61 372.246C512.799 372.246 515.041 374.016 515.631 377.851H524.422C523.655 369.473 518.109 365.225 508.61 365.225C499.288 365.225 493.27 370.594 493.27 377.792C493.27 385.934 497.695 389.179 508.492 390.595C514.687 391.539 516.457 392.719 516.457 396.082C516.457 399.386 513.684 401.687 509.495 401.687C503.241 401.687 501.648 398.56 501.235 394.784H492.09C492.621 403.221 497.931 408.649 509.495 408.649ZM544.946 408.649C554.917 408.649 561.053 402.69 561.053 395.197C561.053 386.465 555.802 383.692 545.595 382.394C539.105 381.45 537.748 380.034 537.748 377.025C537.748 374.193 539.872 372.246 544.061 372.246C548.25 372.246 550.492 374.016 551.082 377.851H559.873C559.106 369.473 553.56 365.225 544.061 365.225C534.739 365.225 528.721 370.594 528.721 377.792C528.721 385.934 533.146 389.179 543.943 390.595C550.138 391.539 551.908 392.719 551.908 396.082C551.908 399.386 549.135 401.687 544.946 401.687C538.692 401.687 537.099 398.56 536.686 394.784H527.541C528.072 403.221 533.382 408.649 544.946 408.649ZM566.946 394.843H573.908L575.206 365.815H565.648L566.946 394.843ZM570.368 408.531C573.318 408.531 575.737 406.289 575.737 403.457C575.737 400.566 573.318 398.324 570.368 398.324C567.418 398.324 564.999 400.566 564.999 403.457C564.999 406.289 567.418 408.531 570.368 408.531ZM19.293 468.649C29.264 468.649 35.4 462.69 35.4 455.197C35.4 446.465 30.149 443.692 19.942 442.394C13.452 441.45 12.095 440.034 12.095 437.025C12.095 434.193 14.219 432.246 18.408 432.246C22.597 432.246 24.839 434.016 25.429 437.851H34.22C33.453 429.473 27.907 425.225 18.408 425.225C9.086 425.225 3.068 430.594 3.068 437.792C3.068 445.934 7.493 449.179 18.29 450.595C24.485 451.539 26.255 452.719 26.255 456.082C26.255 459.386 23.482 461.687 19.293 461.687C13.039 461.687 11.446 458.56 11.033 454.784H1.888C2.419 463.221 7.729 468.649 19.293 468.649ZM57.1599 468.649C68.5469 468.649 74.9779 462.69 74.9779 451.185V425.815H65.3609V450.595C65.3609 458.324 62.8829 461.038 57.2189 461.038C51.4369 461.038 49.3719 457.97 49.3719 450.949V425.815H39.7549V451.539C39.7549 462.749 46.0679 468.649 57.1599 468.649ZM100.953 468.649C111.337 468.649 118.83 463.28 119.892 452.837H110.511C109.744 458.265 106.086 460.92 100.835 460.92C93.8731 460.92 89.8611 455.846 89.8611 447.114V446.642C89.8611 437.91 94.1091 432.718 100.776 432.718C106.086 432.718 108.918 435.432 109.626 440.506H119.42C118.417 430.122 110.865 425.166 100.717 425.166C88.7401 425.166 79.7721 433.898 79.7721 446.701V447.173C79.7721 460.153 87.1471 468.649 100.953 468.649ZM143.318 468.649C153.702 468.649 161.195 463.28 162.257 452.837H152.876C152.109 458.265 148.451 460.92 143.2 460.92C136.238 460.92 132.226 455.846 132.226 447.114V446.642C132.226 437.91 136.474 432.718 143.141 432.718C148.451 432.718 151.283 435.432 151.991 440.506H161.785C160.782 430.122 153.23 425.166 143.082 425.166C131.105 425.166 122.137 433.898 122.137 446.701V447.173C122.137 460.153 129.512 468.649 143.318 468.649ZM166.685 468H195.123V460.566H176.184V450.064H190.58V443.102H176.184V433.249H194.179V425.815H166.685V468ZM214.869 468.649C224.84 468.649 230.976 462.69 230.976 455.197C230.976 446.465 225.725 443.692 215.518 442.394C209.028 441.45 207.671 440.034 207.671 437.025C207.671 434.193 209.795 432.246 213.984 432.246C218.173 432.246 220.415 434.016 221.005 437.851H229.796C229.029 429.473 223.483 425.225 213.984 425.225C204.662 425.225 198.644 430.594 198.644 437.792C198.644 445.934 203.069 449.179 213.866 450.595C220.061 451.539 221.831 452.719 221.831 456.082C221.831 459.386 219.058 461.687 214.869 461.687C208.615 461.687 207.022 458.56 206.609 454.784H197.464C197.995 463.221 203.305 468.649 214.869 468.649ZM250.319 468.649C260.29 468.649 266.426 462.69 266.426 455.197C266.426 446.465 261.175 443.692 250.968 442.394C244.478 441.45 243.121 440.034 243.121 437.025C243.121 434.193 245.245 432.246 249.434 432.246C253.623 432.246 255.865 434.016 256.455 437.851H265.246C264.479 429.473 258.933 425.225 249.434 425.225C240.112 425.225 234.094 430.594 234.094 437.792C234.094 445.934 238.519 449.179 249.316 450.595C255.511 451.539 257.281 452.719 257.281 456.082C257.281 459.386 254.508 461.687 250.319 461.687C244.065 461.687 242.472 458.56 242.059 454.784H232.914C233.445 463.221 238.755 468.649 250.319 468.649ZM272.32 454.843H279.282L280.58 425.815H271.022L272.32 454.843ZM275.742 468.531C278.692 468.531 281.111 466.289 281.111 463.457C281.111 460.566 278.692 458.324 275.742 458.324C272.792 458.324 270.373 460.566 270.373 463.457C270.373 466.289 272.792 468.531 275.742 468.531ZM313.92 468.649C323.891 468.649 330.027 462.69 330.027 455.197C330.027 446.465 324.776 443.692 314.569 442.394C308.079 441.45 306.722 440.034 306.722 437.025C306.722 434.193 308.846 432.246 313.035 432.246C317.224 432.246 319.466 434.016 320.056 437.851H328.847C328.08 429.473 322.534 425.225 313.035 425.225C303.713 425.225 297.695 430.594 297.695 437.792C297.695 445.934 302.12 449.179 312.917 450.595C319.112 451.539 320.882 452.719 320.882 456.082C320.882 459.386 318.109 461.687 313.92 461.687C307.666 461.687 306.073 458.56 305.66 454.784H296.515C297.046 463.221 302.356 468.649 313.92 468.649ZM351.787 468.649C363.174 468.649 369.605 462.69 369.605 451.185V425.815H359.988V450.595C359.988 458.324 357.51 461.038 351.846 461.038C346.064 461.038 343.999 457.97 343.999 450.949V425.815H334.382V451.539C334.382 462.749 340.695 468.649 351.787 468.649ZM395.58 468.649C405.964 468.649 413.457 463.28 414.519 452.837H405.138C404.371 458.265 400.713 460.92 395.462 460.92C388.5 460.92 384.488 455.846 384.488 447.114V446.642C384.488 437.91 388.736 432.718 395.403 432.718C400.713 432.718 403.545 435.432 404.253 440.506H414.047C413.044 430.122 405.492 425.166 395.344 425.166C383.367 425.166 374.399 433.898 374.399 446.701V447.173C374.399 460.153 381.774 468.649 395.58 468.649ZM437.945 468.649C448.329 468.649 455.822 463.28 456.884 452.837H447.503C446.736 458.265 443.078 460.92 437.827 460.92C430.865 460.92 426.853 455.846 426.853 447.114V446.642C426.853 437.91 431.101 432.718 437.768 432.718C443.078 432.718 445.91 435.432 446.618 440.506H456.412C455.409 430.122 447.857 425.166 437.709 425.166C425.732 425.166 416.764 433.898 416.764 446.701V447.173C416.764 460.153 424.139 468.649 437.945 468.649ZM461.311 468H489.749V460.566H470.81V450.064H485.206V443.102H470.81V433.249H488.805V425.815H461.311V468ZM509.495 468.649C519.466 468.649 525.602 462.69 525.602 455.197C525.602 446.465 520.351 443.692 510.144 442.394C503.654 441.45 502.297 440.034 502.297 437.025C502.297 434.193 504.421 432.246 508.61 432.246C512.799 432.246 515.041 434.016 515.631 437.851H524.422C523.655 429.473 518.109 425.225 508.61 425.225C499.288 425.225 493.27 430.594 493.27 437.792C493.27 445.934 497.695 449.179 508.492 450.595C514.687 451.539 516.457 452.719 516.457 456.082C516.457 459.386 513.684 461.687 509.495 461.687C503.241 461.687 501.648 458.56 501.235 454.784H492.09C492.621 463.221 497.931 468.649 509.495 468.649ZM544.946 468.649C554.917 468.649 561.053 462.69 561.053 455.197C561.053 446.465 555.802 443.692 545.595 442.394C539.105 441.45 537.748 440.034 537.748 437.025C537.748 434.193 539.872 432.246 544.061 432.246C548.25 432.246 550.492 434.016 551.082 437.851H559.873C559.106 429.473 553.56 425.225 544.061 425.225C534.739 425.225 528.721 430.594 528.721 437.792C528.721 445.934 533.146 449.179 543.943 450.595C550.138 451.539 551.908 452.719 551.908 456.082C551.908 459.386 549.135 461.687 544.946 461.687C538.692 461.687 537.099 458.56 536.686 454.784H527.541C528.072 463.221 533.382 468.649 544.946 468.649ZM566.946 454.843H573.908L575.206 425.815H565.648L566.946 454.843ZM570.368 468.531C573.318 468.531 575.737 466.289 575.737 463.457C575.737 460.566 573.318 458.324 570.368 458.324C567.418 458.324 564.999 460.566 564.999 463.457C564.999 466.289 567.418 468.531 570.368 468.531ZM19.293 528.649C29.264 528.649 35.4 522.69 35.4 515.197C35.4 506.465 30.149 503.692 19.942 502.394C13.452 501.45 12.095 500.034 12.095 497.025C12.095 494.193 14.219 492.246 18.408 492.246C22.597 492.246 24.839 494.016 25.429 497.851H34.22C33.453 489.473 27.907 485.225 18.408 485.225C9.086 485.225 3.068 490.594 3.068 497.792C3.068 505.934 7.493 509.179 18.29 510.595C24.485 511.539 26.255 512.719 26.255 516.082C26.255 519.386 23.482 521.687 19.293 521.687C13.039 521.687 11.446 518.56 11.033 514.784H1.888C2.419 523.221 7.729 528.649 19.293 528.649ZM57.1599 528.649C68.5469 528.649 74.9779 522.69 74.9779 511.185V485.815H65.3609V510.595C65.3609 518.324 62.8829 521.038 57.2189 521.038C51.4369 521.038 49.3719 517.97 49.3719 510.949V485.815H39.7549V511.539C39.7549 522.749 46.0679 528.649 57.1599 528.649ZM100.953 528.649C111.337 528.649 118.83 523.28 119.892 512.837H110.511C109.744 518.265 106.086 520.92 100.835 520.92C93.8731 520.92 89.8611 515.846 89.8611 507.114V506.642C89.8611 497.91 94.1091 492.718 100.776 492.718C106.086 492.718 108.918 495.432 109.626 500.506H119.42C118.417 490.122 110.865 485.166 100.717 485.166C88.7401 485.166 79.7721 493.898 79.7721 506.701V507.173C79.7721 520.153 87.1471 528.649 100.953 528.649ZM143.318 528.649C153.702 528.649 161.195 523.28 162.257 512.837H152.876C152.109 518.265 148.451 520.92 143.2 520.92C136.238 520.92 132.226 515.846 132.226 507.114V506.642C132.226 497.91 136.474 492.718 143.141 492.718C148.451 492.718 151.283 495.432 151.991 500.506H161.785C160.782 490.122 153.23 485.166 143.082 485.166C131.105 485.166 122.137 493.898 122.137 506.701V507.173C122.137 520.153 129.512 528.649 143.318 528.649ZM166.685 528H195.123V520.566H176.184V510.064H190.58V503.102H176.184V493.249H194.179V485.815H166.685V528ZM214.869 528.649C224.84 528.649 230.976 522.69 230.976 515.197C230.976 506.465 225.725 503.692 215.518 502.394C209.028 501.45 207.671 500.034 207.671 497.025C207.671 494.193 209.795 492.246 213.984 492.246C218.173 492.246 220.415 494.016 221.005 497.851H229.796C229.029 489.473 223.483 485.225 213.984 485.225C204.662 485.225 198.644 490.594 198.644 497.792C198.644 505.934 203.069 509.179 213.866 510.595C220.061 511.539 221.831 512.719 221.831 516.082C221.831 519.386 219.058 521.687 214.869 521.687C208.615 521.687 207.022 518.56 206.609 514.784H197.464C197.995 523.221 203.305 528.649 214.869 528.649ZM250.319 528.649C260.29 528.649 266.426 522.69 266.426 515.197C266.426 506.465 261.175 503.692 250.968 502.394C244.478 501.45 243.121 500.034 243.121 497.025C243.121 494.193 245.245 492.246 249.434 492.246C253.623 492.246 255.865 494.016 256.455 497.851H265.246C264.479 489.473 258.933 485.225 249.434 485.225C240.112 485.225 234.094 490.594 234.094 497.792C234.094 505.934 238.519 509.179 249.316 510.595C255.511 511.539 257.281 512.719 257.281 516.082C257.281 519.386 254.508 521.687 250.319 521.687C244.065 521.687 242.472 518.56 242.059 514.784H232.914C233.445 523.221 238.755 528.649 250.319 528.649ZM272.32 514.843H279.282L280.58 485.815H271.022L272.32 514.843ZM275.742 528.531C278.692 528.531 281.111 526.289 281.111 523.457C281.111 520.566 278.692 518.324 275.742 518.324C272.792 518.324 270.373 520.566 270.373 523.457C270.373 526.289 272.792 528.531 275.742 528.531ZM313.92 528.649C323.891 528.649 330.027 522.69 330.027 515.197C330.027 506.465 324.776 503.692 314.569 502.394C308.079 501.45 306.722 500.034 306.722 497.025C306.722 494.193 308.846 492.246 313.035 492.246C317.224 492.246 319.466 494.016 320.056 497.851H328.847C328.08 489.473 322.534 485.225 313.035 485.225C303.713 485.225 297.695 490.594 297.695 497.792C297.695 505.934 302.12 509.179 312.917 510.595C319.112 511.539 320.882 512.719 320.882 516.082C320.882 519.386 318.109 521.687 313.92 521.687C307.666 521.687 306.073 518.56 305.66 514.784H296.515C297.046 523.221 302.356 528.649 313.92 528.649ZM351.787 528.649C363.174 528.649 369.605 522.69 369.605 511.185V485.815H359.988V510.595C359.988 518.324 357.51 521.038 351.846 521.038C346.064 521.038 343.999 517.97 343.999 510.949V485.815H334.382V511.539C334.382 522.749 340.695 528.649 351.787 528.649ZM395.58 528.649C405.964 528.649 413.457 523.28 414.519 512.837H405.138C404.371 518.265 400.713 520.92 395.462 520.92C388.5 520.92 384.488 515.846 384.488 507.114V506.642C384.488 497.91 388.736 492.718 395.403 492.718C400.713 492.718 403.545 495.432 404.253 500.506H414.047C413.044 490.122 405.492 485.166 395.344 485.166C383.367 485.166 374.399 493.898 374.399 506.701V507.173C374.399 520.153 381.774 528.649 395.58 528.649ZM437.945 528.649C448.329 528.649 455.822 523.28 456.884 512.837H447.503C446.736 518.265 443.078 520.92 437.827 520.92C430.865 520.92 426.853 515.846 426.853 507.114V506.642C426.853 497.91 431.101 492.718 437.768 492.718C443.078 492.718 445.91 495.432 446.618 500.506H456.412C455.409 490.122 447.857 485.166 437.709 485.166C425.732 485.166 416.764 493.898 416.764 506.701V507.173C416.764 520.153 424.139 528.649 437.945 528.649ZM461.311 528H489.749V520.566H470.81V510.064H485.206V503.102H470.81V493.249H488.805V485.815H461.311V528ZM509.495 528.649C519.466 528.649 525.602 522.69 525.602 515.197C525.602 506.465 520.351 503.692 510.144 502.394C503.654 501.45 502.297 500.034 502.297 497.025C502.297 494.193 504.421 492.246 508.61 492.246C512.799 492.246 515.041 494.016 515.631 497.851H524.422C523.655 489.473 518.109 485.225 508.61 485.225C499.288 485.225 493.27 490.594 493.27 497.792C493.27 505.934 497.695 509.179 508.492 510.595C514.687 511.539 516.457 512.719 516.457 516.082C516.457 519.386 513.684 521.687 509.495 521.687C503.241 521.687 501.648 518.56 501.235 514.784H492.09C492.621 523.221 497.931 528.649 509.495 528.649ZM544.946 528.649C554.917 528.649 561.053 522.69 561.053 515.197C561.053 506.465 555.802 503.692 545.595 502.394C539.105 501.45 537.748 500.034 537.748 497.025C537.748 494.193 539.872 492.246 544.061 492.246C548.25 492.246 550.492 494.016 551.082 497.851H559.873C559.106 489.473 553.56 485.225 544.061 485.225C534.739 485.225 528.721 490.594 528.721 497.792C528.721 505.934 533.146 509.179 543.943 510.595C550.138 511.539 551.908 512.719 551.908 516.082C551.908 519.386 549.135 521.687 544.946 521.687C538.692 521.687 537.099 518.56 536.686 514.784H527.541C528.072 523.221 533.382 528.649 544.946 528.649ZM566.946 514.843H573.908L575.206 485.815H565.648L566.946 514.843ZM570.368 528.531C573.318 528.531 575.737 526.289 575.737 523.457C575.737 520.566 573.318 518.324 570.368 518.324C567.418 518.324 564.999 520.566 564.999 523.457C564.999 526.289 567.418 528.531 570.368 528.531ZM19.293 588.649C29.264 588.649 35.4 582.69 35.4 575.197C35.4 566.465 30.149 563.692 19.942 562.394C13.452 561.45 12.095 560.034 12.095 557.025C12.095 554.193 14.219 552.246 18.408 552.246C22.597 552.246 24.839 554.016 25.429 557.851H34.22C33.453 549.473 27.907 545.225 18.408 545.225C9.086 545.225 3.068 550.594 3.068 557.792C3.068 565.934 7.493 569.179 18.29 570.595C24.485 571.539 26.255 572.719 26.255 576.082C26.255 579.386 23.482 581.687 19.293 581.687C13.039 581.687 11.446 578.56 11.033 574.784H1.888C2.419 583.221 7.729 588.649 19.293 588.649ZM57.1599 588.649C68.5469 588.649 74.9779 582.69 74.9779 571.185V545.815H65.3609V570.595C65.3609 578.324 62.8829 581.038 57.2189 581.038C51.4369 581.038 49.3719 577.97 49.3719 570.949V545.815H39.7549V571.539C39.7549 582.749 46.0679 588.649 57.1599 588.649ZM100.953 588.649C111.337 588.649 118.83 583.28 119.892 572.837H110.511C109.744 578.265 106.086 580.92 100.835 580.92C93.8731 580.92 89.8611 575.846 89.8611 567.114V566.642C89.8611 557.91 94.1091 552.718 100.776 552.718C106.086 552.718 108.918 555.432 109.626 560.506H119.42C118.417 550.122 110.865 545.166 100.717 545.166C88.7401 545.166 79.7721 553.898 79.7721 566.701V567.173C79.7721 580.153 87.1471 588.649 100.953 588.649ZM143.318 588.649C153.702 588.649 161.195 583.28 162.257 572.837H152.876C152.109 578.265 148.451 580.92 143.2 580.92C136.238 580.92 132.226 575.846 132.226 567.114V566.642C132.226 557.91 136.474 552.718 143.141 552.718C148.451 552.718 151.283 555.432 151.991 560.506H161.785C160.782 550.122 153.23 545.166 143.082 545.166C131.105 545.166 122.137 553.898 122.137 566.701V567.173C122.137 580.153 129.512 588.649 143.318 588.649ZM166.685 588H195.123V580.566H176.184V570.064H190.58V563.102H176.184V553.249H194.179V545.815H166.685V588ZM214.869 588.649C224.84 588.649 230.976 582.69 230.976 575.197C230.976 566.465 225.725 563.692 215.518 562.394C209.028 561.45 207.671 560.034 207.671 557.025C207.671 554.193 209.795 552.246 213.984 552.246C218.173 552.246 220.415 554.016 221.005 557.851H229.796C229.029 549.473 223.483 545.225 213.984 545.225C204.662 545.225 198.644 550.594 198.644 557.792C198.644 565.934 203.069 569.179 213.866 570.595C220.061 571.539 221.831 572.719 221.831 576.082C221.831 579.386 219.058 581.687 214.869 581.687C208.615 581.687 207.022 578.56 206.609 574.784H197.464C197.995 583.221 203.305 588.649 214.869 588.649ZM250.319 588.649C260.29 588.649 266.426 582.69 266.426 575.197C266.426 566.465 261.175 563.692 250.968 562.394C244.478 561.45 243.121 560.034 243.121 557.025C243.121 554.193 245.245 552.246 249.434 552.246C253.623 552.246 255.865 554.016 256.455 557.851H265.246C264.479 549.473 258.933 545.225 249.434 545.225C240.112 545.225 234.094 550.594 234.094 557.792C234.094 565.934 238.519 569.179 249.316 570.595C255.511 571.539 257.281 572.719 257.281 576.082C257.281 579.386 254.508 581.687 250.319 581.687C244.065 581.687 242.472 578.56 242.059 574.784H232.914C233.445 583.221 238.755 588.649 250.319 588.649ZM272.32 574.843H279.282L280.58 545.815H271.022L272.32 574.843ZM275.742 588.531C278.692 588.531 281.111 586.289 281.111 583.457C281.111 580.566 278.692 578.324 275.742 578.324C272.792 578.324 270.373 580.566 270.373 583.457C270.373 586.289 272.792 588.531 275.742 588.531ZM313.92 588.649C323.891 588.649 330.027 582.69 330.027 575.197C330.027 566.465 324.776 563.692 314.569 562.394C308.079 561.45 306.722 560.034 306.722 557.025C306.722 554.193 308.846 552.246 313.035 552.246C317.224 552.246 319.466 554.016 320.056 557.851H328.847C328.08 549.473 322.534 545.225 313.035 545.225C303.713 545.225 297.695 550.594 297.695 557.792C297.695 565.934 302.12 569.179 312.917 570.595C319.112 571.539 320.882 572.719 320.882 576.082C320.882 579.386 318.109 581.687 313.92 581.687C307.666 581.687 306.073 578.56 305.66 574.784H296.515C297.046 583.221 302.356 588.649 313.92 588.649ZM351.787 588.649C363.174 588.649 369.605 582.69 369.605 571.185V545.815H359.988V570.595C359.988 578.324 357.51 581.038 351.846 581.038C346.064 581.038 343.999 577.97 343.999 570.949V545.815H334.382V571.539C334.382 582.749 340.695 588.649 351.787 588.649ZM395.58 588.649C405.964 588.649 413.457 583.28 414.519 572.837H405.138C404.371 578.265 400.713 580.92 395.462 580.92C388.5 580.92 384.488 575.846 384.488 567.114V566.642C384.488 557.91 388.736 552.718 395.403 552.718C400.713 552.718 403.545 555.432 404.253 560.506H414.047C413.044 550.122 405.492 545.166 395.344 545.166C383.367 545.166 374.399 553.898 374.399 566.701V567.173C374.399 580.153 381.774 588.649 395.58 588.649ZM437.945 588.649C448.329 588.649 455.822 583.28 456.884 572.837H447.503C446.736 578.265 443.078 580.92 437.827 580.92C430.865 580.92 426.853 575.846 426.853 567.114V566.642C426.853 557.91 431.101 552.718 437.768 552.718C443.078 552.718 445.91 555.432 446.618 560.506H456.412C455.409 550.122 447.857 545.166 437.709 545.166C425.732 545.166 416.764 553.898 416.764 566.701V567.173C416.764 580.153 424.139 588.649 437.945 588.649ZM461.311 588H489.749V580.566H470.81V570.064H485.206V563.102H470.81V553.249H488.805V545.815H461.311V588ZM509.495 588.649C519.466 588.649 525.602 582.69 525.602 575.197C525.602 566.465 520.351 563.692 510.144 562.394C503.654 561.45 502.297 560.034 502.297 557.025C502.297 554.193 504.421 552.246 508.61 552.246C512.799 552.246 515.041 554.016 515.631 557.851H524.422C523.655 549.473 518.109 545.225 508.61 545.225C499.288 545.225 493.27 550.594 493.27 557.792C493.27 565.934 497.695 569.179 508.492 570.595C514.687 571.539 516.457 572.719 516.457 576.082C516.457 579.386 513.684 581.687 509.495 581.687C503.241 581.687 501.648 578.56 501.235 574.784H492.09C492.621 583.221 497.931 588.649 509.495 588.649ZM544.946 588.649C554.917 588.649 561.053 582.69 561.053 575.197C561.053 566.465 555.802 563.692 545.595 562.394C539.105 561.45 537.748 560.034 537.748 557.025C537.748 554.193 539.872 552.246 544.061 552.246C548.25 552.246 550.492 554.016 551.082 557.851H559.873C559.106 549.473 553.56 545.225 544.061 545.225C534.739 545.225 528.721 550.594 528.721 557.792C528.721 565.934 533.146 569.179 543.943 570.595C550.138 571.539 551.908 572.719 551.908 576.082C551.908 579.386 549.135 581.687 544.946 581.687C538.692 581.687 537.099 578.56 536.686 574.784H527.541C528.072 583.221 533.382 588.649 544.946 588.649ZM566.946 574.843H573.908L575.206 545.815H565.648L566.946 574.843ZM570.368 588.531C573.318 588.531 575.737 586.289 575.737 583.457C575.737 580.566 573.318 578.324 570.368 578.324C567.418 578.324 564.999 580.566 564.999 583.457C564.999 586.289 567.418 588.531 570.368 588.531ZM19.293 648.649C29.264 648.649 35.4 642.69 35.4 635.197C35.4 626.465 30.149 623.692 19.942 622.394C13.452 621.45 12.095 620.034 12.095 617.025C12.095 614.193 14.219 612.246 18.408 612.246C22.597 612.246 24.839 614.016 25.429 617.851H34.22C33.453 609.473 27.907 605.225 18.408 605.225C9.086 605.225 3.068 610.594 3.068 617.792C3.068 625.934 7.493 629.179 18.29 630.595C24.485 631.539 26.255 632.719 26.255 636.082C26.255 639.386 23.482 641.687 19.293 641.687C13.039 641.687 11.446 638.56 11.033 634.784H1.888C2.419 643.221 7.729 648.649 19.293 648.649ZM57.1599 648.649C68.5469 648.649 74.9779 642.69 74.9779 631.185V605.815H65.3609V630.595C65.3609 638.324 62.8829 641.038 57.2189 641.038C51.4369 641.038 49.3719 637.97 49.3719 630.949V605.815H39.7549V631.539C39.7549 642.749 46.0679 648.649 57.1599 648.649ZM100.953 648.649C111.337 648.649 118.83 643.28 119.892 632.837H110.511C109.744 638.265 106.086 640.92 100.835 640.92C93.8731 640.92 89.8611 635.846 89.8611 627.114V626.642C89.8611 617.91 94.1091 612.718 100.776 612.718C106.086 612.718 108.918 615.432 109.626 620.506H119.42C118.417 610.122 110.865 605.166 100.717 605.166C88.7401 605.166 79.7721 613.898 79.7721 626.701V627.173C79.7721 640.153 87.1471 648.649 100.953 648.649ZM143.318 648.649C153.702 648.649 161.195 643.28 162.257 632.837H152.876C152.109 638.265 148.451 640.92 143.2 640.92C136.238 640.92 132.226 635.846 132.226 627.114V626.642C132.226 617.91 136.474 612.718 143.141 612.718C148.451 612.718 151.283 615.432 151.991 620.506H161.785C160.782 610.122 153.23 605.166 143.082 605.166C131.105 605.166 122.137 613.898 122.137 626.701V627.173C122.137 640.153 129.512 648.649 143.318 648.649ZM166.685 648H195.123V640.566H176.184V630.064H190.58V623.102H176.184V613.249H194.179V605.815H166.685V648ZM214.869 648.649C224.84 648.649 230.976 642.69 230.976 635.197C230.976 626.465 225.725 623.692 215.518 622.394C209.028 621.45 207.671 620.034 207.671 617.025C207.671 614.193 209.795 612.246 213.984 612.246C218.173 612.246 220.415 614.016 221.005 617.851H229.796C229.029 609.473 223.483 605.225 213.984 605.225C204.662 605.225 198.644 610.594 198.644 617.792C198.644 625.934 203.069 629.179 213.866 630.595C220.061 631.539 221.831 632.719 221.831 636.082C221.831 639.386 219.058 641.687 214.869 641.687C208.615 641.687 207.022 638.56 206.609 634.784H197.464C197.995 643.221 203.305 648.649 214.869 648.649ZM250.319 648.649C260.29 648.649 266.426 642.69 266.426 635.197C266.426 626.465 261.175 623.692 250.968 622.394C244.478 621.45 243.121 620.034 243.121 617.025C243.121 614.193 245.245 612.246 249.434 612.246C253.623 612.246 255.865 614.016 256.455 617.851H265.246C264.479 609.473 258.933 605.225 249.434 605.225C240.112 605.225 234.094 610.594 234.094 617.792C234.094 625.934 238.519 629.179 249.316 630.595C255.511 631.539 257.281 632.719 257.281 636.082C257.281 639.386 254.508 641.687 250.319 641.687C244.065 641.687 242.472 638.56 242.059 634.784H232.914C233.445 643.221 238.755 648.649 250.319 648.649ZM272.32 634.843H279.282L280.58 605.815H271.022L272.32 634.843ZM275.742 648.531C278.692 648.531 281.111 646.289 281.111 643.457C281.111 640.566 278.692 638.324 275.742 638.324C272.792 638.324 270.373 640.566 270.373 643.457C270.373 646.289 272.792 648.531 275.742 648.531ZM313.92 648.649C323.891 648.649 330.027 642.69 330.027 635.197C330.027 626.465 324.776 623.692 314.569 622.394C308.079 621.45 306.722 620.034 306.722 617.025C306.722 614.193 308.846 612.246 313.035 612.246C317.224 612.246 319.466 614.016 320.056 617.851H328.847C328.08 609.473 322.534 605.225 313.035 605.225C303.713 605.225 297.695 610.594 297.695 617.792C297.695 625.934 302.12 629.179 312.917 630.595C319.112 631.539 320.882 632.719 320.882 636.082C320.882 639.386 318.109 641.687 313.92 641.687C307.666 641.687 306.073 638.56 305.66 634.784H296.515C297.046 643.221 302.356 648.649 313.92 648.649ZM351.787 648.649C363.174 648.649 369.605 642.69 369.605 631.185V605.815H359.988V630.595C359.988 638.324 357.51 641.038 351.846 641.038C346.064 641.038 343.999 637.97 343.999 630.949V605.815H334.382V631.539C334.382 642.749 340.695 648.649 351.787 648.649ZM395.58 648.649C405.964 648.649 413.457 643.28 414.519 632.837H405.138C404.371 638.265 400.713 640.92 395.462 640.92C388.5 640.92 384.488 635.846 384.488 627.114V626.642C384.488 617.91 388.736 612.718 395.403 612.718C400.713 612.718 403.545 615.432 404.253 620.506H414.047C413.044 610.122 405.492 605.166 395.344 605.166C383.367 605.166 374.399 613.898 374.399 626.701V627.173C374.399 640.153 381.774 648.649 395.58 648.649ZM437.945 648.649C448.329 648.649 455.822 643.28 456.884 632.837H447.503C446.736 638.265 443.078 640.92 437.827 640.92C430.865 640.92 426.853 635.846 426.853 627.114V626.642C426.853 617.91 431.101 612.718 437.768 612.718C443.078 612.718 445.91 615.432 446.618 620.506H456.412C455.409 610.122 447.857 605.166 437.709 605.166C425.732 605.166 416.764 613.898 416.764 626.701V627.173C416.764 640.153 424.139 648.649 437.945 648.649ZM461.311 648H489.749V640.566H470.81V630.064H485.206V623.102H470.81V613.249H488.805V605.815H461.311V648ZM509.495 648.649C519.466 648.649 525.602 642.69 525.602 635.197C525.602 626.465 520.351 623.692 510.144 622.394C503.654 621.45 502.297 620.034 502.297 617.025C502.297 614.193 504.421 612.246 508.61 612.246C512.799 612.246 515.041 614.016 515.631 617.851H524.422C523.655 609.473 518.109 605.225 508.61 605.225C499.288 605.225 493.27 610.594 493.27 617.792C493.27 625.934 497.695 629.179 508.492 630.595C514.687 631.539 516.457 632.719 516.457 636.082C516.457 639.386 513.684 641.687 509.495 641.687C503.241 641.687 501.648 638.56 501.235 634.784H492.09C492.621 643.221 497.931 648.649 509.495 648.649ZM544.946 648.649C554.917 648.649 561.053 642.69 561.053 635.197C561.053 626.465 555.802 623.692 545.595 622.394C539.105 621.45 537.748 620.034 537.748 617.025C537.748 614.193 539.872 612.246 544.061 612.246C548.25 612.246 550.492 614.016 551.082 617.851H559.873C559.106 609.473 553.56 605.225 544.061 605.225C534.739 605.225 528.721 610.594 528.721 617.792C528.721 625.934 533.146 629.179 543.943 630.595C550.138 631.539 551.908 632.719 551.908 636.082C551.908 639.386 549.135 641.687 544.946 641.687C538.692 641.687 537.099 638.56 536.686 634.784H527.541C528.072 643.221 533.382 648.649 544.946 648.649ZM566.946 634.843H573.908L575.206 605.815H565.648L566.946 634.843ZM570.368 648.531C573.318 648.531 575.737 646.289 575.737 643.457C575.737 640.566 573.318 638.324 570.368 638.324C567.418 638.324 564.999 640.566 564.999 643.457C564.999 646.289 567.418 648.531 570.368 648.531Z" fill="#008F1E"/>
</svg>
